<svg width="16" height="16" viewBox="0 0 16 16" fill="none" xmlns="http://www.w3.org/2000/svg">
<path d="M12.9476 3.91071C13.0731 4.65908 13.1425 5.45888 13.1425 6.2864C13.1425 7.11392 13.0739 7.91087 12.9493 8.66209C13.7806 8.86811 14.5192 9.15329 15.1099 9.50533C15.6834 8.54665 16 7.44024 16 6.28612C16 5.10999 15.6745 4.00901 15.1102 3.06662C14.5187 3.41895 13.7792 3.70469 12.9476 3.91071Z" fill="white"/>
<path d="M9.71353 8.85811C8.82113 8.85811 7.9456 8.94355 7.14265 9.10157C7.35982 10.1183 7.69414 11.0095 8.12191 11.6784C8.36994 11.7881 8.58854 11.8684 8.75627 11.9202C8.99258 11.9947 9.2429 11.889 9.35548 11.6676L9.51779 11.3401C9.79154 10.792 10.4365 10.5246 11.0168 10.7163L11.6981 10.9435C11.9409 10.4023 12.1387 9.77878 12.2833 9.09842C11.4869 8.94269 10.6154 8.85783 9.71381 8.85783L9.71353 8.85811Z" fill="white"/>
<path d="M4.63434 2.59057C5.16812 2.90489 5.83449 3.1612 6.58629 3.3498C6.85461 2.09852 7.28924 1.02754 7.8453 0.284603C6.56886 0.681789 5.4413 1.48188 4.63434 2.59057Z" fill="white"/>
<path d="M13.8117 12.2508L10.8365 11.2587C10.5176 11.1538 10.179 11.2952 10.0293 11.595L9.86612 11.9239C9.62437 12.3996 9.08517 12.6262 8.58482 12.4651C7.81673 12.2282 6.65116 11.6979 5.47787 10.5243C4.31145 9.3576 3.77681 8.18947 3.53364 7.4151C3.37705 6.91304 3.60508 6.37527 4.07542 6.1361L4.40774 5.97151C4.70264 5.82378 4.84694 5.47689 4.74293 5.16428L3.75024 2.18595C3.66566 1.94136 3.45849 1.76762 3.21046 1.73619C3.10302 1.72305 2.97957 1.71447 2.84298 1.71447C2.44008 1.71447 1.91887 1.79048 1.3348 2.05937C0.709585 2.34654 0.236099 3.07548 0.0686504 4.00901C-0.130516 5.11942 -0.16052 8.1346 3.85311 12.1488C7.86416 16.1603 10.8791 16.1312 11.9904 15.9309C12.9248 15.7632 13.6537 15.29 13.9406 14.6647C14.3007 13.8801 14.3152 13.212 14.2638 12.7897C14.2329 12.5431 14.0595 12.3362 13.8117 12.2508Z" fill="white"/>
<path d="M4.66235 6.483L4.33174 6.64673C4.11285 6.75817 4.00541 7.00991 4.07885 7.24422C4.2343 7.7397 4.52633 8.41292 5.05039 9.14071C5.48587 8.95098 5.96279 8.78811 6.47885 8.65981C6.35255 7.90658 6.28454 7.10535 6.28454 6.28612C6.28454 5.4586 6.35398 4.6588 6.47942 3.91043C5.82563 3.74841 5.2307 3.53639 4.71778 3.28207L5.28471 4.98312C5.47845 5.56375 5.21098 6.20868 4.66235 6.483Z" fill="white"/>
<path d="M7.21294 11.1898C6.95262 10.6123 6.74117 9.94709 6.58629 9.22501C6.16481 9.33074 5.77334 9.45989 5.41415 9.60677C5.5576 9.77707 5.7099 9.94823 5.88192 10.12C6.33826 10.5766 6.79289 10.9226 7.21323 11.1895L7.21294 11.1898Z" fill="white"/>
<path d="M11.5806 0.282888C12.137 1.02554 12.5722 2.09737 12.8408 3.3498C13.5931 3.1612 14.2601 2.9046 14.7941 2.59C14.0063 1.51045 12.8845 0.688933 11.5806 0.282888Z" fill="white"/>
<path d="M12.8442 9.22358C12.6962 9.91737 12.4936 10.5569 12.2427 11.1255L13.2662 11.4667C13.8649 11.0546 14.3792 10.5523 14.7947 9.98309C14.2621 9.66849 13.5957 9.41217 12.8442 9.22358Z" fill="white"/>
<path d="M12.571 6.2864C12.571 5.50517 12.505 4.74538 12.3873 4.03387C11.5538 4.19732 10.6474 4.28618 9.71353 4.28618C8.7797 4.28618 7.87331 4.19732 7.03978 4.03387C6.92205 4.74538 6.85604 5.50517 6.85604 6.2864C6.85604 7.06763 6.91919 7.82429 7.03606 8.53636C7.86902 8.37292 8.77484 8.28662 9.71353 8.28662C10.6522 8.28662 11.5543 8.37549 12.3876 8.53865C12.5053 7.822 12.571 7.06192 12.571 6.2864Z" fill="white"/>
<path d="M10.5733 0.0602923C10.2922 0.0217167 10.0053 0 9.71353 0C9.42178 0 9.13632 0.0217166 8.85343 0.060578C8.09248 0.634355 7.48297 1.89735 7.14579 3.47409C7.94217 3.62983 8.81313 3.71441 9.71381 3.71441C10.6145 3.71441 11.4855 3.62983 12.2818 3.47409C11.9447 1.89706 11.3349 0.633784 10.5736 0.0600066L10.5733 0.0602923Z" fill="white"/>
</svg>
