<svg width="26" height="26" viewBox="0 0 26 26" fill="none" xmlns="http://www.w3.org/2000/svg">
<path d="M13 26C20.1797 26 26 20.1797 26 13C26 5.8203 20.1797 0 13 0C5.8203 0 0 5.8203 0 13C0 20.1797 5.8203 26 13 26Z" fill="#25282E"/>
<path d="M18.4364 12.0545L11.3455 7.32727C10.9909 7.09091 10.5182 7.09091 10.1636 7.32727C9.69091 7.44545 9.45455 7.8 9.45455 8.27273V17.7273C9.45455 18.2 9.69091 18.5545 10.0455 18.7909C10.2818 18.9091 10.4 18.9091 10.6364 18.9091C10.8727 18.9091 11.1091 18.7909 11.3455 18.6727L18.4364 13.9455C18.7909 13.7091 18.9091 13.3545 18.9091 13C18.9091 12.6455 18.6727 12.2909 18.4364 12.0545Z" fill="white"/>
</svg>
