<svg width="30" height="30" viewBox="0 0 30 30" fill="none" xmlns="http://www.w3.org/2000/svg">
<path d="M12.612 24.6308C12.612 26.1108 12.6048 27.5908 12.6146 29.0708C12.6207 29.9862 12.607 30.0174 11.7523 29.8129C9.37995 29.2455 7.22895 28.2271 5.36633 26.6168C1.99205 23.6998 0.143057 19.9929 0.00720975 15.5301C-0.268111 6.48238 7.38025 -0.760499 16.3716 0.0640708C24.379 0.798494 30.5672 7.69244 29.9587 16.246C29.512 22.5234 25.061 27.8912 19.1269 29.5702C18.9986 29.6065 18.8713 29.6466 18.7432 29.6837C17.2076 30.1279 17.2771 30.3531 17.2683 28.614C17.2538 25.7439 17.2922 22.8735 17.2759 20.0034C17.2724 19.4066 17.4498 19.229 18.0428 19.2899C18.77 19.3645 19.5085 19.3207 20.2416 19.3443C20.6296 19.3568 20.8825 19.2498 20.9281 18.8094C21.0435 17.6949 21.1711 16.5816 21.3045 15.4691C21.3571 15.0304 21.1468 14.9277 20.7599 14.9434C19.8049 14.982 18.8481 14.9806 17.8937 15.029C17.4368 15.0523 17.2358 14.8984 17.2516 14.4262C17.2815 13.5303 17.2599 12.6319 17.3125 11.7377C17.3681 10.7937 17.9795 10.1402 18.9071 9.91556C19.59 9.7502 20.2794 9.80652 20.9656 9.8435C21.4274 9.8684 21.6103 9.69835 21.5988 9.22917C21.5774 8.35517 21.5805 7.48014 21.5941 6.60585C21.6003 6.20924 21.4224 6.03312 21.0482 6.00017C19.6967 5.88109 18.3451 5.74093 16.9903 5.94144C14.5491 6.30275 12.8443 8.19758 12.6628 10.7614C12.5789 11.9476 12.5594 13.1376 12.6327 14.3243C12.6681 14.8986 12.4755 15.0655 11.9099 15.016C11.0921 14.9444 10.2655 14.9815 9.44465 14.9357C8.99866 14.9108 8.78122 15.0444 8.78137 15.5219C8.78173 16.5981 8.76548 17.6744 8.74119 18.7503C8.73147 19.1816 8.91221 19.3553 9.33817 19.3427C10.2491 19.3156 11.1621 19.337 12.0717 19.2883C12.5262 19.2639 12.6398 19.4142 12.6332 19.8545C12.6095 21.4463 12.6238 23.0385 12.6238 24.6306C12.6201 24.6308 12.6161 24.6308 12.612 24.6308Z" fill="white"/>
</svg>
