<svg width="30" height="30" viewBox="0 0 30 30" fill="none" xmlns="http://www.w3.org/2000/svg">
<path d="M18.7248 7.54726H11.275C9.25657 7.54726 7.62034 9.18791 7.62034 11.2117V18.7883C7.62034 20.8121 9.25657 22.4528 11.275 22.4528H18.7248C20.7432 22.4528 22.3795 20.8121 22.3795 18.7883V11.2117C22.3795 9.18791 20.7432 7.54726 18.7248 7.54726ZM14.9999 19.6451C12.4414 19.6451 10.3673 17.5654 10.3673 15C10.3673 12.4345 12.4414 10.3549 14.9999 10.3549C17.5585 10.3549 19.6326 12.4345 19.6326 15C19.6326 17.5654 17.5585 19.6451 14.9999 19.6451ZM19.9505 11.1144C19.3488 11.1144 18.861 10.6253 18.861 10.0219C18.861 9.41856 19.3488 8.92944 19.9505 8.92944C20.5523 8.92944 21.0401 9.41856 21.0401 10.0219C21.0401 10.6253 20.5523 11.1144 19.9505 11.1144Z" fill="white"/>
<path d="M15.554 18.0569C17.2403 17.7518 18.3606 16.1337 18.0563 14.4429C17.7519 12.7521 16.1382 11.6287 14.4519 11.9339C12.7657 12.239 11.6453 13.8571 11.9497 15.5479C12.254 17.2388 13.8677 18.3621 15.554 18.0569Z" fill="white"/>
<path d="M14.7886 3.29559e-05C6.69179 0.0164147 -0.0149826 6.78272 0.0017181 14.9182C-0.124917 23.3702 6.76564 30.0187 15.0928 30C23.2235 29.9816 30.005 23.1631 30 15.0021C29.9948 6.63011 23.2548 -0.0170768 14.7886 3.29559e-05ZM24.0097 19.6252C24.0097 22.0961 22.0121 24.0991 19.5478 24.0991H10.4521C7.98791 24.0991 5.99022 22.096 5.99022 19.6252V10.3748C5.99022 7.90388 7.98791 5.90087 10.4521 5.90087H19.5478C22.0121 5.90087 24.0097 7.90395 24.0097 10.3748V19.6252Z" fill="white"/>
</svg>
