<svg width="30" height="30" viewBox="0 0 30 30" fill="none" xmlns="http://www.w3.org/2000/svg">
<path d="M29.9997 15.1034C29.9472 23.4292 23.2088 30.1249 14.8475 29.9982C6.53049 29.8722 -0.0879446 23.1908 0.000883766 14.7618C0.0869544 6.59493 6.9242 -0.0560924 15.1941 0.000356689C23.4365 0.0566602 30.052 6.80499 29.9997 15.1034ZM12.5209 17.6598C12.5199 17.6598 12.5189 17.6599 12.5179 17.6599C12.5179 19.2419 12.5387 20.8245 12.5064 22.4059C12.4953 22.9438 12.7045 23.1267 13.1996 23.1206C13.8885 23.112 14.5807 23.0836 15.2658 23.1374C15.8353 23.1822 15.9362 22.9303 15.931 22.4391C15.9136 20.7904 15.9271 19.1413 15.9301 17.4925C15.931 16.9971 16.0129 16.515 16.205 16.0575C16.5567 15.2203 17.4177 14.7211 18.2963 14.8353C19.0645 14.9352 19.5568 15.5061 19.6831 16.4768C19.7261 16.807 19.7351 17.1437 19.7341 17.4773C19.7292 19.1039 19.7212 20.7305 19.7013 22.357C19.6966 22.7433 19.7023 23.0985 20.2101 23.11C21.0543 23.129 21.8989 23.1355 22.7433 23.1433C23.0824 23.1463 23.2017 22.9625 23.1992 22.6333C23.1806 20.2491 23.2532 17.8606 23.1301 15.4821C23.0507 13.9485 22.2676 12.689 20.7501 12.1423C19.3099 11.6235 17.9066 11.7314 16.7104 12.8429C16.5815 12.9626 16.4364 13.0732 16.2814 13.1547C15.9605 13.3238 15.8141 13.2322 15.8006 12.8478C15.7988 12.2792 15.6304 12.2792 15.1733 12.2679C14.5295 12.2519 13.8822 12.3144 13.2414 12.2682C12.6789 12.2276 12.5016 12.4281 12.5112 12.9815C12.5385 14.5405 12.5209 16.1003 12.5209 17.6598ZM7.10469 17.6752C7.10469 19.2812 7.11477 20.8873 7.09808 22.4932C7.0935 22.9348 7.21768 23.1623 7.69673 23.1488C8.47499 23.1267 9.25456 23.1193 10.0327 23.1389C10.4562 23.1495 10.5631 22.9568 10.5617 22.5744C10.5495 19.3178 10.545 16.061 10.5472 12.8044C10.5475 12.3998 10.3865 12.2629 9.98521 12.2755C9.20731 12.3001 8.4271 12.3015 7.64956 12.2696C7.19352 12.251 7.09161 12.4319 7.09749 12.8575C7.11977 14.4631 7.10643 16.0692 7.10469 17.6752ZM10.7778 8.73228C10.7615 7.70832 9.82861 6.89196 8.70367 6.91702C7.70413 6.9393 6.85344 7.81634 6.85619 8.82171C6.85924 9.94691 7.76836 10.8225 8.92661 10.8159C9.88855 10.8105 10.7947 9.79061 10.7778 8.73228Z" fill="white"/>
</svg>
