<svg width="30" height="30" viewBox="0 0 30 30" fill="none" xmlns="http://www.w3.org/2000/svg">
<path d="M15 0C6.71572 0 0 6.71573 0 15C0 23.2843 6.71572 30 15 30C23.2844 30 30 23.2843 30 15C30 6.71573 23.2843 0 15 0ZM22.3808 7.87801C21.8582 8.38197 21.3917 8.93842 20.8941 9.46571C19.7367 10.6921 18.5834 11.9223 17.4292 13.1517C17.2152 13.3796 17.0084 13.6145 16.7761 13.8246C16.6919 13.9006 16.7182 13.9741 16.7695 14.0535C17.0354 14.4644 17.2985 14.8772 17.5657 15.2872C18.0457 16.0237 18.5279 16.7589 19.0092 17.4946C19.58 18.3669 20.1566 19.2355 20.72 20.1124C21.2148 20.8827 21.7202 21.6457 22.225 22.4094C22.24 22.4321 22.256 22.4544 22.2681 22.4787C22.2876 22.5181 22.3303 22.5572 22.3068 22.6023C22.2811 22.6514 22.225 22.6272 22.1826 22.6272C20.8171 22.6279 19.4517 22.6261 18.0863 22.6291C17.9692 22.6294 17.8942 22.595 17.8294 22.4943C17.2434 21.5836 16.6539 20.6754 16.0634 19.7677C15.4285 18.7916 14.7914 17.8168 14.1551 16.8416C14.071 16.7127 14.0808 16.7221 13.9811 16.8328C13.7565 17.0819 13.5192 17.3194 13.2901 17.5645C12.7514 18.1406 12.2152 18.7188 11.6769 19.2952C10.8105 20.2226 9.94166 21.1476 9.07854 22.078C8.97056 22.1943 8.85564 22.2479 8.69859 22.2462C8.35861 22.2424 7.84802 22.0561 7.50819 22.0824C7.47399 22.085 7.42579 22.097 7.41361 22.0535C7.39852 21.9997 7.44257 21.9614 7.47625 21.9263C7.69294 21.7005 12.3964 16.643 13.2539 15.7005C13.3151 15.6332 13.3305 15.5799 13.2772 15.4986C12.4441 14.2295 11.7804 13.2141 10.9504 11.9429C10.3112 10.964 9.67516 9.98309 9.03712 9.00353C8.70829 8.4987 8.37809 7.99473 8.04816 7.49048C8.02862 7.46066 7.99407 7.43296 8.0061 7.3957C8.01799 7.35925 8.05771 7.36734 8.08935 7.36923C8.79651 7.41291 9.50441 7.3731 9.98934 7.38571C10.9013 7.38571 11.5909 7.38783 12.2803 7.38374C12.3948 7.38301 12.4523 7.42458 12.5131 7.52366C12.7619 7.92927 13.0245 8.32634 13.2847 8.72487C14.0525 9.90121 15.7468 12.4809 15.9135 12.6962C16.0231 12.8377 16.0185 12.8307 16.1322 12.6995C16.5304 12.2403 20.1569 8.41754 20.7437 7.78708C20.7952 7.73167 20.8472 7.70965 20.9205 7.70878C21.3011 7.70426 21.914 7.73692 22.3122 7.77345C22.3464 7.77658 22.3889 7.76098 22.4118 7.79846C22.4333 7.83367 22.4035 7.85599 22.3808 7.87801Z" fill="white"/>
<path d="M15.1826 13.9034C14.713 13.1831 14.2449 12.462 13.7758 11.7414C13.317 11.0368 12.8571 10.3331 12.4002 9.62728C12.3535 9.55502 12.2995 9.52076 12.2134 9.52222C12.0145 9.5255 11.8156 9.52331 11.6166 9.52331C11.6166 9.5231 11.6166 9.52353 11.6166 9.52331C11.4215 9.52331 11.2264 9.522 11.0313 9.52331C10.9987 9.52353 10.9557 9.5037 10.9355 9.53673C10.9145 9.57114 10.9518 9.59958 10.9697 9.62714C11.2117 9.99854 11.4544 10.3697 11.6969 10.7407C12.3516 11.7421 13.0067 12.7433 13.6608 13.7452C14.2041 14.5773 14.7463 15.4103 15.2887 16.2431C15.781 16.9988 16.2722 17.7554 16.7652 18.5106C17.2102 19.1922 17.659 19.8714 18.1009 20.5549C18.1566 20.6411 18.2176 20.6733 18.3154 20.671C18.7054 20.662 19.0955 20.657 19.4855 20.6733C19.5149 20.6746 19.5519 20.6849 19.5693 20.6531C19.5869 20.6208 19.5555 20.5959 19.5399 20.5721C19.1723 20.0091 18.8033 19.4472 18.4354 18.8844C17.8542 17.9953 17.2736 17.1057 16.6928 16.2163C16.1893 15.4453 15.6854 14.6747 15.1826 13.9034Z" fill="white"/>
</svg>
