<svg width="24" height="24" viewBox="0 0 24 24" fill="none" xmlns="http://www.w3.org/2000/svg">
<path d="M17.6067 15.5264C18.619 14.194 19.2317 12.7152 19.4448 11.0897C19.6579 9.46427 19.4714 7.8788 18.8854 6.3333C18.2994 4.78779 17.367 3.46879 16.0884 2.37627C14.8097 1.28376 13.3712 0.564304 11.7729 0.217899C10.1746 -0.128508 8.5896 -0.0618896 7.01793 0.417749C5.44625 0.897388 4.06105 1.72343 2.86231 2.89588C1.66358 4.06833 0.837782 5.44064 0.384927 7.01278C-0.0679283 8.58494 -0.121205 10.1704 0.225096 11.7692C0.571397 13.368 1.29064 14.8069 2.38282 16.086C3.475 17.365 4.79361 18.2976 6.33864 18.8839C7.88368 19.4701 9.46867 19.6566 11.0936 19.4434C12.7186 19.2303 14.197 18.6174 15.5289 17.6048L21.4427 23.6003C21.7091 23.8668 22.0554 24 22.4816 24C22.9078 24 23.2674 23.8534 23.5605 23.5603C23.8535 23.2672 24 22.9075 24 22.4811C24 22.0548 23.8668 21.7084 23.6004 21.4419L17.6067 15.5264ZM18.0063 9.77071C18.0063 11.2629 17.6334 12.6352 16.8875 13.8876C16.1416 15.14 15.1427 16.1392 13.8907 16.8854C12.6387 17.6315 11.2668 18.0045 9.77501 18.0045C8.28326 18.0045 6.89805 17.6315 5.6194 16.8854C4.34075 16.1392 3.34181 15.14 2.62257 13.8876C1.90332 12.6352 1.5437 11.2629 1.5437 9.77071C1.5437 8.2785 1.90332 6.89288 2.62257 5.61384C3.34181 4.3348 4.34075 3.33555 5.6194 2.61609C6.89805 1.89664 8.28326 1.53691 9.77501 1.53691C11.2668 1.53691 12.6387 1.89664 13.8907 2.61609C15.1427 3.33555 16.1416 4.3348 16.8875 5.61384C17.6334 6.89288 18.0063 8.2785 18.0063 9.77071Z" fill="white"/>
</svg>
