<svg width="43" height="52" viewBox="0 0 43 52" fill="none" xmlns="http://www.w3.org/2000/svg">
<path d="M39.3027 4.66602C39.3006 4.55288 39.2906 4.44311 39.2695 4.33594C39.2477 4.22506 39.2142 4.11529 39.1689 4.00488C39.1243 3.89579 39.0712 3.79375 39.0078 3.69727C38.9445 3.60084 38.8742 3.51511 38.7969 3.4375L38.7881 3.42871C38.7116 3.35018 38.6273 3.27951 38.5332 3.21582L38.5293 3.21289C38.4373 3.15002 38.3408 3.09739 38.2422 3.05664L38.2354 3.05371C38.1334 3.01067 38.0276 2.97872 37.916 2.95605H37.9141C37.8018 2.93307 37.6924 2.9209 37.585 2.9209H4.64258L4.47071 2.93066C4.41425 2.93645 4.35865 2.94491 4.30371 2.95605L4.29688 2.95703C4.19511 2.977 4.09009 3.0091 3.98438 3.05371C3.87994 3.09781 3.78164 3.15013 3.68848 3.21289C3.58503 3.28509 3.50094 3.35656 3.43067 3.42871C3.347 3.51463 3.27366 3.60389 3.21192 3.69629C3.1459 3.79886 3.09216 3.90152 3.04981 4.00488C3.00516 4.11388 2.97141 4.22533 2.94922 4.33691C2.92609 4.45334 2.91506 4.56749 2.91504 4.67969V47.3242C2.91507 47.4393 2.92591 47.5533 2.94824 47.667L2.99024 47.834C3.007 47.8894 3.0265 47.9445 3.04883 47.999C3.09273 48.1062 3.14515 48.2058 3.20703 48.3008C3.2724 48.3974 3.34322 48.4856 3.4209 48.5664C3.50624 48.652 3.59462 48.7267 3.68555 48.7891C3.73219 48.8203 3.78015 48.8494 3.8291 48.876L3.98242 48.9502L3.98535 48.9512C4.08235 48.9925 4.18824 49.0248 4.30176 49.0479H4.30371C4.41041 49.0697 4.51996 49.0811 4.63281 49.0811H37.584C37.6947 49.081 37.8044 49.0701 37.9141 49.0479C38.0256 49.0252 38.1314 48.9932 38.2334 48.9502C38.341 48.9048 38.4388 48.8517 38.5264 48.792C38.6228 48.7257 38.7095 48.6515 38.791 48.5703C38.8737 48.485 38.9467 48.3973 39.0078 48.3057C39.0734 48.2036 39.1268 48.1018 39.1689 47.999C39.2122 47.8934 39.2456 47.7815 39.2705 47.6602C39.292 47.5487 39.3027 47.437 39.3027 47.3242V4.66602ZM39.8252 3.80176C39.8196 3.80484 39.8142 3.80834 39.8086 3.81152C39.8148 3.80798 39.8209 3.80419 39.8272 3.80078L39.8252 3.80176ZM42.2119 47.3242C42.2119 47.4778 42.2042 47.6302 42.1895 47.7822L42.1885 47.7812C42.1744 47.9407 42.1503 48.0898 42.124 48.2246L42.125 48.2256C42.0958 48.3818 42.0573 48.5346 42.0127 48.6816C41.9674 48.8312 41.9158 48.9723 41.8623 49.1055L41.8604 49.1094C41.8015 49.2539 41.7369 49.3906 41.6699 49.5195L41.665 49.5283C41.5926 49.6641 41.5158 49.7915 41.4365 49.9131C41.3522 50.0424 41.2616 50.168 41.1631 50.2891C41.0694 50.4043 40.9693 50.5173 40.8604 50.6279C40.7514 50.7386 40.6401 50.8403 40.5264 50.9355C40.4037 51.0383 40.2802 51.1294 40.1621 51.21C40.036 51.296 39.9061 51.3744 39.7754 51.4463L39.7656 51.4512C39.6392 51.5189 39.5033 51.5839 39.3574 51.6445L39.3584 51.6465C39.2151 51.7066 39.072 51.7566 38.9336 51.7998C38.7878 51.8453 38.6399 51.8826 38.4902 51.9131C38.3402 51.9439 38.1885 51.9673 38.0381 51.9824C37.8868 51.9976 37.735 52.0049 37.582 52.0049H4.63086C4.47797 52.0049 4.32611 51.9976 4.17481 51.9824C4.02606 51.9673 3.87434 51.9445 3.72461 51.9141H3.72168C3.57809 51.8845 3.43452 51.8469 3.29199 51.8027C3.13632 51.7561 2.99244 51.7017 2.86133 51.6475L2.85645 51.6465C2.71302 51.5863 2.5778 51.5195 2.4502 51.4512L2.44043 51.4463C2.30621 51.3725 2.1805 51.2944 2.06055 51.2139C1.9327 51.128 1.80895 51.0357 1.68946 50.9355C1.5757 50.8402 1.46451 50.7386 1.35547 50.6279C1.24647 50.5173 1.14646 50.4043 1.05274 50.2891C0.958548 50.1732 0.866069 50.0477 0.778322 49.9131L0.776369 49.9102C0.697426 49.7881 0.621203 49.6603 0.550783 49.5283C0.478697 49.3932 0.412447 49.2541 0.353518 49.1094L0.349611 49.0986C0.298274 48.9683 0.247599 48.8284 0.203127 48.6816C0.159061 48.5362 0.121943 48.3884 0.091799 48.2354C0.0623174 48.0857 0.0402754 47.9351 0.0253928 47.7822L0.0263693 47.7812C0.00991977 47.6251 0.000991145 47.4731 0.000978692 47.3242V4.68066C0.000973752 4.67616 -5.28186e-05 4.67151 2.12962e-06 4.66699L0.00683807 4.44727C0.0106685 4.37295 0.0160469 4.29767 0.0234396 4.22168C0.0383226 4.06876 0.0613333 3.91823 0.0908224 3.76855C0.120234 3.61927 0.156539 3.47499 0.199221 3.33301C0.244062 3.1787 0.296735 3.03159 0.352541 2.89453L0.354494 2.88867C0.410419 2.75384 0.474265 2.61521 0.549807 2.47363C0.622258 2.33786 0.699044 2.21048 0.778322 2.08887C0.862524 1.95971 0.952444 1.83483 1.05078 1.71387L1.05664 1.70801C1.14126 1.60559 1.23986 1.48992 1.35352 1.37598C1.46262 1.26522 1.57464 1.16374 1.68848 1.06836C1.8079 0.96832 1.93084 0.875864 2.0586 0.790039C2.18298 0.70552 2.31394 0.626189 2.44922 0.553711C2.58022 0.482074 2.71506 0.416338 2.85547 0.357422L2.85938 0.355469C2.99067 0.301106 3.1351 0.246866 3.29102 0.200195C3.42977 0.158667 3.57463 0.12127 3.72461 0.0908203C3.87403 0.0601907 4.02503 0.0374912 4.17481 0.0224609C4.32613 0.0072892 4.47799 2.94827e-06 4.63086 0H37.582C37.7349 0 37.8867 0.00728631 38.0381 0.0224609C38.1901 0.0376994 38.3397 0.0606651 38.4883 0.0908203L38.4873 0.0917969C38.6372 0.120781 38.7818 0.158172 38.9209 0.201172L38.9219 0.200195C39.0778 0.246865 39.2222 0.30208 39.3535 0.356445L39.3613 0.359375L39.3682 0.362305C39.4958 0.417583 39.6302 0.481779 39.7686 0.557617C39.9011 0.629633 40.0308 0.70708 40.1543 0.790039C40.2822 0.875952 40.4059 0.968207 40.5254 1.06836C40.6465 1.16838 40.7584 1.27345 40.8594 1.37598C40.9672 1.48539 41.0666 1.59879 41.1602 1.71387C41.2619 1.83723 41.3527 1.96176 41.4356 2.08887C41.4752 2.14971 41.5136 2.21232 41.5518 2.27637L41.6641 2.47363L41.6689 2.4834C41.732 2.60473 41.8004 2.74437 41.8623 2.89844L41.8652 2.90527C41.9165 3.0355 41.9663 3.17561 42.0107 3.32227C42.0548 3.46768 42.0929 3.61553 42.1231 3.76855C42.153 3.91893 42.1748 4.07094 42.1895 4.22168C42.2043 4.37376 42.2119 4.52608 42.2119 4.67969V47.3242Z" fill="#EA4435"/>
<path d="M18.0417 45.2743H6.28238C6.22257 45.2743 6.16422 45.2861 6.10878 45.3113C6.05335 45.3365 6.00375 45.372 5.96144 45.4194C5.91914 45.4668 5.88559 45.5201 5.86225 45.5808C5.8389 45.6415 5.82723 45.7052 5.82723 45.7719C5.82723 45.8385 5.8389 45.9022 5.86225 45.9629C5.88559 46.0236 5.91914 46.0784 5.96144 46.1258C6.00375 46.1732 6.05335 46.2087 6.10878 46.2339C6.16422 46.2606 6.22257 46.2724 6.28238 46.2724H18.0417C18.1016 46.2724 18.1599 46.2606 18.2153 46.2339C18.2708 46.2087 18.3204 46.1732 18.3627 46.1258C18.405 46.0784 18.4385 46.0251 18.4604 45.9629C18.4838 45.9022 18.4954 45.8385 18.4954 45.7719C18.4954 45.7052 18.4838 45.6415 18.4604 45.5808C18.4371 45.5201 18.405 45.4653 18.3627 45.4194C18.3204 45.3735 18.2708 45.3365 18.2153 45.3113C18.1599 45.2861 18.1016 45.2743 18.0417 45.2743Z" fill="#4285F4"/>
<path d="M34.1702 38.1986C34.8588 37.347 35.454 36.0231 35.0499 34.8562C34.977 34.6681 34.888 34.4874 34.78 34.3171C34.6721 34.1468 34.551 33.9884 34.4124 33.8433C34.2753 33.6981 34.125 33.5678 33.9631 33.4523C33.8012 33.3368 33.629 33.239 33.4481 33.1591C33.2906 33.0806 33.1243 33.0391 32.9478 33.0347C32.7713 33.0302 32.605 33.0628 32.443 33.1339C31.871 33.4315 31.4295 34.3884 32.3259 38.4589C32.3648 38.6356 32.259 38.8244 32.0798 38.7998C31.9346 38.7749 31.8188 38.6819 31.7084 38.5538C31.564 38.3862 31.4659 38.1824 31.3212 38.0149C31.2483 37.932 31.168 37.858 31.0776 37.7943C30.9872 37.7306 30.8923 37.6788 30.7902 37.6388C30.6881 37.5988 30.5845 37.5721 30.4751 37.5573C29.8187 37.5336 29.3839 38.1319 29.0324 38.6117C28.8208 38.9005 28.5626 39.2737 28.3905 39.2426C28.1162 39.207 27.842 38.3674 27.6946 37.9157C27.4787 37.2537 27.3066 36.7695 26.9127 36.8006C26.4561 36.8258 26.4036 37.3885 26.3248 38.24C26.2636 38.8872 26.1658 39.9697 25.8201 40.1222C25.5137 40.2555 24.6735 39.8897 23.6552 38.9272C23.5718 38.848 23.4898 38.7675 23.4092 38.6858C22.9689 38.2392 22.9459 37.5518 23.222 36.9887C23.3766 36.6747 23.5137 36.3534 23.6334 36.0231C23.753 35.6929 23.8565 35.3582 23.9426 35.0176C24.0287 34.677 24.0958 34.3319 24.1454 33.9839C24.195 33.6359 24.2256 33.2864 24.2388 32.934C24.2519 32.5815 24.246 32.2306 24.2227 31.8796C24.1994 31.5286 24.1571 31.1791 24.0972 30.8326C24.0374 30.4861 23.9587 30.144 23.8624 29.8063C23.6202 29.1399 23.2847 28.7342 22.8937 28.632C21.8945 28.3758 20.6939 30.0714 20.2708 31.4057C19.853 32.7244 20.0297 34.153 20.558 35.5026C21.1596 37.0391 21.2701 38.9239 19.8551 39.7727C19.8186 39.7935 19.7865 39.8216 19.7617 39.8557C19.7369 39.8897 19.7179 39.9268 19.7063 39.9682C19.6961 40.0097 19.6931 40.0526 19.699 40.0941C19.7048 40.1356 19.7179 40.177 19.7398 40.2141C19.7617 40.2511 19.788 40.2822 19.823 40.3088C19.8565 40.334 19.893 40.3518 19.9338 40.3621C19.9747 40.3725 20.0155 40.374 20.0564 40.3666C20.0972 40.3592 20.1366 40.3459 20.1716 40.3222C20.6208 40.0532 21.0378 39.7452 21.4226 39.3979C21.9308 38.9394 22.7381 38.9289 23.2366 39.3981C23.6713 39.8068 25.152 41.11 26.0637 40.7102C26.7464 40.408 26.8529 39.2885 26.9434 38.3007C26.9482 38.2481 26.9532 38.1926 26.9585 38.1357C26.9666 38.0495 27.0786 38.0377 27.1053 38.1201C27.3606 38.9049 27.6509 39.795 28.3146 39.8779C28.8383 39.946 29.187 39.4632 29.5269 38.9982C29.8187 38.5984 30.1031 38.1852 30.4518 38.1986C30.6618 38.206 30.799 38.3822 31.0061 38.671C31.1111 38.8605 31.2468 39.0205 31.416 39.1523C31.5838 39.2841 31.7705 39.3773 31.9762 39.4307C32.2823 39.4809 32.6 39.6478 32.6761 39.9485C32.9841 41.1661 33.3871 42.6011 33.9047 44.2969C33.9252 44.3635 33.9631 44.4168 34.0171 44.4583C34.071 44.4998 34.1338 44.5205 34.2009 44.5205C34.233 44.5205 34.2636 44.516 34.2942 44.5057C34.3336 44.4924 34.3686 44.4731 34.4007 44.445C34.4314 44.4183 34.4576 44.3857 34.4766 44.3472C34.4956 44.3087 34.5072 44.2702 34.5101 44.2273C34.5131 44.1858 34.5101 44.1443 34.497 44.1044C34.0783 42.7327 33.7388 41.5417 33.4658 40.5073C33.2506 39.6916 33.6386 38.8616 34.1659 38.203L34.1702 38.1986ZM22.3131 37.3741C21.0764 35.643 20.2768 33.4609 20.8675 31.6056C21.2628 30.3631 22.2183 29.2451 22.6837 29.2451C22.7056 29.2451 22.726 29.248 22.7464 29.2525C22.8835 29.288 23.0965 29.5116 23.2862 30.0299C23.4539 30.643 23.5604 31.268 23.6042 31.9048C23.6479 32.5401 23.6275 33.1739 23.5444 33.8062C23.4612 34.4371 23.3153 35.0546 23.1082 35.6544C22.9011 36.2553 22.6373 36.8281 22.3166 37.3728C22.3163 37.3734 22.3156 37.3737 22.315 37.3737L22.3131 37.3741ZM33.6918 37.7883C33.3969 38.1584 32.855 37.9627 32.7638 37.4984C32.1501 34.3717 32.5343 33.804 32.7231 33.704C32.7713 33.6804 32.8223 33.67 32.8748 33.6715C32.9945 33.6759 33.1082 33.704 33.2177 33.7529C33.5007 33.8803 33.7501 34.058 33.966 34.286C34.1819 34.5141 34.3468 34.7762 34.4635 35.0709C34.78 35.9846 34.2461 37.1057 33.6918 37.7883Z" fill="#34A853"/>
<path d="M10.2532 45.3505C10.2532 45.3501 10.2529 45.3498 10.2525 45.3498H8.28092C7.19165 45.3498 6.30863 44.4668 6.30863 43.3775V42.0341C6.30863 41.9733 6.29696 41.9141 6.27362 41.8578C6.25028 41.8016 6.21818 41.7512 6.17588 41.7083C6.13211 41.6653 6.08397 41.6313 6.02854 41.6076C5.9731 41.5839 5.91475 41.572 5.85494 41.572C5.79513 41.572 5.73678 41.5839 5.68134 41.6076C5.62591 41.6313 5.57631 41.6653 5.53401 41.7083C5.4917 41.7512 5.45815 41.8016 5.43627 41.8578C5.41293 41.9156 5.40125 41.9733 5.40125 42.0341V45.8118C5.40125 45.8725 5.41293 45.9318 5.43627 45.988C5.45961 46.0443 5.4917 46.0947 5.53401 46.1376C5.57631 46.1806 5.62591 46.2146 5.68134 46.2368C5.73678 46.2605 5.79513 46.2724 5.85494 46.2724H10.2532C10.313 46.2724 10.3714 46.2605 10.4268 46.2368C10.4822 46.2131 10.5318 46.1806 10.5742 46.1376C10.6165 46.0947 10.65 46.0443 10.6719 45.988C10.6952 45.9318 10.7069 45.8725 10.7069 45.8118C10.7069 45.7511 10.6952 45.6919 10.6719 45.6356C10.6486 45.5793 10.6165 45.529 10.5742 45.486C10.5304 45.4431 10.4822 45.409 10.4268 45.3868C10.3716 45.3647 10.3135 45.3514 10.254 45.3513C10.2535 45.3513 10.2532 45.3509 10.2532 45.3505Z" fill="#4285F4"/>
<path d="M32.5655 5.77218C32.5655 5.77259 32.5659 5.77292 32.5663 5.77292H34.5378C35.6271 5.77292 36.5101 6.65595 36.5101 7.74521V9.08864C36.5101 9.14935 36.5218 9.20859 36.5451 9.26486C36.5685 9.32114 36.6006 9.37149 36.6429 9.41444C36.6866 9.45738 36.7348 9.49144 36.7902 9.51514C36.8456 9.53883 36.904 9.55068 36.9638 9.55068C37.0236 9.55068 37.082 9.53883 37.1374 9.51514C37.1928 9.49144 37.2424 9.45738 37.2847 9.41444C37.327 9.37149 37.3606 9.32114 37.3825 9.26486C37.4058 9.20711 37.4175 9.14935 37.4175 9.08864V5.31088C37.4175 5.25016 37.4058 5.19093 37.3825 5.13465C37.3591 5.07838 37.327 5.02803 37.2847 4.98508C37.2424 4.94214 37.1928 4.90808 37.1374 4.88586C37.082 4.86217 37.0236 4.85032 36.9638 4.85032H32.5655C32.5057 4.85032 32.4474 4.86217 32.3919 4.88586C32.3365 4.90956 32.2869 4.94214 32.2446 4.98508C32.2023 5.02803 32.1687 5.07838 32.1469 5.13465C32.1235 5.19093 32.1118 5.25016 32.1118 5.31088C32.1118 5.3716 32.1235 5.43083 32.1469 5.48711C32.1702 5.54338 32.2023 5.59373 32.2446 5.63668C32.2884 5.67962 32.3365 5.71368 32.3919 5.7359C32.4471 5.75802 32.5052 5.77133 32.5648 5.77144C32.5652 5.77144 32.5655 5.77177 32.5655 5.77218Z" fill="#4285F4"/>
<path d="M16.6675 11.2848H10.0358C9.97597 11.2848 9.91762 11.2967 9.86219 11.3203C9.80675 11.344 9.75715 11.3766 9.71485 11.421C9.67108 11.464 9.63899 11.5143 9.61565 11.5706C9.59231 11.6269 9.58064 11.6861 9.58064 11.7468C9.58064 11.8076 9.59231 11.8668 9.61565 11.9231C9.63899 11.9793 9.67108 12.0297 9.71485 12.0726C9.75715 12.1156 9.80675 12.1496 9.86219 12.1719C9.91762 12.1956 9.97597 12.2074 10.0358 12.2074H16.6675C16.7273 12.2074 16.7856 12.1956 16.8411 12.1719C16.898 12.1482 16.9461 12.1156 16.9884 12.0726C17.0307 12.0297 17.0643 11.9793 17.0876 11.9231C17.111 11.8668 17.1226 11.8076 17.1226 11.7468C17.1226 11.6861 17.111 11.6269 17.0876 11.5706C17.0643 11.5143 17.0307 11.464 16.9884 11.421C16.9461 11.3766 16.8965 11.344 16.8411 11.3203C16.7856 11.2967 16.7273 11.2848 16.6675 11.2848Z" fill="#FBBC05"/>
<path d="M22.6851 15.9985H10.0359C9.97604 15.9985 9.91769 16.0103 9.86226 16.034C9.80682 16.0577 9.75722 16.0903 9.71492 16.1333C9.67116 16.1762 9.63906 16.2265 9.61572 16.2828C9.59238 16.3391 9.58071 16.3983 9.58071 16.459C9.58071 16.5198 9.59238 16.579 9.61572 16.6353C9.63906 16.6915 9.67116 16.7419 9.71492 16.7848C9.75722 16.8293 9.80682 16.8619 9.86226 16.8855C9.91769 16.9092 9.97604 16.9211 10.0359 16.9211H22.6851C22.7449 16.9211 22.8033 16.9092 22.8587 16.8855C22.9156 16.8619 22.9637 16.8293 23.006 16.7848C23.0483 16.7419 23.0819 16.6915 23.1052 16.6353C23.1286 16.579 23.1402 16.5198 23.1402 16.459C23.1402 16.3983 23.1286 16.3391 23.1052 16.2828C23.0819 16.2265 23.0483 16.1762 23.006 16.1333C22.9637 16.0903 22.9141 16.0562 22.8587 16.034C22.8033 16.0103 22.7449 15.9985 22.6851 15.9985Z" fill="#FBBC05"/>
<path d="M27.4947 20.7122H10.2022C10.119 20.7122 10.0402 20.724 9.96437 20.7477C9.88852 20.7714 9.82141 20.804 9.76306 20.8469C9.70325 20.8899 9.65948 20.9402 9.62739 20.9965C9.5953 21.0528 9.58071 21.112 9.58071 21.1727C9.58071 21.2334 9.59676 21.2927 9.62739 21.349C9.65803 21.4052 9.70325 21.4556 9.76306 21.4985C9.82141 21.543 9.88852 21.5755 9.96437 21.5992C10.0402 21.6229 10.119 21.6348 10.2022 21.6348H27.4947C27.5779 21.6348 27.6567 21.6229 27.7325 21.5992C27.8098 21.5755 27.877 21.543 27.9353 21.4985C27.9937 21.4556 28.0374 21.4052 28.071 21.349C28.1016 21.2927 28.1177 21.2334 28.1177 21.1727C28.1177 21.112 28.1016 21.0528 28.071 20.9965C28.0389 20.9402 27.9937 20.8899 27.9353 20.8469C27.877 20.804 27.8098 20.7699 27.7325 20.7477C27.6567 20.724 27.5779 20.7122 27.4947 20.7122Z" fill="#FBBC05"/>
<path d="M31.6698 25.4244H10.3466C10.2445 25.4244 10.1467 25.4362 10.0534 25.4599C9.96 25.4836 9.87684 25.5162 9.80536 25.5591C9.73242 25.6021 9.67699 25.6524 9.63906 25.7087C9.60113 25.765 9.58071 25.8242 9.58071 25.8849C9.58071 25.9457 9.59967 26.0049 9.63906 26.0612C9.67845 26.1174 9.73242 26.1678 9.80536 26.2107C9.87684 26.2552 9.96 26.2877 10.0534 26.3114C10.1467 26.3351 10.2445 26.347 10.3466 26.347H31.6698C31.7719 26.347 31.8697 26.3351 31.963 26.3114C32.0579 26.2877 32.141 26.2552 32.2125 26.2107C32.284 26.1678 32.3394 26.1174 32.3788 26.0612C32.4167 26.0049 32.4372 25.9457 32.4372 25.8849C32.4372 25.8242 32.4182 25.765 32.3788 25.7087C32.3394 25.6524 32.284 25.6021 32.2125 25.5591C32.141 25.5162 32.0579 25.4821 31.963 25.4599C31.8697 25.4362 31.7719 25.4244 31.6698 25.4244Z" fill="#FBBC05"/>
</svg>
