<svg width="30" height="30" viewBox="0 0 30 30" fill="none" xmlns="http://www.w3.org/2000/svg">
<path d="M15 0C6.71572 0 0 6.7157 0 15C0 23.2843 6.71572 30 15 30C23.2844 30 30 23.2843 30 15C30 6.71577 23.2843 0 15 0ZM23.4827 17.5981C23.4827 19.3791 22.1103 20.8228 20.4171 20.8228H9.58278C7.88972 20.8228 6.51718 19.3791 6.51718 17.5981V12.4019C6.51718 10.6209 7.88972 9.17716 9.58278 9.17716H20.4171C22.1103 9.17716 23.4827 10.6209 23.4827 12.4019V17.5981Z" fill="white"/>
<path d="M17.965 14.5014C16.3849 13.6145 14.9924 12.7955 13.3364 11.833C12.8682 11.5333 12.6479 11.6602 12.6625 12.2394C12.6466 13.5951 12.6072 16.8886 12.6103 17.8355C12.6114 18.1865 12.6609 18.4878 13.1292 18.2226C14.7522 17.3036 16.3812 16.3948 17.9956 15.4608C18.5218 15.1564 18.559 14.8003 17.965 14.5014Z" fill="white"/>
</svg>
