<svg width="43" height="51" viewBox="0 0 43 51" fill="none" xmlns="http://www.w3.org/2000/svg">
<path d="M1.00073 3.70815C1.00113 3.70815 1.00146 3.70848 1.00146 3.70888V46.352C1.00146 46.4719 1.00729 46.5919 1.02042 46.7133C1.03209 46.8332 1.0496 46.9517 1.07294 47.0702C1.09628 47.1887 1.12546 47.3042 1.16047 47.4197C1.19548 47.5352 1.23633 47.6492 1.28009 47.7603C1.32531 47.8714 1.37637 47.9795 1.43326 48.0861C1.49016 48.1927 1.55143 48.2964 1.61561 48.3956C1.68126 48.4963 1.75274 48.5926 1.8286 48.6858C1.90445 48.7791 1.98323 48.868 2.06784 48.9539C2.15245 49.0398 2.23998 49.1197 2.33188 49.1968C2.42379 49.2738 2.51861 49.3448 2.61781 49.4115C2.71701 49.4781 2.81766 49.5403 2.9227 49.5981C3.02773 49.6544 3.13422 49.7062 3.24363 49.7521C3.3545 49.798 3.46537 49.8395 3.57915 49.8735C3.69294 49.9091 3.80819 49.9387 3.92343 49.9624C4.04014 49.9861 4.1583 50.0038 4.275 50.0157C4.39316 50.0275 4.51133 50.0335 4.63095 50.0335H37.5823C37.7019 50.0335 37.8201 50.0275 37.9382 50.0157C38.0564 50.0038 38.1746 49.9861 38.2898 49.9624C38.4065 49.9387 38.5217 49.9091 38.6355 49.8735C38.7493 49.838 38.8616 49.798 38.9711 49.7521C39.0819 49.7062 39.1884 49.6544 39.2934 49.5981C39.3985 49.5403 39.5006 49.4781 39.5983 49.4115C39.6961 49.3448 39.7924 49.2738 39.8843 49.1968C39.9762 49.1197 40.0637 49.0398 40.1483 48.9539C40.2329 48.868 40.3117 48.7791 40.3875 48.6858C40.4634 48.5926 40.5334 48.4963 40.5991 48.3956C40.6647 48.2949 40.726 48.1927 40.7829 48.0861C40.8383 47.9795 40.8894 47.8714 40.9346 47.7603C40.9798 47.6477 41.0207 47.5352 41.0557 47.4197C41.0907 47.3042 41.1199 47.1872 41.1417 47.0702C41.1651 46.9517 41.1841 46.8332 41.1943 46.7133C41.2059 46.5933 41.2118 46.4734 41.2118 46.352V3.70815C41.2118 3.58672 41.2059 3.46677 41.1943 3.34682C41.1826 3.22686 41.1651 3.10691 41.1417 2.98992C41.1184 2.87145 41.0892 2.75594 41.0542 2.64043C41.0192 2.52492 40.9784 2.41089 40.9346 2.29982C40.8894 2.18728 40.8369 2.07917 40.7814 1.97255C40.7245 1.86592 40.6633 1.76374 40.5976 1.66304C40.532 1.56234 40.4619 1.46608 40.3846 1.37278C40.3088 1.27949 40.23 1.19063 40.1468 1.10622C40.0637 1.02181 39.9747 0.938883 39.8828 0.863357C39.7909 0.786351 39.6961 0.715268 39.5969 0.648628C39.4977 0.581987 39.3956 0.51979 39.292 0.463516C39.187 0.405761 39.0805 0.355411 38.9711 0.308022C38.8602 0.262115 38.7493 0.22065 38.6355 0.186589C38.5217 0.151048 38.4065 0.12143 38.2898 0.0992163C38.1731 0.075522 38.0564 0.0577512 37.9382 0.0459041C37.8201 0.0340569 37.7019 0.0281334 37.5823 0.0281334H4.63095C4.51133 0.0281334 4.39316 0.0340569 4.275 0.0459041C4.15684 0.0577512 4.03868 0.075522 3.92343 0.0992163C3.80673 0.122911 3.69148 0.152528 3.5777 0.186589C3.46391 0.22065 3.35304 0.262115 3.24217 0.308022C3.13276 0.35393 3.02627 0.405761 2.92124 0.463516C2.8162 0.51979 2.71409 0.581987 2.61635 0.648628C2.51715 0.715268 2.42233 0.786351 2.33042 0.863357C2.23852 0.940364 2.15099 1.02033 2.06638 1.10622C1.98177 1.19063 1.903 1.28097 1.82714 1.37278C1.75128 1.46608 1.68126 1.56234 1.61561 1.66304C1.54997 1.76374 1.4887 1.86592 1.4318 1.97255C1.37491 2.07917 1.32531 2.18728 1.27863 2.29982C1.23341 2.41089 1.19256 2.52492 1.15901 2.64043C1.124 2.75594 1.09482 2.87145 1.07148 2.98992C1.04814 3.10839 1.03063 3.22686 1.01896 3.34682C1.00732 3.46653 1.00148 3.58624 1.00001 3.70742C1 3.70782 1.00033 3.70815 1.00073 3.70815ZM40.3037 3.70815C40.3033 3.70815 40.3029 3.70848 40.3029 3.70888V46.352C40.3029 46.5326 40.2854 46.7118 40.2504 46.8895C40.214 47.0672 40.1629 47.239 40.0943 47.4064C40.0258 47.5737 39.9412 47.7321 39.8434 47.8832C39.7442 48.0328 39.6304 48.172 39.505 48.3008C39.3781 48.4282 39.2409 48.5422 39.0921 48.6444C38.9448 48.7451 38.7872 48.8295 38.6224 48.8991C38.4576 48.9687 38.2883 49.0205 38.1133 49.0561C37.9382 49.0916 37.7617 49.1094 37.5837 49.1094H4.63241C4.45297 49.1094 4.27646 49.0916 4.10286 49.0561C3.92781 49.0205 3.75713 48.9687 3.59374 48.8991C3.4289 48.8295 3.27135 48.7436 3.12401 48.6444C2.97667 48.5437 2.83954 48.4282 2.71263 48.3008C2.58717 48.172 2.47484 48.0328 2.37419 47.8832C2.27499 47.7321 2.19184 47.5737 2.12327 47.4064C2.05471 47.239 2.00219 47.0657 1.96718 46.8895C1.93217 46.7118 1.91467 46.5326 1.91467 46.352V3.70815C1.91467 3.526 1.93363 3.34682 1.96864 3.17059C2.00365 2.99436 2.05617 2.8211 2.12473 2.65376C2.1933 2.48642 2.27791 2.32796 2.37565 2.17691C2.47484 2.02734 2.58863 1.88814 2.71409 1.7593C2.83954 1.63046 2.97813 1.51791 3.12547 1.41573C3.27427 1.31503 3.43036 1.23062 3.5952 1.16102C3.76005 1.09141 3.93073 1.0381 4.10432 1.00404C4.27938 0.968501 4.45589 0.95073 4.63387 0.949249H37.5852C37.7646 0.949249 37.9411 0.968501 38.1147 1.00404C38.2898 1.03958 38.459 1.09141 38.6239 1.16102C38.7887 1.22914 38.9463 1.31503 39.0936 1.41573C39.2424 1.51643 39.3795 1.63046 39.505 1.7593C39.6319 1.88665 39.7442 2.02586 39.8434 2.17691C39.9426 2.32796 40.0258 2.48642 40.0943 2.65376C40.1629 2.8211 40.2154 2.99288 40.2504 3.17059C40.2854 3.34806 40.3029 3.527 40.3044 3.70742C40.3044 3.70783 40.3041 3.70815 40.3037 3.70815Z" stroke="#EA4435" stroke-width="2" stroke-miterlimit="10"/>
<path d="M18.0417 44.3024H6.28229C6.22248 44.3024 6.16413 44.3143 6.1087 44.3394C6.05326 44.3646 6.00366 44.4001 5.96136 44.4475C5.91905 44.4949 5.8855 44.5482 5.86216 44.609C5.83882 44.6697 5.82715 44.7333 5.82715 44.8C5.82715 44.8666 5.83882 44.9303 5.86216 44.991C5.8855 45.0517 5.91905 45.1065 5.96136 45.1539C6.00366 45.2013 6.05326 45.2369 6.1087 45.262C6.16413 45.2887 6.22248 45.3005 6.28229 45.3005H18.0417C18.1015 45.3005 18.1598 45.2887 18.2153 45.262C18.2707 45.2369 18.3203 45.2013 18.3626 45.1539C18.4049 45.1065 18.4385 45.0532 18.4603 44.991C18.4837 44.9303 18.4953 44.8666 18.4953 44.8C18.4953 44.7333 18.4837 44.6697 18.4603 44.609C18.437 44.5482 18.4049 44.4934 18.3626 44.4475C18.3203 44.4016 18.2707 44.3646 18.2153 44.3394C18.1598 44.3143 18.1015 44.3024 18.0417 44.3024Z" fill="#4285F4"/>
<path d="M34.1701 37.2267C34.8586 36.3752 35.4538 35.0513 35.0497 33.8843C34.9768 33.6962 34.8878 33.5156 34.7798 33.3453C34.6719 33.175 34.5508 33.0165 34.4122 32.8714C34.2751 32.7263 34.1248 32.5959 33.9629 32.4804C33.801 32.3649 33.6288 32.2672 33.4479 32.1872C33.2904 32.1087 33.1241 32.0673 32.9476 32.0628C32.7711 32.0584 32.6048 32.091 32.4428 32.162C31.8708 32.4596 31.4293 33.4165 32.3257 37.487C32.3646 37.6637 32.2588 37.8525 32.0796 37.8279C31.9344 37.8031 31.8186 37.71 31.7082 37.5819C31.5638 37.4143 31.4657 37.2105 31.321 37.0431C31.2481 36.9601 31.1678 36.8861 31.0774 36.8224C30.987 36.7587 30.8921 36.7069 30.79 36.6669C30.6879 36.6269 30.5843 36.6003 30.4749 36.5855C29.8185 36.5618 29.3837 37.16 29.0322 37.6399C28.8206 37.9286 28.5624 38.3018 28.3903 38.2707C28.116 38.2352 27.8418 37.3955 27.6944 36.9438C27.4785 36.2819 27.3064 35.7976 26.9125 35.8287C26.4559 35.8539 26.4034 36.4166 26.3246 37.2682C26.2634 37.9153 26.1656 38.9978 25.8199 39.1504C25.5135 39.2836 24.6733 38.9179 23.655 37.9553C23.5716 37.8761 23.4896 37.7957 23.409 37.7139C22.9687 37.2673 22.9457 36.5799 23.2218 36.0168C23.3764 35.7028 23.5135 35.3815 23.6332 35.0513C23.7528 34.721 23.8563 34.3863 23.9424 34.0457C24.0285 33.7051 24.0956 33.3601 24.1452 33.0121C24.1948 32.6641 24.2254 32.3146 24.2386 31.9621C24.2517 31.6097 24.2458 31.2587 24.2225 30.9077C24.1992 30.5567 24.1569 30.2073 24.0971 29.8607C24.0372 29.5142 23.9585 29.1721 23.8622 28.8345C23.62 28.1681 23.2845 27.7623 22.8935 27.6601C21.8943 27.4039 20.6937 29.0995 20.2706 30.4338C19.8528 31.7526 20.0295 33.1811 20.5578 34.5307C21.1594 36.0672 21.2699 37.9521 19.8549 38.8009C19.8184 38.8216 19.7863 38.8497 19.7615 38.8838C19.7367 38.9179 19.7177 38.9549 19.7061 38.9964C19.6959 39.0378 19.6929 39.0808 19.6988 39.1222C19.7046 39.1637 19.7177 39.2052 19.7396 39.2422C19.7615 39.2792 19.7878 39.3103 19.8228 39.337C19.8563 39.3621 19.8928 39.3799 19.9336 39.3903C19.9745 39.4006 20.0153 39.4021 20.0562 39.3947C20.097 39.3873 20.1364 39.374 20.1714 39.3503C20.6206 39.0814 21.0376 38.7733 21.4224 38.4261C21.9306 37.9675 22.7379 37.957 23.2364 38.4262C23.6711 38.8349 25.1518 40.1381 26.0635 39.7383C26.7462 39.4362 26.8527 38.3166 26.9432 37.3289C26.948 37.2763 26.953 37.2207 26.9583 37.1638C26.9664 37.0776 27.0784 37.0658 27.1051 37.1482C27.3604 37.9331 27.6507 38.8231 28.3144 38.906C28.8381 38.9741 29.1868 38.4914 29.5267 38.0264C29.8185 37.6265 30.1029 37.2134 30.4516 37.2267C30.6616 37.2341 30.7988 37.4103 31.0059 37.6991C31.111 37.8886 31.2466 38.0486 31.4158 38.1804C31.5836 38.3122 31.7703 38.4055 31.976 38.4588C32.2821 38.509 32.5998 38.676 32.6759 38.9767C32.9839 40.1942 33.3869 41.6293 33.9045 43.325C33.925 43.3916 33.9629 43.445 34.0169 43.4864C34.0709 43.5279 34.1336 43.5486 34.2007 43.5486C34.2328 43.5486 34.2634 43.5442 34.294 43.5338C34.3334 43.5205 34.3684 43.5012 34.4005 43.4731C34.4312 43.4464 34.4574 43.4139 34.4764 43.3754C34.4954 43.3369 34.507 43.2983 34.51 43.2554C34.5129 43.2139 34.51 43.1725 34.4968 43.1325C34.0781 41.7608 33.7386 40.5698 33.4656 39.5354C33.2504 38.7197 33.6384 37.8897 34.1657 37.2311L34.1701 37.2267ZM22.3129 36.4022C22.3129 36.4025 22.3125 36.4027 22.3123 36.4024C21.0756 34.6714 20.2766 32.489 20.8673 30.6338C21.2626 29.3913 22.2181 28.2732 22.6835 28.2732C22.7054 28.2732 22.7258 28.2762 22.7462 28.2806C22.8833 28.3162 23.0963 28.5398 23.286 29.0581C23.4537 29.6712 23.5602 30.2961 23.604 30.9329C23.6477 31.5682 23.6273 32.202 23.5442 32.8344C23.461 33.4652 23.3151 34.0828 23.108 34.6825C22.901 35.2834 22.6371 35.8562 22.3164 36.4009C22.3161 36.4015 22.3155 36.4018 22.3148 36.4018H22.3133C22.3131 36.4018 22.3129 36.402 22.3129 36.4022ZM33.6916 36.8165C33.3967 37.1865 32.8548 36.9909 32.7636 36.5265C32.1499 33.3998 32.5341 32.8321 32.7229 32.7322C32.7711 32.7085 32.8221 32.6981 32.8746 32.6996C32.9943 32.704 33.108 32.7322 33.2175 32.781C33.5005 32.9084 33.7499 33.0861 33.9658 33.3142C34.1817 33.5422 34.3466 33.8043 34.4633 34.099C34.7798 35.0128 34.2459 36.1338 33.6916 36.8165Z" fill="#34A853"/>
<path d="M10.2533 44.3787C10.2533 44.3782 10.253 44.3779 10.2526 44.3779H8.28103C7.19177 44.3779 6.30874 43.4949 6.30874 42.4056V41.0622C6.30874 41.0015 6.29707 40.9422 6.27373 40.886C6.25039 40.8297 6.21829 40.7793 6.17599 40.7364C6.13223 40.6935 6.08408 40.6594 6.02865 40.6357C5.97322 40.612 5.91486 40.6002 5.85505 40.6002C5.79524 40.6002 5.73689 40.612 5.68146 40.6357C5.62602 40.6594 5.57642 40.6935 5.53412 40.7364C5.49181 40.7793 5.45826 40.8297 5.43638 40.886C5.41304 40.9437 5.40137 41.0015 5.40137 41.0622V44.84C5.40137 44.9007 5.41304 44.9599 5.43638 45.0162C5.45972 45.0725 5.49181 45.1228 5.53412 45.1658C5.57642 45.2087 5.62602 45.2428 5.68146 45.265C5.73689 45.2887 5.79524 45.3005 5.85505 45.3005H10.2533C10.3131 45.3005 10.3715 45.2887 10.4269 45.265C10.4824 45.2413 10.532 45.2087 10.5743 45.1658C10.6166 45.1228 10.6501 45.0725 10.672 45.0162C10.6953 44.9599 10.707 44.9007 10.707 44.84C10.707 44.7792 10.6953 44.72 10.672 44.6637C10.6487 44.6075 10.6166 44.5571 10.5743 44.5142C10.5305 44.4712 10.4824 44.4372 10.4269 44.4149C10.3717 44.3928 10.3136 44.3795 10.2541 44.3794C10.2537 44.3794 10.2533 44.3791 10.2533 44.3787Z" fill="#4285F4"/>
<path d="M32.5655 4.80031C32.5655 4.80072 32.5658 4.80105 32.5662 4.80105H34.5378C35.6271 4.80105 36.5101 5.68408 36.5101 6.77335V8.11677C36.5101 8.17749 36.5218 8.23672 36.5451 8.293C36.5684 8.34927 36.6005 8.39962 36.6428 8.44257C36.6866 8.48551 36.7347 8.51958 36.7902 8.54327C36.8456 8.56696 36.904 8.57881 36.9638 8.57881C37.0236 8.57881 37.0819 8.56696 37.1374 8.54327C37.1928 8.51958 37.2424 8.48551 37.2847 8.44257C37.327 8.39962 37.3606 8.34927 37.3825 8.293C37.4058 8.23524 37.4175 8.17749 37.4175 8.11677V4.33901C37.4175 4.2783 37.4058 4.21906 37.3825 4.16279C37.3591 4.10651 37.327 4.05616 37.2847 4.01322C37.2424 3.97027 37.1928 3.93621 37.1374 3.914C37.0819 3.8903 37.0236 3.87846 36.9638 3.87846H32.5655C32.5057 3.87846 32.4473 3.8903 32.3919 3.914C32.3365 3.93769 32.2869 3.97027 32.2446 4.01322C32.2023 4.05616 32.1687 4.10651 32.1468 4.16279C32.1235 4.21906 32.1118 4.2783 32.1118 4.33901C32.1118 4.39973 32.1235 4.45897 32.1468 4.51524C32.1702 4.57151 32.2023 4.62186 32.2446 4.66481C32.2883 4.70776 32.3365 4.74182 32.3919 4.76403C32.4471 4.78615 32.5052 4.79946 32.5648 4.79957C32.5652 4.79957 32.5655 4.7999 32.5655 4.80031Z" fill="#4285F4"/>
<path d="M16.6674 10.3129H10.0357C9.9759 10.3129 9.91755 10.3248 9.86211 10.3485C9.80668 10.3722 9.75708 10.4048 9.71478 10.4492C9.67101 10.4921 9.63892 10.5425 9.61558 10.5987C9.59224 10.655 9.58057 10.7143 9.58057 10.775C9.58057 10.8357 9.59224 10.8949 9.61558 10.9512C9.63892 11.0075 9.67101 11.0578 9.71478 11.1008C9.75708 11.1437 9.80668 11.1778 9.86211 11.2C9.91755 11.2237 9.9759 11.2355 10.0357 11.2355H16.6674C16.7272 11.2355 16.7856 11.2237 16.841 11.2C16.8979 11.1763 16.946 11.1437 16.9883 11.1008C17.0306 11.0578 17.0642 11.0075 17.0875 10.9512C17.1109 10.8949 17.1226 10.8357 17.1226 10.775C17.1226 10.7143 17.1109 10.655 17.0875 10.5987C17.0642 10.5425 17.0306 10.4921 16.9883 10.4492C16.946 10.4048 16.8964 10.3722 16.841 10.3485C16.7856 10.3248 16.7272 10.3129 16.6674 10.3129Z" fill="#FBBC05"/>
<path d="M22.6849 15.0266H10.0357C9.9759 15.0266 9.91755 15.0385 9.86211 15.0622C9.80668 15.0859 9.75708 15.1184 9.71478 15.1614C9.67101 15.2043 9.63892 15.2547 9.61558 15.311C9.59224 15.3672 9.58057 15.4265 9.58057 15.4872C9.58057 15.5479 9.59224 15.6071 9.61558 15.6634C9.63892 15.7197 9.67101 15.77 9.71478 15.813C9.75708 15.8574 9.80668 15.89 9.86211 15.9137C9.91755 15.9374 9.9759 15.9492 10.0357 15.9492H22.6849C22.7448 15.9492 22.8031 15.9374 22.8585 15.9137C22.9154 15.89 22.9636 15.8574 23.0059 15.813C23.0482 15.77 23.0817 15.7197 23.1051 15.6634C23.1284 15.6071 23.1401 15.5479 23.1401 15.4872C23.1401 15.4265 23.1284 15.3672 23.1051 15.311C23.0817 15.2547 23.0482 15.2043 23.0059 15.1614C22.9636 15.1184 22.914 15.0844 22.8585 15.0622C22.8031 15.0385 22.7448 15.0266 22.6849 15.0266Z" fill="#FBBC05"/>
<path d="M27.4946 19.7403H10.202C10.1189 19.7403 10.0401 19.7522 9.96423 19.7758C9.88837 19.7995 9.82127 19.8321 9.76292 19.8751C9.7031 19.918 9.65934 19.9684 9.62725 20.0246C9.59515 20.0809 9.58057 20.1401 9.58057 20.2009C9.58057 20.2616 9.59661 20.3208 9.62725 20.3771C9.65788 20.4334 9.7031 20.4837 9.76292 20.5267C9.82127 20.5711 9.88837 20.6037 9.96423 20.6274C10.0401 20.6511 10.1189 20.6629 10.202 20.6629H27.4946C27.5778 20.6629 27.6565 20.6511 27.7324 20.6274C27.8097 20.6037 27.8768 20.5711 27.9352 20.5267C27.9935 20.4837 28.0373 20.4334 28.0708 20.3771C28.1015 20.3208 28.1175 20.2616 28.1175 20.2009C28.1175 20.1401 28.1015 20.0809 28.0708 20.0246C28.0387 19.9684 27.9935 19.918 27.9352 19.8751C27.8768 19.8321 27.8097 19.7981 27.7324 19.7758C27.6565 19.7522 27.5778 19.7403 27.4946 19.7403Z" fill="#FBBC05"/>
<path d="M31.6697 24.4525H10.3464C10.2443 24.4525 10.1466 24.4644 10.0532 24.488C9.95985 24.5117 9.8767 24.5443 9.80522 24.5873C9.73228 24.6302 9.67685 24.6806 9.63892 24.7368C9.60099 24.7931 9.58057 24.8523 9.58057 24.9131C9.58057 24.9738 9.59953 25.033 9.63892 25.0893C9.67831 25.1456 9.73228 25.1959 9.80522 25.2389C9.8767 25.2833 9.95985 25.3159 10.0532 25.3396C10.1466 25.3633 10.2443 25.3751 10.3464 25.3751H31.6697C31.7718 25.3751 31.8695 25.3633 31.9629 25.3396C32.0577 25.3159 32.1409 25.2833 32.2124 25.2389C32.2838 25.1959 32.3393 25.1456 32.3787 25.0893C32.4166 25.033 32.437 24.9738 32.437 24.9131C32.437 24.8523 32.418 24.7931 32.3787 24.7368C32.3393 24.6806 32.2838 24.6302 32.2124 24.5873C32.1409 24.5443 32.0577 24.5103 31.9629 24.488C31.8695 24.4644 31.7718 24.4525 31.6697 24.4525Z" fill="#FBBC05"/>
</svg>
