<svg width="23" height="22" viewBox="0 0 23 22" fill="none" xmlns="http://www.w3.org/2000/svg">
<g id="Vector">
<path d="M11.2301 4.40001C4.92113 4.40001 0.139169 10.1436 0.139169 10.1436C-0.0463897 10.3654 -0.0463897 10.7225 0.139169 10.9405C0.139169 10.9405 4.92113 16.6842 11.2301 16.6842C17.5391 16.6842 22.3211 10.9405 22.3211 10.9405C22.5066 10.7188 22.5066 10.3617 22.3211 10.1436C22.3211 10.1436 17.5391 4.40001 11.2301 4.40001ZM11.2301 14.9814C10.6311 14.9814 10.0379 14.8666 9.48445 14.6437C8.931 14.4208 8.42816 14.0941 8.00457 13.6822C7.58098 13.2704 7.24494 12.7814 7.0157 12.2432C6.78646 11.7051 6.6685 11.1283 6.6685 10.5458C6.6685 9.96336 6.78646 9.38658 7.0157 8.84844C7.24494 8.3103 7.58098 7.82133 8.00457 7.40945C8.42816 6.99757 8.931 6.67085 9.48445 6.44795C10.0379 6.22504 10.6311 6.11032 11.2301 6.11032C11.8292 6.11032 12.4224 6.22504 12.9758 6.44795C13.5292 6.67085 14.0321 6.99757 14.4557 7.40945C14.8793 7.82133 15.2153 8.3103 15.4445 8.84844C15.6738 9.38658 15.7917 9.96336 15.7917 10.5458C15.7917 11.1283 15.6738 11.7051 15.4445 12.2432C15.2153 12.7814 14.8793 13.2704 14.4557 13.6822C14.0321 14.0941 13.5292 14.4208 12.9758 14.6437C12.4224 14.8666 11.8292 14.9814 11.2301 14.9814ZM11.2301 8.49347C12.3899 8.49347 13.337 9.41064 13.337 10.5421C13.337 11.6735 12.3976 12.5907 11.2301 12.5907C10.0627 12.5907 9.12321 11.6735 9.12321 10.5421C9.12321 9.41064 10.0665 8.49347 11.2301 8.49347Z" fill="white"/>
<path d="M3.25603 4.40001L2.26256 5.64045L18.3714 17.8381L19.3648 16.5977L3.25603 4.40001Z" fill="white"/>
</g>
</svg>
