<svg width="43" height="53" viewBox="0 0 43 53" fill="none" xmlns="http://www.w3.org/2000/svg">
<g id="sign logo vector">
<path d="M40.0365 4.75313C40.0343 4.63788 40.0242 4.52607 40.0027 4.41689C39.9804 4.30394 39.9463 4.19212 39.9002 4.07965C39.8547 3.96853 39.8006 3.86458 39.7361 3.76629C39.6716 3.66806 39.5999 3.58074 39.5212 3.50168L39.5123 3.49272C39.4343 3.41272 39.3485 3.34074 39.2526 3.27586L39.2486 3.27287C39.1549 3.20883 39.0566 3.15522 38.9562 3.11371L38.9492 3.11072C38.8454 3.06687 38.7375 3.03433 38.6239 3.01124H38.6219C38.5075 2.98783 38.3961 2.97543 38.2867 2.97543H4.72926L4.55417 2.98538C4.49666 2.99127 4.44002 2.9999 4.38406 3.01124L4.3771 3.01224C4.27343 3.03258 4.16645 3.06528 4.05876 3.11072C3.95238 3.15564 3.85224 3.20894 3.75734 3.27287C3.65197 3.34643 3.5663 3.41923 3.49472 3.49272C3.40949 3.58025 3.33478 3.67117 3.27188 3.7653C3.20463 3.86978 3.14989 3.97436 3.10675 4.07965C3.06127 4.19069 3.02689 4.30421 3.00428 4.41788C2.98072 4.53648 2.96949 4.65276 2.96946 4.76706V48.2078C2.96949 48.325 2.98054 48.4411 3.00329 48.5569L3.04606 48.727C3.06314 48.7835 3.08301 48.8396 3.10575 48.8952C3.15047 49.0043 3.20387 49.1058 3.26691 49.2025C3.3335 49.301 3.40564 49.3908 3.48477 49.4731C3.5717 49.5604 3.66173 49.6364 3.75436 49.6999C3.80187 49.7318 3.85073 49.7614 3.90059 49.7885L4.05677 49.8641L4.05976 49.8651C4.15856 49.9072 4.26643 49.9401 4.38207 49.9636H4.38406C4.49275 49.9858 4.60434 49.9974 4.71931 49.9974H38.2857C38.3985 49.9974 38.5102 49.9862 38.6219 49.9636C38.7356 49.9405 38.8433 49.9079 38.9472 49.8641C39.0568 49.8178 39.1564 49.7637 39.2456 49.7029C39.3439 49.6354 39.4322 49.5598 39.5152 49.4771C39.5994 49.3902 39.6738 49.3009 39.7361 49.2075C39.8028 49.1036 39.8573 48.9999 39.9002 48.8952C39.9443 48.7876 39.9783 48.6736 40.0037 48.55C40.0255 48.4364 40.0365 48.3227 40.0365 48.2078V4.75313ZM40.5687 3.87274C40.563 3.87587 40.5575 3.87944 40.5518 3.88268C40.5581 3.87908 40.5643 3.87522 40.5707 3.87174L40.5687 3.87274ZM43 48.2078C43 48.3642 42.9922 48.5194 42.9771 48.6743L42.9761 48.6733C42.9618 48.8357 42.9373 48.9876 42.9105 49.125L42.9115 49.1259C42.8817 49.285 42.8425 49.4408 42.7971 49.5905C42.7509 49.7429 42.6984 49.8866 42.6439 50.0223L42.6419 50.0262C42.5819 50.1734 42.5162 50.3127 42.4479 50.444L42.4429 50.453C42.3691 50.5913 42.2909 50.7211 42.2101 50.845C42.1243 50.9767 42.0319 51.1046 41.9316 51.2279C41.8362 51.3453 41.7342 51.4605 41.6232 51.5731C41.5122 51.6858 41.3988 51.7895 41.283 51.8865C41.158 51.9912 41.0322 52.084 40.9119 52.166C40.7834 52.2536 40.6511 52.3336 40.518 52.4068L40.508 52.4118C40.3793 52.4808 40.2408 52.547 40.0922 52.6087L40.0932 52.6107C39.9473 52.672 39.8015 52.7228 39.6605 52.7669C39.512 52.8133 39.3613 52.8513 39.2088 52.8823C39.056 52.9137 38.9015 52.9376 38.7483 52.9529C38.5941 52.9684 38.4395 52.9758 38.2837 52.9758H4.71732C4.56157 52.9758 4.40687 52.9684 4.25275 52.9529C4.10122 52.9375 3.94667 52.9142 3.79415 52.8833H3.79116C3.64489 52.8532 3.49864 52.8148 3.35346 52.7699C3.19487 52.7224 3.04831 52.667 2.91475 52.6117L2.90978 52.6107C2.76367 52.5494 2.62593 52.4814 2.49594 52.4118L2.48599 52.4068C2.34927 52.3316 2.22121 52.2521 2.09902 52.17C1.96878 52.0825 1.84272 51.9885 1.721 51.8865C1.60512 51.7894 1.49185 51.6859 1.38078 51.5731C1.26975 51.4604 1.16787 51.3454 1.07239 51.2279C0.976444 51.1099 0.882239 50.9821 0.792854 50.845L0.790864 50.842C0.710446 50.7176 0.632801 50.5874 0.561066 50.453C0.487635 50.3154 0.420147 50.1737 0.360118 50.0262L0.356139 50.0153C0.303842 49.8826 0.252221 49.74 0.206919 49.5905C0.16203 49.4424 0.12422 49.2917 0.0935129 49.1359C0.0634809 48.9835 0.0410273 48.83 0.0258668 48.6743L0.0268616 48.6733C0.010105 48.5143 0.00100965 48.3595 0.000996964 48.2078V4.76805C0.000991931 4.76346 -5.38047e-05 4.75873 2.16937e-06 4.75412L0.00696573 4.53029C0.0108677 4.45459 0.0163465 4.3779 0.0238772 4.3005C0.0390381 4.14472 0.0624783 3.99139 0.0925181 3.83891C0.122479 3.68684 0.159461 3.53986 0.20294 3.39523C0.248619 3.23805 0.302275 3.08819 0.359123 2.94857L0.361113 2.9426C0.418081 2.80525 0.483119 2.66403 0.560072 2.51981C0.633875 2.38151 0.712095 2.25175 0.792854 2.12787C0.878627 1.9963 0.970226 1.86909 1.0704 1.74586L1.07637 1.7399C1.16257 1.63557 1.26301 1.51774 1.37879 1.40167C1.48993 1.28884 1.60404 1.18547 1.72 1.08831C1.84165 0.986398 1.96689 0.892216 2.09703 0.804789C2.22374 0.718691 2.35714 0.63788 2.49495 0.564049C2.62839 0.491074 2.76575 0.424111 2.90878 0.364095L2.91276 0.362105C3.0465 0.306727 3.19364 0.251475 3.35246 0.203933C3.4938 0.161629 3.64137 0.123535 3.79415 0.0925159C3.94636 0.0613145 4.10017 0.0381912 4.25275 0.0228803C4.4069 0.00742529 4.5616 3.00331e-06 4.71732 0H38.2837C38.4394 0 38.5941 0.00742234 38.7483 0.0228803C38.9031 0.0384032 39.0555 0.0617977 39.2069 0.0925159L39.2059 0.0935107C39.3586 0.123036 39.5059 0.161125 39.6475 0.204928L39.6485 0.203933C39.8074 0.251474 39.9545 0.30772 40.0882 0.3631L40.0962 0.366084L40.1032 0.369069C40.2332 0.425379 40.3701 0.490774 40.511 0.568028C40.646 0.641388 40.7782 0.720281 40.904 0.804789C41.0342 0.892305 41.1602 0.986283 41.282 1.08831C41.4054 1.1902 41.5193 1.29723 41.6222 1.40167C41.732 1.51313 41.8333 1.62864 41.9286 1.74586C42.0323 1.87153 42.1247 1.99839 42.2091 2.12787C42.2495 2.18984 42.2887 2.25362 42.3275 2.31887L42.4419 2.51981L42.4469 2.52976C42.5111 2.65336 42.5808 2.79561 42.6439 2.95255L42.6469 2.95951C42.6991 3.09217 42.7498 3.2349 42.7951 3.38429C42.84 3.53242 42.8788 3.68303 42.9095 3.83891C42.94 3.99209 42.9622 4.14694 42.9771 4.3005C42.9922 4.45541 43 4.61058 43 4.76706V48.2078Z" fill="#EA4435"/>
<path d="M18.3786 46.1195H6.39967C6.33874 46.1195 6.2793 46.1316 6.22283 46.1572C6.16636 46.1829 6.11584 46.2191 6.07274 46.2674C6.02965 46.3156 5.99547 46.37 5.97169 46.4318C5.94792 46.4936 5.93603 46.5585 5.93603 46.6264C5.93603 46.6943 5.94792 46.7592 5.97169 46.821C5.99547 46.8829 6.02965 46.9387 6.07274 46.9869C6.11584 47.0352 6.16636 47.0714 6.22283 47.0971C6.2793 47.1242 6.33874 47.1363 6.39967 47.1363H18.3786C18.4395 47.1363 18.499 47.1242 18.5554 47.0971C18.6119 47.0714 18.6624 47.0352 18.7055 46.9869C18.7486 46.9387 18.7828 46.8844 18.8051 46.821C18.8289 46.7592 18.8407 46.6943 18.8407 46.6264C18.8407 46.5585 18.8289 46.4936 18.8051 46.4318C18.7813 46.37 18.7486 46.3141 18.7055 46.2674C18.6624 46.2206 18.6119 46.1829 18.5554 46.1572C18.499 46.1316 18.4395 46.1195 18.3786 46.1195Z" fill="#4285F4"/>
<path d="M34.8082 38.9117C35.5096 38.0443 36.1159 36.6957 35.7043 35.5069C35.63 35.3154 35.5393 35.1313 35.4294 34.9578C35.3194 34.7843 35.1961 34.6229 35.0549 34.4751C34.9152 34.3273 34.7621 34.1945 34.5972 34.0768C34.4322 33.9592 34.2569 33.8596 34.0726 33.7781C33.9121 33.6982 33.7427 33.656 33.5629 33.6514C33.3831 33.6469 33.2137 33.6801 33.0487 33.7525C32.4661 34.0556 32.0163 35.0304 32.9294 39.1769C32.969 39.3569 32.8613 39.5492 32.6787 39.5242C32.5308 39.4988 32.4128 39.4041 32.3004 39.2736C32.1533 39.1028 32.0533 38.8952 31.906 38.7247C31.8317 38.6402 31.7499 38.5648 31.6578 38.4999C31.5657 38.435 31.4691 38.3822 31.3651 38.3415C31.261 38.3008 31.1555 38.2736 31.0441 38.2585C30.3754 38.2344 29.9325 38.8438 29.5744 39.3326C29.3589 39.6268 29.0959 40.0069 28.9205 39.9752C28.6412 39.939 28.3618 39.0837 28.2117 38.6236C27.9918 37.9493 27.8164 37.456 27.4152 37.4877C26.9501 37.5133 26.8966 38.0865 26.8163 38.954C26.7539 39.6132 26.6543 40.7159 26.3021 40.8713C25.9901 41.0071 25.1341 40.6345 24.0969 39.6539C24.0119 39.5733 23.9284 39.4913 23.8463 39.408C23.3977 38.9531 23.3743 38.2529 23.6555 37.6792C23.813 37.3594 23.9527 37.0321 24.0746 36.6957C24.1964 36.3593 24.3019 36.0183 24.3896 35.6714C24.4773 35.3244 24.5457 34.9729 24.5962 34.6184C24.6467 34.2639 24.6779 33.9079 24.6913 33.5488C24.7047 33.1898 24.6987 32.8323 24.6749 32.4748C24.6512 32.1172 24.6081 31.7612 24.5471 31.4082C24.4862 31.0552 24.406 30.7068 24.3079 30.3628C24.0612 29.684 23.7194 29.2706 23.3212 29.1665C22.3032 28.9056 21.0802 30.6328 20.6493 31.992C20.2236 33.3354 20.4036 34.7906 20.9419 36.1654C21.5546 37.7306 21.6672 39.6506 20.2258 40.5153C20.1886 40.5364 20.1559 40.5651 20.1306 40.5998C20.1054 40.6345 20.0861 40.6722 20.0742 40.7144C20.0638 40.7567 20.0608 40.8004 20.0667 40.8426C20.0727 40.8849 20.0861 40.9271 20.1084 40.9648C20.1306 41.0025 20.1574 41.0342 20.1931 41.0614C20.2272 41.087 20.2644 41.1051 20.306 41.1157C20.3476 41.1262 20.3892 41.1278 20.4308 41.1202C20.4724 41.1127 20.5126 41.0991 20.5482 41.075C21.0058 40.801 21.4305 40.4872 21.8226 40.1335C22.3403 39.6664 23.1626 39.6557 23.6704 40.1336C24.1132 40.55 25.6215 41.8775 26.5503 41.4702C27.2458 41.1625 27.3543 40.022 27.4464 39.0158C27.4513 38.9622 27.4564 38.9056 27.4618 38.8477C27.4701 38.7599 27.5842 38.7478 27.6113 38.8318C27.8714 39.6313 28.1671 40.5379 28.8433 40.6224C29.3767 40.6918 29.7319 40.2 30.0782 39.7263C30.3754 39.319 30.6651 38.8981 31.0203 38.9117C31.2343 38.9193 31.374 39.0988 31.585 39.3929C31.692 39.586 31.8302 39.749 32.0026 39.8832C32.1735 40.0175 32.3637 40.1125 32.5732 40.1668C32.885 40.218 33.2087 40.388 33.2862 40.6944C33.6 41.9347 34.0104 43.3965 34.5377 45.1239C34.5585 45.1918 34.5972 45.2461 34.6522 45.2883C34.7071 45.3306 34.771 45.3517 34.8394 45.3517C34.8721 45.3517 34.9033 45.3472 34.9345 45.3366C34.9746 45.323 35.0103 45.3034 35.043 45.2747C35.0742 45.2476 35.1009 45.2144 35.1203 45.1752C35.1396 45.136 35.1515 45.0967 35.1544 45.053C35.1574 45.0107 35.1544 44.9685 35.1411 44.9278C34.7145 43.5305 34.3687 42.3172 34.0906 41.2636C33.8713 40.4326 34.2666 39.5871 34.8037 38.9162L34.8082 38.9117ZM22.7297 38.0718C21.4699 36.3085 20.6553 34.0856 21.2571 32.1957C21.6598 30.93 22.6331 29.7911 23.1072 29.7911C23.1295 29.7911 23.1503 29.7941 23.1711 29.7986C23.3108 29.8348 23.5277 30.0626 23.7209 30.5906C23.8918 31.2151 24.0003 31.8517 24.0449 32.5004C24.0894 33.1476 24.0686 33.7932 23.9839 34.4374C23.8992 35.08 23.7506 35.7091 23.5396 36.32C23.3287 36.9322 23.0599 37.5157 22.7332 38.0705C22.7329 38.0711 22.7323 38.0715 22.7316 38.0715L22.7297 38.0718ZM34.3208 38.4938C34.0204 38.8708 33.4684 38.6715 33.3755 38.1985C32.7504 35.0134 33.1417 34.4351 33.3341 34.3333C33.3831 34.3092 33.4351 34.2986 33.4886 34.3001C33.6105 34.3046 33.7264 34.3333 33.8378 34.3831C34.1261 34.5128 34.3802 34.6938 34.6002 34.9261C34.8201 35.1585 34.988 35.4255 35.1069 35.7257C35.4294 36.6564 34.8855 37.7984 34.3208 38.4938Z" fill="#34A853"/>
<path d="M10.4446 46.1972C10.4446 46.1968 10.4443 46.1965 10.4439 46.1965H8.43552C7.32592 46.1965 6.42641 45.2969 6.42641 44.1873V42.8188C6.42641 42.757 6.41452 42.6966 6.39074 42.6393C6.36697 42.582 6.33427 42.5307 6.29118 42.487C6.2466 42.4432 6.19756 42.4085 6.14109 42.3844C6.08462 42.3602 6.02518 42.3482 5.96425 42.3482C5.90332 42.3482 5.84388 42.3602 5.78741 42.3844C5.73094 42.4085 5.68042 42.4432 5.63732 42.487C5.59423 42.5307 5.56005 42.582 5.53776 42.6393C5.51398 42.6981 5.50209 42.757 5.50209 42.8188V46.6671C5.50209 46.729 5.51398 46.7893 5.53776 46.8466C5.56154 46.904 5.59423 46.9552 5.63732 46.999C5.68042 47.0427 5.73094 47.0774 5.78741 47.1001C5.84388 47.1242 5.90332 47.1363 5.96425 47.1363H10.4446C10.5056 47.1363 10.565 47.1242 10.6215 47.1001C10.6779 47.0759 10.7285 47.0427 10.7716 46.999C10.8147 46.9552 10.8488 46.904 10.8711 46.8466C10.8949 46.7893 10.9068 46.729 10.9068 46.6671C10.9068 46.6053 10.8949 46.5449 10.8711 46.4876C10.8474 46.4303 10.8147 46.379 10.7716 46.3352C10.727 46.2915 10.6779 46.2568 10.6215 46.2342C10.5652 46.2116 10.5061 46.1981 10.4454 46.198C10.445 46.198 10.4446 46.1976 10.4446 46.1972Z" fill="#4285F4"/>
<path d="M33.1735 5.87994C33.1735 5.88036 33.1739 5.8807 33.1743 5.8807H35.1826C36.2922 5.8807 37.1918 6.78021 37.1918 7.88981V9.25832C37.1918 9.32017 37.2036 9.38051 37.2274 9.43784C37.2512 9.49516 37.2839 9.54645 37.327 9.5902C37.3716 9.63395 37.4206 9.66864 37.4771 9.69278C37.5335 9.71692 37.593 9.72899 37.6539 9.72899C37.7148 9.72899 37.7743 9.71692 37.8307 9.69278C37.8872 9.66864 37.9377 9.63395 37.9808 9.5902C38.0239 9.54645 38.0581 9.49516 38.0804 9.43784C38.1042 9.379 38.1161 9.32017 38.1161 9.25832V5.41003C38.1161 5.34818 38.1042 5.28784 38.0804 5.23052C38.0566 5.17319 38.0239 5.1219 37.9808 5.07815C37.9377 5.03441 37.8872 4.99971 37.8307 4.97708C37.7743 4.95294 37.7148 4.94088 37.6539 4.94088H33.1735C33.1126 4.94088 33.0531 4.95294 32.9967 4.97708C32.9402 5.00122 32.8897 5.03441 32.8466 5.07815C32.8035 5.1219 32.7693 5.17319 32.747 5.23052C32.7233 5.28784 32.7114 5.34818 32.7114 5.41003C32.7114 5.47188 32.7233 5.53222 32.747 5.58955C32.7708 5.64687 32.8035 5.69816 32.8466 5.74191C32.8912 5.78566 32.9402 5.82036 32.9967 5.84298C33.0529 5.86552 33.1121 5.87908 33.1728 5.87919C33.1732 5.87919 33.1735 5.87953 33.1735 5.87994Z" fill="#4285F4"/>
<path d="M16.9787 11.4955H10.2231C10.1622 11.4955 10.1028 11.5076 10.0463 11.5317C9.98984 11.5558 9.93932 11.589 9.89622 11.6343C9.85164 11.678 9.81895 11.7293 9.79517 11.7866C9.7714 11.844 9.75951 11.9043 9.75951 11.9662C9.75951 12.028 9.7714 12.0883 9.79517 12.1457C9.81895 12.203 9.85164 12.2543 9.89622 12.298C9.93932 12.3418 9.98984 12.3765 10.0463 12.3991C10.1028 12.4232 10.1622 12.4353 10.2231 12.4353H16.9787C17.0396 12.4353 17.099 12.4232 17.1555 12.3991C17.2135 12.375 17.2625 12.3418 17.3056 12.298C17.3487 12.2543 17.3829 12.203 17.4066 12.1457C17.4304 12.0883 17.4423 12.028 17.4423 11.9662C17.4423 11.9043 17.4304 11.844 17.4066 11.7866C17.3829 11.7293 17.3487 11.678 17.3056 11.6343C17.2625 11.589 17.212 11.5558 17.1555 11.5317C17.099 11.5076 17.0396 11.4955 16.9787 11.4955Z" fill="#FBBC05"/>
<path d="M23.1086 16.2972H10.2232C10.1623 16.2972 10.1029 16.3092 10.0464 16.3334C9.98991 16.3575 9.93939 16.3907 9.89629 16.4345C9.85171 16.4782 9.81902 16.5295 9.79524 16.5868C9.77147 16.6441 9.75958 16.7045 9.75958 16.7663C9.75958 16.8282 9.77147 16.8885 9.79524 16.9459C9.81902 17.0032 9.85171 17.0545 9.89629 17.0982C9.93939 17.1435 9.98991 17.1767 10.0464 17.2008C10.1029 17.2249 10.1623 17.237 10.2232 17.237H23.1086C23.1695 17.237 23.229 17.2249 23.2855 17.2008C23.3434 17.1767 23.3924 17.1435 23.4355 17.0982C23.4786 17.0545 23.5128 17.0032 23.5366 16.9459C23.5604 16.8885 23.5723 16.8282 23.5723 16.7663C23.5723 16.7045 23.5604 16.6441 23.5366 16.5868C23.5128 16.5295 23.4786 16.4782 23.4355 16.4345C23.3924 16.3907 23.3419 16.356 23.2855 16.3334C23.229 16.3092 23.1695 16.2972 23.1086 16.2972Z" fill="#FBBC05"/>
<path d="M28.0081 21.0989H10.3926C10.3079 21.0989 10.2277 21.1109 10.1504 21.1351C10.0731 21.1592 10.0048 21.1924 9.94533 21.2361C9.88441 21.2799 9.83983 21.3312 9.80713 21.3885C9.77444 21.4458 9.75958 21.5062 9.75958 21.568C9.75958 21.6299 9.77593 21.6902 9.80713 21.7475C9.83834 21.8049 9.88441 21.8561 9.94533 21.8999C10.0048 21.9452 10.0731 21.9783 10.1504 22.0025C10.2277 22.0266 10.3079 22.0387 10.3926 22.0387H28.0081C28.0928 22.0387 28.173 22.0266 28.2503 22.0025C28.3291 21.9783 28.3974 21.9452 28.4568 21.8999C28.5163 21.8561 28.5609 21.8049 28.5951 21.7475C28.6263 21.6902 28.6426 21.6299 28.6426 21.568C28.6426 21.5062 28.6263 21.4458 28.5951 21.3885C28.5624 21.3312 28.5163 21.2799 28.4568 21.2361C28.3974 21.1924 28.3291 21.1577 28.2503 21.1351C28.173 21.1109 28.0928 21.0989 28.0081 21.0989Z" fill="#FBBC05"/>
<path d="M32.2611 25.899H10.5397C10.4357 25.899 10.3362 25.9111 10.2411 25.9352C10.1459 25.9594 10.0612 25.9926 9.98843 26.0363C9.91413 26.0801 9.85766 26.1314 9.81902 26.1887C9.78038 26.246 9.75958 26.3063 9.75958 26.3682C9.75958 26.43 9.7789 26.4904 9.81902 26.5477C9.85914 26.605 9.91413 26.6563 9.98843 26.7001C10.0612 26.7453 10.1459 26.7785 10.2411 26.8027C10.3362 26.8268 10.4357 26.8389 10.5397 26.8389H32.2611C32.3651 26.8389 32.4647 26.8268 32.5598 26.8027C32.6564 26.7785 32.7411 26.7453 32.8139 26.7001C32.8867 26.6563 32.9432 26.605 32.9833 26.5477C33.0219 26.4904 33.0428 26.43 33.0428 26.3682C33.0428 26.3063 33.0234 26.246 32.9833 26.1887C32.9432 26.1314 32.8867 26.0801 32.8139 26.0363C32.7411 25.9926 32.6564 25.9579 32.5598 25.9352C32.4647 25.9111 32.3651 25.899 32.2611 25.899Z" fill="#FBBC05"/>
</g>
</svg>
