<svg width="24" height="24" viewBox="0 0 24 24" fill="none" xmlns="http://www.w3.org/2000/svg">
<path d="M22.9747 9.18516C22.2788 4.00432 17.6306 0 12.0001 0C6.36953 0 1.7214 4.00436 1.02537 9.18516C0.390264 9.81635 0 10.6726 0 11.6158C0 13.322 1.27719 14.744 2.97088 15.0628C2.99312 15.1156 3.01533 15.1683 3.0386 15.2208C3.52855 16.3237 4.2297 17.3139 5.12255 18.164C6.01544 19.0142 7.05546 19.6817 8.2138 20.1482C9.41363 20.6314 10.6875 20.8764 12 20.8764C13.3126 20.8764 14.5864 20.6315 15.7862 20.1482C16.9446 19.6817 17.9846 19.0142 18.8775 18.164C19.7703 17.3139 20.4715 16.3237 20.9614 15.2208C20.9847 15.1683 21.007 15.1156 21.0292 15.0628C21.4596 14.9818 21.8632 14.8297 22.2257 14.6196C21.3568 18.8314 17.6896 22.0873 13.1435 22.5598C13.0024 22.0848 12.544 21.7366 11.9999 21.7366C11.3435 21.7366 10.8113 22.2433 10.8113 22.8683C10.8113 23.4933 11.3435 24 11.9999 24C12.5444 24 13.003 23.6513 13.1438 23.1758C18.2496 22.6765 22.3264 18.8718 22.9746 14.0463C23.6097 13.4152 24 12.5589 24 11.6158C24 10.6726 23.6098 9.81635 22.9747 9.18516ZM17.2967 16.6588C15.8819 18.0059 14.0009 18.7477 12.0001 18.7477C9.99931 18.7477 8.11826 18.0059 6.7035 16.6588C5.28874 15.3118 4.50958 13.5208 4.50958 11.6158C4.50958 9.71071 5.28874 7.91973 6.7035 6.57269C8.11826 5.22565 9.99931 4.48379 12.0001 4.48379C14.0009 4.48379 15.8819 5.22565 17.2967 6.57269C18.7114 7.91973 19.4906 9.71074 19.4906 11.6158C19.4906 13.5208 18.7114 15.3118 17.2967 16.6588ZM21.0292 8.16871C21.007 8.11598 20.9848 8.06321 20.9615 8.01077C20.4716 6.90788 19.7704 5.91764 18.8776 5.06749C17.9847 4.21734 16.9447 3.54979 15.7863 3.0833C14.5865 2.6001 13.3126 2.35509 12.0001 2.35509C10.6876 2.35509 9.41367 2.6001 8.21388 3.0833C7.05554 3.54979 6.01552 4.21734 5.12263 5.06749C4.22978 5.91764 3.52862 6.90791 3.03868 8.01077C3.01537 8.06321 2.99316 8.11598 2.97096 8.16871C2.54053 8.24975 2.13694 8.40187 1.77447 8.61197C2.71511 4.05214 6.93539 0.61204 12.0001 0.61204C17.0649 0.61204 21.2852 4.05214 22.2258 8.61197C21.8633 8.40187 21.4597 8.24975 21.0292 8.16871Z" fill="#4285F4"/>
<path d="M8.67528 12.4315C9.60407 12.4315 10.357 11.7146 10.357 10.8303C10.357 9.94596 9.60407 9.22907 8.67528 9.22907C7.74648 9.22907 6.99355 9.94596 6.99355 10.8303C6.99355 11.7146 7.74648 12.4315 8.67528 12.4315Z" fill="#4285F4"/>
<path d="M16.514 11.9626C17.1708 11.3372 17.1708 10.3234 16.514 9.69807C15.8573 9.07275 14.7925 9.07275 14.1357 9.69807C13.479 10.3234 13.479 11.3372 14.1357 11.9626C14.7925 12.5879 15.8573 12.5879 16.514 11.9626Z" fill="#4285F4"/>
</svg>
