<svg width="24" height="24" viewBox="0 0 24 24" fill="none" xmlns="http://www.w3.org/2000/svg">
<path d="M12 0C5.37258 0 0 5.37258 0 12C0 18.6274 5.37258 24 12 24C18.6274 24 24 18.6274 24 12C24 5.37258 18.6274 0 12 0ZM17.0179 15.2982C17.4928 15.7731 17.4928 16.543 17.0179 17.0179C16.7805 17.2554 16.4693 17.3741 16.1581 17.3741C15.8469 17.3741 15.5356 17.2554 15.2982 17.0179L12 13.7198L8.70182 17.0179C8.46438 17.2554 8.15315 17.3741 7.84195 17.3741C7.53074 17.3741 7.21952 17.2554 6.98207 17.0179C6.50717 16.543 6.50717 15.7731 6.98207 15.2982L10.2802 12L6.98207 8.70182C6.50717 8.22693 6.50717 7.45696 6.98207 6.98208C7.45695 6.50719 8.22693 6.50719 8.70182 6.98208L12 10.2803L15.2982 6.98208C15.7731 6.50719 16.543 6.50719 17.0179 6.98208C17.4928 7.45698 17.4928 8.22694 17.0179 8.70182L13.7198 12L17.0179 15.2982Z" fill="#FBBC05"/>
</svg>
