<svg width="24" height="24" viewBox="0 0 24 24" fill="none" xmlns="http://www.w3.org/2000/svg">
<path fill-rule="evenodd" clip-rule="evenodd" d="M15.6273 6.92751H2.15611C1.56252 6.92751 1.02319 7.16118 0.632795 7.53758C0.242306 7.91407 0 8.43397 0 9.00637V17.6664C0 18.3088 0.272112 18.8925 0.710367 19.3151C1.14872 19.7377 1.75396 20 2.42032 20H19.0729C19.6665 20 20.2058 19.7664 20.5962 19.39C20.9867 19.0135 21.229 18.4935 21.229 17.9211V12.0137C19.7213 12.3938 18.0501 12.0146 16.8688 10.8756C16.5317 10.5506 16.2589 10.1871 16.0501 9.79983H1.49445V9.00637C1.49445 8.83163 1.56911 8.67226 1.68937 8.55627C1.80962 8.44042 1.97492 8.36848 2.15611 8.36848H15.581C15.5143 7.88972 15.5296 7.40232 15.6273 6.92751ZM1.49445 12.6882H19.7345V17.9212C19.7345 18.0958 19.6599 18.2553 19.5396 18.3712C19.4194 18.4872 19.2541 18.5591 19.0729 18.5591H2.42032C2.16646 18.5591 1.93506 18.4585 1.76694 18.2964C1.59891 18.1343 1.49445 17.9111 1.49445 17.6664V12.6882Z" fill="#FBBC05"/>
<path fill-rule="evenodd" clip-rule="evenodd" d="M8.30127 15.2343H3.15852C3.03027 15.2343 2.92533 15.3361 2.92533 15.4591V16.3859C2.92533 16.5089 3.03073 16.6107 3.15852 16.6107H8.30127C8.42905 16.6107 8.5345 16.5096 8.5345 16.3859V15.4591C8.53449 15.3354 8.42947 15.2343 8.30127 15.2343Z" fill="#FBBC05"/>
<path fill-rule="evenodd" clip-rule="evenodd" d="M22.8509 5.10788C24.383 6.58506 24.383 8.98008 22.8509 10.4573C21.3188 11.9344 18.8347 11.9344 17.3026 10.4573C15.7705 8.98008 15.7705 6.58506 17.3026 5.10788C18.8347 3.63071 21.3188 3.63071 22.8509 5.10788ZM22.1392 9.07871L21.4789 9.73356L21.4752 9.73705L21.4715 9.74054L21.4638 9.74702L21.4599 9.75015L21.456 9.75313L21.4518 9.75599L21.4477 9.75871L21.4436 9.76139L21.4393 9.76397L21.4351 9.76638L21.4308 9.76878L21.4264 9.77096L21.422 9.77305L21.413 9.77694L21.4085 9.77876L21.4039 9.78038L21.3993 9.78192L21.3947 9.78334L21.3899 9.78469L21.3852 9.78596L21.3805 9.78705L21.3758 9.78809L21.3662 9.78971L21.3614 9.79044L21.3566 9.79099L21.3518 9.79143L21.347 9.79175L21.3421 9.79198L21.3373 9.79211L21.3325 9.79216L21.3276 9.79207L21.3227 9.79184L21.318 9.79147L21.3132 9.79102L21.3083 9.79057L21.3035 9.78985L21.2987 9.78912L21.2939 9.78826L21.2892 9.78722L21.2845 9.78617L21.2798 9.78496L21.2751 9.78364L21.2704 9.78219L21.2657 9.7807L21.2611 9.77897L21.2566 9.77725L21.2521 9.77539L21.2476 9.77339L21.2431 9.77126L21.2344 9.76672L21.2301 9.76432L21.2259 9.76178L21.2217 9.7591L21.2176 9.75629L21.2134 9.75348L21.2094 9.75044L21.2055 9.74736L21.1977 9.74088L21.194 9.73743L20.0903 8.70314L19.0175 9.76707L19.0139 9.7706L19.0101 9.77405L19.0063 9.77736L19.0025 9.78057L18.9986 9.78366L18.9945 9.7867L18.9905 9.78951L18.9863 9.79228L18.9822 9.79491L18.9779 9.79749L18.9736 9.79993L18.9693 9.80224L18.9649 9.80451L18.9605 9.8066L18.9561 9.80855L18.9516 9.81045L18.947 9.81227L18.9424 9.8139L18.9378 9.81549L18.9332 9.81689L18.9286 9.81825L18.9239 9.81952L18.9191 9.82061L18.9144 9.82156L18.9096 9.82252L18.9048 9.82329L18.9 9.82397L18.8952 9.82455L18.8904 9.82501L18.8855 9.82532L18.8806 9.82556L18.8758 9.8257H18.871L18.8661 9.82556L18.8613 9.82538L18.8565 9.82506L18.8517 9.8246L18.8468 9.82405L18.842 9.82341L18.8372 9.82264L18.8324 9.82178L18.8277 9.82073L18.8229 9.81969L18.8182 9.81847L18.8135 9.81716L18.8089 9.81576L18.8043 9.81426L18.7997 9.81254L18.7951 9.81078L18.7906 9.80892L18.7861 9.80698L18.7817 9.80485L18.7773 9.80263L18.7729 9.80032L18.7686 9.79787L18.7644 9.79538L18.7602 9.79275L18.756 9.78995L18.7519 9.78709L18.7479 9.7841L18.744 9.78102L18.7401 9.77776L18.7362 9.7745L18.7325 9.77101L18.0532 9.13443L18.0496 9.13085L18.046 9.12731L18.0426 9.1236L18.0392 9.11988L18.036 9.11611L18.0329 9.11226L18.0299 9.10832L18.0271 9.10437L18.0243 9.10038L18.0216 9.09625L18.0191 9.09217L18.0167 9.088L18.0144 9.08374L18.0122 9.07948L18.0101 9.07522L18.0082 9.07087L18.0063 9.06652L18.0046 9.06208L18.003 9.05759L18.0014 9.05319L18.0001 9.04866L17.9989 9.04412L17.9977 9.03955L17.9966 9.03497L17.9957 9.03039L17.9949 9.02577L17.9942 9.02118L17.9936 9.01656L17.9931 9.01185L17.9927 9.00722L17.9925 9.00254L17.9924 8.99788V8.9932L17.9925 8.98854L17.9927 8.98387L17.993 8.97921L17.9935 8.97453L17.9941 8.96991L17.9947 8.96534L17.9956 8.96066L17.9964 8.95604L17.9975 8.95151L17.9986 8.94693L18.0012 8.93786L18.0027 8.93337L18.0043 8.92888L18.006 8.92448L18.0078 8.92009L18.0098 8.91569L18.0118 8.91139L18.014 8.90713L18.0163 8.90287L18.0187 8.89871L18.0212 8.89449L18.0239 8.89041L18.0267 8.88633L18.0295 8.88234L18.0325 8.87845L18.0356 8.87455L18.0388 8.87069L18.0421 8.86698L18.0456 8.86326L18.0492 8.85959L19.1222 7.79566L18.0184 6.7613L18.0148 6.75776L18.0112 6.75409L18.0077 6.75047L18.0045 6.74675L18.0012 6.74295L17.9981 6.73909L17.9951 6.73515L17.9923 6.73121L17.9895 6.72717L17.9869 6.72309L17.9843 6.71897L17.9819 6.7148L17.9796 6.71058L17.9774 6.70627L17.9753 6.70202L17.9734 6.69762L17.9715 6.69327L17.9698 6.68883L17.9682 6.68438L17.9667 6.6799L17.9652 6.67541L17.964 6.67087L17.9629 6.66634L17.9618 6.66172L17.9609 6.65714L17.9601 6.65256L17.9594 6.64789L17.9588 6.64327L17.9583 6.63865L17.958 6.63393L17.9577 6.62931L17.9576 6.62464V6.61997L17.9577 6.6153L17.9579 6.61063L17.9582 6.60591L17.9587 6.60133L17.9593 6.59667L17.96 6.59204L17.9607 6.58741L17.9617 6.58283L17.9626 6.5782L17.9638 6.57363L17.965 6.56914L17.9665 6.56457L17.9679 6.56012L17.9695 6.55568L17.9712 6.55119L17.9731 6.5468L17.975 6.54248L17.9771 6.53814L17.9792 6.53392L17.9815 6.52967L17.9839 6.5254L17.9865 6.52124L17.9891 6.5172L17.9918 6.51322L17.9947 6.50918L17.9977 6.50524L18.0008 6.50138L18.004 6.49753L18.0074 6.49376L18.0108 6.49009L18.0144 6.48652L18.6746 5.83162L18.6821 5.82469C18.6871 5.82015 18.6923 5.81599 18.6976 5.81204C18.7044 5.80719 18.7114 5.8027 18.7186 5.79876L18.7228 5.79641L18.7316 5.7921C18.7406 5.78797 18.7497 5.78448 18.759 5.78167L18.7637 5.78036L18.7684 5.77913L18.7731 5.77804L18.7778 5.777C18.7826 5.77605 18.7874 5.77533 18.7922 5.7747C18.8067 5.77279 18.8212 5.77252 18.8357 5.7736L18.8406 5.77401L18.8453 5.77456L18.8502 5.77524L18.8549 5.77596L18.8597 5.77687C18.8645 5.77787 18.8692 5.77891 18.874 5.78018L18.8786 5.78145L18.8832 5.7829L18.8879 5.78449L18.8926 5.78613C18.8986 5.78839 18.9046 5.79098 18.9105 5.79384L18.9149 5.79606L18.9193 5.79837L18.9278 5.80336L18.932 5.80603L18.9362 5.8088L18.9402 5.8117L18.9443 5.81465L18.9483 5.81773L18.9522 5.821L18.9559 5.8243L18.9598 5.82775L20.0633 6.86217L21.1362 5.79807L21.1399 5.79453L21.1435 5.79113L21.1473 5.78778L21.1512 5.7846L21.1551 5.78148L21.1591 5.77853L21.1632 5.77563L21.1673 5.77286L21.1715 5.77023L21.1757 5.76769L21.18 5.76525L21.1843 5.76289L21.1887 5.76071L21.1931 5.75858L21.1976 5.75654L21.2021 5.75468L21.2066 5.75292L21.2112 5.75124L21.2158 5.74966L21.2205 5.74825L21.2252 5.74694L21.2299 5.74567L21.2346 5.74458L21.2394 5.74354L21.2441 5.74267L21.2488 5.74186L21.2537 5.74122L21.2585 5.74063L21.2633 5.74017L21.2681 5.73985L21.2729 5.73963L21.2778 5.73945L21.2827 5.73949L21.2875 5.73958L21.2923 5.73981L21.2972 5.74013L21.302 5.74058L21.3068 5.74113L21.3116 5.74176L21.3164 5.74253L21.3212 5.74335L21.3259 5.7444L21.3307 5.74549L21.3354 5.74667L21.34 5.74798L21.3447 5.74943L21.3493 5.75097L21.3539 5.7526L21.3585 5.75437L21.363 5.75627L21.3675 5.75822L21.3719 5.76035L21.3763 5.76257L21.3806 5.76484L21.385 5.76728L21.3893 5.76982L21.3934 5.7725L21.3975 5.77522L21.4016 5.77812L21.4056 5.78107L21.4096 5.7842L21.4135 5.78741L21.4173 5.79072L21.421 5.79416L22.1004 6.43074L22.1076 6.43785L22.1111 6.44148L22.1144 6.44529L22.1176 6.44905L22.1206 6.45291L22.1237 6.4568L22.1266 6.46079L22.1293 6.46478L22.132 6.46886L22.1345 6.47299L22.1369 6.47716L22.1392 6.48142L22.1414 6.48563L22.1434 6.48994L22.1454 6.49433L22.1473 6.49868L22.149 6.50308L22.1506 6.50757L22.1521 6.51201L22.1535 6.5165L22.1547 6.52107L22.1559 6.52561L22.157 6.53019L22.1579 6.53477L22.1587 6.5394L22.1594 6.54402L22.16 6.54865L22.1604 6.55331L22.1608 6.55793L22.161 6.5626L22.1612 6.56727L22.1612 6.57193L22.1611 6.5766L22.1609 6.58131L22.1606 6.58589L22.1601 6.5906L22.1595 6.59523L22.1588 6.59991L22.1581 6.60449L22.1572 6.60907L22.1561 6.61374L22.155 6.61822L22.1537 6.62281L22.1524 6.62729L22.1508 6.63178L22.1492 6.63627L22.1476 6.64076L22.1457 6.64511L22.1438 6.64946L22.1418 6.65377L22.1396 6.65808L22.1372 6.66229L22.1348 6.66647L22.1323 6.67064L22.1297 6.67481L22.1269 6.6788L22.1241 6.68279L22.1211 6.68673L22.118 6.69067L22.1148 6.69439L22.1114 6.6982L22.108 6.70187L22.1045 6.70554L21.0316 7.76965L22.1352 8.80398C22.1388 8.80747 22.1424 8.81101 22.1458 8.81472L22.1491 8.81844L22.1524 8.82225L22.1555 8.8261L22.1584 8.83004L22.1613 8.83398L22.1641 8.83801L22.1667 8.84205L22.1692 8.84622L22.1717 8.85039L22.174 8.85461L22.1762 8.85888L22.1782 8.86318L22.1802 8.86749L22.182 8.87188L22.1837 8.87632L22.1854 8.88081L22.1869 8.88521L22.1883 8.88974L22.1896 8.89427L22.1907 8.89885L22.1918 8.90343L22.1927 8.90801L22.1935 8.91264L22.1942 8.91726L22.1948 8.92185L22.1954 8.92656L22.1956 8.93118L22.1959 8.93584L22.196 8.94052V8.94523L22.1959 8.94986L22.1957 8.95457L22.1949 8.96386L22.1944 8.96848L22.1937 8.97315L22.1929 8.97778C22.1921 8.98236 22.191 8.98698 22.1898 8.99155L22.1885 8.99604L22.1872 9.00062L22.1857 9.00507L22.1824 9.01395C22.1729 9.03741 22.1587 9.05949 22.1392 9.07871ZM18.6746 5.83162C18.677 5.82926 18.6795 5.82686 18.6821 5.82469L18.6746 5.83162Z" fill="#FBBC05"/>
</svg>
