<svg width="62" height="77" viewBox="0 0 62 77" fill="none" xmlns="http://www.w3.org/2000/svg">
<path d="M55.9738 73.5557V75.5557H6.01969V73.5557H55.9738ZM58.9738 70.5557V5.95806C58.9738 4.30128 57.6305 2.95819 55.9738 2.95806H6.01969C4.36283 2.95806 3.01969 4.3012 3.01969 5.95806V70.5557C3.01995 72.2123 4.36299 73.5557 6.01969 73.5557V75.5557L5.76285 75.5489C3.20601 75.4195 1.15614 73.3693 1.02652 70.8126L1.01969 70.5557V5.95806C1.01969 3.19664 3.25826 0.958059 6.01969 0.958059H55.9738C58.7351 0.958189 60.9738 3.19672 60.9738 5.95806V70.5557L60.967 70.8126C60.833 73.4543 58.6488 75.5556 55.9738 75.5557V73.5557C57.6304 73.5556 58.9735 72.2123 58.9738 70.5557Z" fill="white"/>
<path d="M58.5694 6.46875C58.5664 6.26725 58.548 6.06984 58.5098 5.87598C58.4708 5.67808 58.4118 5.48434 58.333 5.29199C58.2547 5.10093 58.1608 4.92146 58.0488 4.75098C57.9368 4.58043 57.8114 4.42622 57.6719 4.28613L57.6631 4.27734C57.5251 4.13562 57.3731 4.00858 57.2061 3.89551L57.2031 3.89355C57.0388 3.78126 56.8641 3.68648 56.6846 3.6123L56.6778 3.60938C56.495 3.53224 56.3067 3.47464 56.1094 3.43457L56.1074 3.43359C55.9103 3.39325 55.7147 3.37308 55.5196 3.37305H6.42385L6.12111 3.38965C6.02151 3.39989 5.92294 3.41473 5.82522 3.43457L5.81838 3.43555C5.63148 3.47223 5.44244 3.5306 5.25588 3.60938C5.07305 3.6866 4.90048 3.77845 4.73635 3.88867C4.55785 4.01248 4.40369 4.1406 4.27053 4.27734C4.12396 4.42788 3.99484 4.5875 3.88381 4.75488C3.77122 4.93 3.67682 5.10836 3.60158 5.29199C3.52326 5.48317 3.46321 5.67981 3.42385 5.87793C3.38357 6.08076 3.3633 6.28287 3.3633 6.48438V70.0312C3.3633 70.2354 3.38321 70.4383 3.42287 70.6396C3.46224 70.8372 3.52154 71.0331 3.59963 71.2236C3.6775 71.4137 3.77069 71.592 3.88186 71.7617C3.99625 71.9309 4.12222 72.0862 4.26076 72.2295L4.48928 72.4395C4.56656 72.5041 4.64554 72.5646 4.72658 72.6201C4.80951 72.6758 4.89488 72.7278 4.98244 72.7754L5.25393 72.9062L5.25686 72.9072C5.34534 72.9449 5.43697 72.9788 5.53127 73.0078L5.82326 73.0811L5.82424 73.082C6.01609 73.1213 6.21223 73.1406 6.41311 73.1406H55.5166C55.7148 73.1406 55.9118 73.1208 56.1074 73.0811C56.3047 73.041 56.4931 72.9834 56.6758 72.9062C56.8641 72.8267 57.0386 72.732 57.1983 72.623C57.3677 72.5067 57.5223 72.3771 57.666 72.2334C57.8112 72.0839 57.9406 71.9268 58.0508 71.7607C58.1634 71.5856 58.2578 71.4072 58.333 71.2236C58.4091 71.0378 58.4671 70.8438 58.5098 70.6377C58.5492 70.4369 58.5694 70.2349 58.5694 70.0312V6.46875ZM0.704122 7.43945C0.756959 7.45588 0.811991 7.46615 0.868184 7.47363C0.810924 7.46603 0.754944 7.45533 0.701192 7.43848L0.704122 7.43945ZM1.001 5.48438C1.04095 5.48438 1.08043 5.48666 1.11916 5.49121C1.11428 5.49064 1.10942 5.48976 1.10451 5.48926L1.001 5.48438ZM61.9238 70.0312C61.9238 70.2403 61.9123 70.4475 61.8926 70.6543L61.8936 70.6553C61.8746 70.8781 61.8392 71.0892 61.8008 71.2852L61.8018 71.2861C61.7618 71.4995 61.7092 71.7096 61.6475 71.9131C61.585 72.119 61.5141 72.3148 61.4385 72.5029L61.4365 72.5078C61.3556 72.7067 61.266 72.896 61.1719 73.0771L61.167 73.0869C61.0667 73.2749 60.9591 73.4521 60.8477 73.623C60.7312 73.8017 60.6063 73.9738 60.4707 74.1406C60.3398 74.3016 60.2013 74.4576 60.0508 74.6104C59.9003 74.7631 59.7466 74.9041 59.5879 75.0371C59.42 75.1778 59.2482 75.3037 59.0821 75.417C58.9081 75.5356 58.7289 75.645 58.5469 75.7451L58.5371 75.75C58.3592 75.8453 58.1711 75.9364 57.9707 76.0195L57.9717 76.0205C57.7748 76.1031 57.577 76.1737 57.3828 76.2344C57.1812 76.2973 56.9764 76.3486 56.7696 76.3906C56.563 76.4331 56.3529 76.4654 56.1446 76.4863C55.9354 76.5073 55.7261 76.5176 55.5147 76.5176H6.41115C6.19959 76.5176 5.98955 76.5073 5.78029 76.4863C5.57427 76.4654 5.36425 76.4336 5.15725 76.3916H5.15529C4.95148 76.3497 4.74688 76.2974 4.54494 76.2344C4.33773 76.1718 4.14308 76.0979 3.96096 76.0225L3.95607 76.0205C3.75914 75.9379 3.57158 75.8459 3.3926 75.75L3.38381 75.7451C3.19789 75.6429 3.02229 75.5343 2.85354 75.4209C2.67703 75.3023 2.50737 75.175 2.34279 75.0371C2.18391 74.904 2.02951 74.7632 1.87893 74.6104C1.72849 74.4576 1.58989 74.3016 1.459 74.1406C1.32767 73.9791 1.19999 73.807 1.0801 73.623L1.07815 73.6201C0.967785 73.4495 0.861967 73.2711 0.763692 73.0869C0.663698 72.8995 0.572347 72.707 0.491231 72.5078L0.487325 72.4971C0.414554 72.3124 0.343873 72.1164 0.282247 71.9131C0.221008 71.711 0.16954 71.506 0.12795 71.2949C0.0870353 71.0872 0.0557741 70.8787 0.0351764 70.667L0.036153 70.666C0.0132632 70.4502 0.00197332 70.239 0.00197332 70.0312V6.52246C0.00130779 6.5053 -0.000190916 6.48807 2.01927e-05 6.4707L0.00978582 6.16211C0.0151351 6.05838 0.0229787 5.95393 0.0332233 5.84863C0.0538132 5.63702 0.084124 5.42835 0.12502 5.2207C0.165838 5.01352 0.217608 4.81264 0.277364 4.61426C0.338681 4.40316 0.411248 4.19945 0.489278 4.00781L0.491231 4.00195C0.57001 3.81202 0.65738 3.62052 0.760762 3.42676C0.861104 3.23871 0.968638 3.06161 1.0801 2.89062C1.19657 2.71196 1.3214 2.53988 1.45705 2.37305L1.46193 2.36719C1.58528 2.21789 1.7251 2.0558 1.88283 1.89844C2.03145 1.748 2.18413 1.60983 2.34084 1.47852C2.42299 1.40969 2.50596 1.34303 2.59084 1.2793L2.85061 1.09473C3.01989 0.979564 3.19757 0.872122 3.38088 0.773438C3.56622 0.671525 3.75681 0.577921 3.95412 0.495117L3.959 0.493164C4.14457 0.416332 4.34311 0.34166 4.55471 0.27832C4.74851 0.220312 4.94892 0.168936 5.15529 0.126953C5.36193 0.0844783 5.57185 0.0521602 5.78029 0.03125C5.98957 0.0102679 6.19962 0 6.41115 0H55.5147C55.7261 0 55.9354 0.0102979 56.1446 0.03125C56.3546 0.0523135 56.5626 0.0841501 56.7686 0.125977L56.7676 0.126953C56.9789 0.167678 57.1845 0.219307 57.3828 0.28125L57.3819 0.282227C57.5894 0.344872 57.7844 0.417638 57.9668 0.493164L57.9746 0.496094L57.9815 0.499023C58.164 0.578101 58.3526 0.667261 58.544 0.772461L58.543 0.773438C58.7251 0.872525 58.9032 0.979839 59.0742 1.09473C59.2479 1.2114 59.4151 1.33634 59.5772 1.47168C59.746 1.61042 59.9052 1.75942 60.0488 1.90527C60.1949 2.05356 60.3312 2.20724 60.46 2.36523C60.6019 2.53646 60.7292 2.7119 60.8457 2.89062C60.9571 3.06153 61.0638 3.23879 61.1641 3.42676L61.169 3.43652C61.2141 3.52335 61.2603 3.61489 61.3057 3.71094L61.4385 4.0127L61.4404 4.01855C61.5132 4.20325 61.5839 4.39922 61.6455 4.60254C61.7065 4.8037 61.7573 5.00764 61.7988 5.21777C61.8404 5.42628 61.8721 5.63829 61.8926 5.84863C61.9131 6.05962 61.9238 6.27113 61.9238 6.48438V70.0312Z" fill="white"/>
<path d="M26.3956 66.9774H8.87179C8.78266 66.9774 8.69571 66.995 8.6131 67.0325C8.53049 67.0701 8.45658 67.123 8.39354 67.1936C8.33049 67.2643 8.28049 67.3437 8.24571 67.4342C8.21093 67.5247 8.19354 67.6196 8.19354 67.7189C8.19354 67.8182 8.21093 67.9131 8.24571 68.0035C8.28049 68.094 8.33049 68.1757 8.39354 68.2463C8.45658 68.3169 8.53049 68.3699 8.6131 68.4074C8.69571 68.4471 8.78266 68.4648 8.87179 68.4648H26.3956C26.4847 68.4648 26.5716 68.4471 26.6543 68.4074C26.7369 68.3699 26.8108 68.3169 26.8738 68.2463C26.9369 68.1757 26.9869 68.0962 27.0195 68.0035C27.0543 67.9131 27.0716 67.8182 27.0716 67.7189C27.0716 67.6196 27.0543 67.5247 27.0195 67.4342C26.9847 67.3437 26.9369 67.2621 26.8738 67.1936C26.8108 67.1252 26.7369 67.0701 26.6543 67.0325C26.5716 66.995 26.4847 66.9774 26.3956 66.9774Z" fill="#4285F4"/>
<path d="M27.0716 67.7189C27.0716 67.8182 27.0543 67.9131 27.0195 68.0035C26.9869 68.0962 26.9369 68.1757 26.8738 68.2463L26.7718 68.3398C26.7352 68.3665 26.6954 68.3887 26.6543 68.4074C26.5716 68.4471 26.4847 68.4648 26.3956 68.4648H8.87179L8.74042 68.4511C8.69713 68.4417 8.65448 68.4273 8.6131 68.4074C8.57194 68.3887 8.53285 68.3664 8.49627 68.3398L8.39354 68.2463C8.36208 68.211 8.33346 68.1732 8.30877 68.1327L8.24571 68.0035C8.21093 67.9131 8.19354 67.8182 8.19354 67.7189C8.19354 67.6196 8.21093 67.5247 8.24571 67.4342C8.28049 67.3437 8.33049 67.2643 8.39354 67.1936C8.45658 67.123 8.53049 67.0701 8.6131 67.0325C8.65437 67.0138 8.69725 67.0001 8.74042 66.9911L8.87179 66.9774H26.3956C26.4847 66.9774 26.5716 66.995 26.6543 67.0325C26.7369 67.0701 26.8108 67.1252 26.8738 67.1936C26.9369 67.2621 26.9847 67.3437 27.0195 67.4342C27.0543 67.5247 27.0716 67.6196 27.0716 67.7189Z" fill="white"/>
<path d="M50.4302 56.4331C51.4563 55.1642 52.3432 53.1913 51.741 51.4523C51.6323 51.1721 51.4997 50.9028 51.3389 50.6491C51.178 50.3953 50.9976 50.1591 50.791 49.9429C50.5867 49.7266 50.3628 49.5324 50.1215 49.3603C49.8802 49.1881 49.6237 49.0425 49.3541 48.9233C49.1193 48.8064 48.8715 48.7446 48.6085 48.7379C48.3454 48.7313 48.0976 48.7799 47.8563 48.8858C47.0039 49.3292 46.3459 50.7552 47.6817 56.8211C47.7397 57.0844 47.5821 57.3657 47.315 57.3291C47.0598 57.2854 46.8655 57.1003 46.6736 56.855C46.5275 56.6681 46.4161 56.4559 46.2722 56.2673C46.2442 56.2306 46.215 56.1947 46.1846 56.1595C46.0759 56.0359 45.9563 55.9256 45.8215 55.8307C45.6867 55.7358 45.5454 55.6585 45.3933 55.599C45.2411 55.5394 45.0867 55.4996 44.9237 55.4776C43.9454 55.4423 43.2976 56.3338 42.7737 57.0488C42.4585 57.4792 42.0737 58.0353 41.8172 57.9889C41.4085 57.936 40.9998 56.6847 40.7803 56.0116C40.4585 55.0252 40.202 54.3036 39.615 54.3499C38.9346 54.3874 38.8564 55.226 38.739 56.4949C38.6477 57.4593 38.502 59.0725 37.9868 59.2998C37.5303 59.4984 36.2781 58.9533 34.7607 57.5189C34.6364 57.4009 34.5143 57.281 34.3942 57.1592C33.738 56.4937 33.7037 55.4693 34.1151 54.6302C34.3455 54.1623 34.5499 53.6834 34.7281 53.1913C34.9064 52.6992 35.0607 52.2005 35.189 51.6929C35.3173 51.1853 35.4173 50.6711 35.4912 50.1525C35.5651 49.6339 35.6107 49.1131 35.6303 48.5879C35.6499 48.0627 35.6412 47.5396 35.6064 47.0166C35.5716 46.4936 35.5086 45.9728 35.4194 45.4564C35.3303 44.94 35.2129 44.4302 35.0694 43.9271C34.7086 42.934 34.2086 42.3293 33.626 42.1771C32.1368 41.7953 30.3477 44.3221 29.7173 46.3104C29.0594 48.3869 29.3906 50.6461 30.2841 52.7563C31.1581 54.8203 31.2936 57.3696 29.41 58.5847C29.3072 58.651 29.2031 58.7158 29.0977 58.779C29.0434 58.8099 28.9956 58.8518 28.9586 58.9026C28.9217 58.9533 28.8934 59.0085 28.876 59.0703C28.8608 59.1321 28.8564 59.1961 28.8651 59.2579C28.8738 59.3197 28.8934 59.3814 28.926 59.4366C28.9586 59.4918 28.9977 59.5381 29.0499 59.5779C29.0999 59.6154 29.1543 59.6418 29.2151 59.6573C29.276 59.6727 29.3369 59.675 29.3977 59.6639C29.4586 59.6529 29.5173 59.633 29.5695 59.5977C30.2388 59.197 30.8602 58.7379 31.4337 58.2205C32.1911 57.5371 33.3941 57.5215 34.1368 58.2207C34.7847 58.8297 36.9912 60.7717 38.3498 60.1759C39.3672 59.7257 39.5259 58.0574 39.6607 56.5854C39.6679 56.507 39.6754 56.4242 39.6833 56.3395C39.6953 56.211 39.8623 56.1934 39.902 56.3162C40.2824 57.4858 40.715 58.8121 41.7042 58.9357C42.4846 59.0372 43.0042 58.3178 43.5107 57.6248C43.9454 57.029 44.3694 56.4133 44.8889 56.4331C45.202 56.4442 45.4063 56.7068 45.715 57.1371C45.8715 57.4196 46.0737 57.6579 46.3259 57.8543C46.5759 58.0507 46.8541 58.1898 47.1606 58.2692C47.6168 58.344 48.0902 58.5928 48.2036 59.041C48.6627 60.8553 49.2631 62.9938 50.0345 65.5208C50.065 65.6201 50.1215 65.6996 50.2019 65.7614C50.2824 65.8232 50.3758 65.8541 50.4758 65.8541C50.5237 65.8541 50.5693 65.8474 50.615 65.832C50.6737 65.8121 50.7258 65.7834 50.7737 65.7415C50.8193 65.7018 50.8584 65.6532 50.8867 65.5959C50.915 65.5385 50.9323 65.4811 50.9367 65.4171C50.941 65.3553 50.9367 65.2935 50.9171 65.2339C50.2931 63.1898 49.7873 61.415 49.3805 59.8736C49.0597 58.658 49.6379 57.4212 50.4237 56.4398L50.4302 56.4331ZM32.7613 55.2039C32.7613 55.2045 32.7601 55.2052 32.7598 55.2048C30.9169 52.6252 29.7262 49.373 30.6064 46.6084C31.1956 44.7568 32.6195 43.0907 33.3129 43.0907C33.3455 43.0907 33.376 43.0951 33.4064 43.1017C33.6108 43.1547 33.9281 43.4879 34.2107 44.2603C34.4607 45.1739 34.6194 46.1052 34.6847 47.0541C34.7499 48.0009 34.7194 48.9454 34.5955 49.8877C34.4716 50.8278 34.2542 51.7481 33.9455 52.6418C33.637 53.5373 33.2438 54.3909 32.7659 55.2026C32.7654 55.2034 32.7645 55.2039 32.7635 55.2039H32.7613C32.7613 55.2036 32.761 55.2039 32.7613 55.2039ZM49.7171 55.8218C49.2777 56.3733 48.4702 56.0817 48.3343 55.3898C47.4198 50.7304 47.9922 49.8843 48.2737 49.7354C48.3454 49.7001 48.4215 49.6847 48.4998 49.6869C48.678 49.6935 48.8476 49.7354 49.0106 49.8083C49.4324 49.998 49.8041 50.2629 50.1258 50.6027C50.4476 50.9426 50.6932 51.3332 50.8671 51.7723C51.3389 53.1339 50.5432 54.8045 49.7171 55.8218Z" fill="#34A853"/>
<path d="M29.7173 46.3104C30.3477 44.3221 32.1368 41.7953 33.626 42.1771C34.2086 42.3293 34.7086 42.934 35.0694 43.9271C35.2129 44.4302 35.3303 44.94 35.4194 45.4564C35.5086 45.9728 35.5716 46.4936 35.6064 47.0166C35.6412 47.5396 35.6499 48.0627 35.6303 48.5879C35.6107 49.1131 35.5651 49.6339 35.4912 50.1525C35.4173 50.6711 35.3173 51.1853 35.189 51.6929C35.0607 52.2005 34.9064 52.6992 34.7281 53.1913C34.5499 53.6834 34.3455 54.1623 34.1151 54.6302C33.7037 55.4693 33.738 56.4937 34.3942 57.1592C34.5143 57.281 34.6364 57.4009 34.7607 57.5189C36.2781 58.9533 37.5303 59.4984 37.9868 59.2998C38.502 59.0725 38.6477 57.4593 38.739 56.4949C38.8564 55.226 38.9346 54.3874 39.615 54.3499C40.202 54.3036 40.4585 55.0252 40.7803 56.0116C40.9998 56.6847 41.4085 57.936 41.8172 57.9889C42.0737 58.0353 42.4585 57.4792 42.7737 57.0488C43.2976 56.3338 43.9454 55.4423 44.9237 55.4776C45.0867 55.4996 45.2411 55.5394 45.3933 55.599C45.5454 55.6585 45.6867 55.7358 45.8215 55.8307C45.9563 55.9256 46.0759 56.0359 46.1846 56.1595C46.215 56.1947 46.2442 56.2306 46.2722 56.2673C46.4161 56.4559 46.5275 56.6681 46.6736 56.855C46.8655 57.1003 47.0598 57.2854 47.315 57.3291C47.5821 57.3657 47.7397 57.0844 47.6817 56.8211C46.3459 50.7552 47.0039 49.3292 47.8563 48.8858C48.0976 48.7799 48.3454 48.7313 48.6085 48.7379C48.8715 48.7446 49.1193 48.8064 49.3541 48.9233C49.6237 49.0425 49.8802 49.1881 50.1215 49.3603C50.3628 49.5324 50.5867 49.7266 50.791 49.9429C50.9976 50.1591 51.178 50.3953 51.3389 50.6491C51.4997 50.9028 51.6323 51.1721 51.741 51.4523C52.3432 53.1913 51.4563 55.1642 50.4302 56.4331L50.4237 56.4398C49.6379 57.4212 49.0597 58.658 49.3805 59.8736C49.7679 61.3415 50.2459 63.0209 50.8295 64.9431L50.5013 65.3699L50.9171 65.2339L50.5111 65.3572L50.8295 64.9431C50.8587 65.0394 50.8874 65.1365 50.9171 65.2339C50.9367 65.2935 50.941 65.3553 50.9367 65.4171C50.9323 65.4811 50.915 65.5385 50.8867 65.5959L50.8363 65.6756C50.8173 65.6997 50.7964 65.7217 50.7737 65.7415C50.7258 65.7834 50.6737 65.8121 50.615 65.832C50.5693 65.8474 50.5237 65.8541 50.4758 65.8541L50.4017 65.8484C50.3538 65.8407 50.3081 65.8246 50.265 65.8015L50.2019 65.7614C50.1222 65.7001 50.0651 65.6214 50.0345 65.5232L50.0345 65.5208C49.2631 62.9938 48.6627 60.8553 48.2036 59.041C48.0902 58.5928 47.6168 58.344 47.1606 58.2692C46.8541 58.1898 46.5759 58.0507 46.3259 57.8543C46.0737 57.6579 45.8715 57.4196 45.715 57.1371C45.4063 56.7068 45.202 56.4442 44.8889 56.4331C44.3694 56.4133 43.9454 57.029 43.5107 57.6248C43.0042 58.3178 42.4846 59.0372 41.7042 58.9357C40.715 58.8121 40.2824 57.4858 39.902 56.3162C39.8623 56.1934 39.6953 56.211 39.6833 56.3395C39.6754 56.4242 39.6679 56.507 39.6607 56.5854C39.5259 58.0574 39.3672 59.7257 38.3498 60.1759C36.9912 60.7717 34.7847 58.8297 34.1368 58.2207C33.3941 57.5215 32.1911 57.5371 31.4337 58.2205C30.8602 58.7379 30.2388 59.197 29.5695 59.5977C29.5173 59.633 29.4586 59.6529 29.3977 59.6639L29.306 59.6707L29.2151 59.6573C29.1846 59.6496 29.1558 59.639 29.1283 59.6258L29.0499 59.5779C29.024 59.5581 29.0011 59.5368 28.9808 59.5134L28.926 59.4366C28.9097 59.409 28.8971 59.3794 28.8871 59.3494L28.8651 59.2579C28.8564 59.1961 28.8608 59.1321 28.876 59.0703C28.8934 59.0085 28.9217 58.9533 28.9586 58.9026C28.9924 58.8562 29.0358 58.8178 29.0843 58.7879L29.0977 58.779C29.1401 58.7536 29.1811 58.7259 29.223 58.7L29.41 58.5847C31.2936 57.3696 31.1581 54.8203 30.2841 52.7563C29.3906 50.6461 29.0594 48.3869 29.7173 46.3104ZM50.5013 65.3699L50.5111 65.3572L50.9171 65.2339L50.5013 65.3699ZM48.4998 49.6869C48.4215 49.6847 48.3454 49.7001 48.2737 49.7354C47.9922 49.8843 47.4198 50.7304 48.3343 55.3898C48.4702 56.0817 49.2777 56.3733 49.7171 55.8218C50.5432 54.8045 51.3389 53.1339 50.8671 51.7723C50.6932 51.3332 50.4476 50.9426 50.1258 50.6027C49.8041 50.2629 49.4324 49.998 49.0106 49.8083C48.8476 49.7354 48.678 49.6935 48.4998 49.6869ZM33.3129 43.0907C32.6195 43.0907 31.1956 44.7568 30.6064 46.6084C29.7262 49.373 30.9169 52.6252 32.7598 55.2048C32.7601 55.2052 32.7613 55.2045 32.7613 55.2039H32.7635C32.7645 55.2039 32.7654 55.2034 32.7659 55.2026C33.2438 54.3909 33.637 53.5373 33.9455 52.6418C34.2542 51.7481 34.4716 50.8278 34.5955 49.8877C34.7194 48.9454 34.7499 48.0009 34.6847 47.0541C34.6194 46.1052 34.4607 45.1739 34.2107 44.2603C33.9281 43.4879 33.6108 43.1547 33.4064 43.1017C33.376 43.0951 33.3455 43.0907 33.3129 43.0907Z" fill="white"/>
<path d="M14.7891 67.091C14.7891 67.0903 14.7886 67.0899 14.788 67.0899H11.85C10.2268 67.0899 8.91093 65.774 8.91093 64.1508V62.1488C8.91093 62.0583 8.89354 61.97 8.85875 61.8862C8.82397 61.8023 8.77614 61.7273 8.7131 61.6633C8.64789 61.5993 8.57615 61.5485 8.49354 61.5132C8.41093 61.4779 8.32397 61.4603 8.23485 61.4603C8.14572 61.4603 8.05876 61.4779 7.97615 61.5132C7.89354 61.5485 7.81963 61.5993 7.75659 61.6633C7.69355 61.7273 7.64355 61.8023 7.61094 61.8862C7.57616 61.9722 7.55876 62.0583 7.55876 62.1488V67.7784C7.55876 67.8689 7.57616 67.9571 7.61094 68.041C7.64572 68.1249 7.69355 68.1999 7.75659 68.2639C7.81963 68.3279 7.89354 68.3786 7.97615 68.4117C8.05876 68.4471 8.14572 68.4647 8.23485 68.4647H14.7891C14.8783 68.4647 14.9652 68.4471 15.0478 68.4117C15.1304 68.3764 15.2044 68.3279 15.2674 68.2639C15.3304 68.1999 15.3804 68.1249 15.413 68.041C15.4478 67.9571 15.4652 67.8689 15.4652 67.7784C15.4652 67.6879 15.4478 67.5996 15.413 67.5158C15.3783 67.4319 15.3304 67.3569 15.2674 67.2929C15.2022 67.2289 15.1304 67.1781 15.0478 67.145C14.9656 67.1121 14.879 67.0922 14.7902 67.0921C14.7896 67.0921 14.7891 67.0916 14.7891 67.091Z" fill="#4285F4"/>
<path d="M14.7902 67.0921C14.879 67.0922 14.9656 67.1121 15.0478 67.145C15.1304 67.1781 15.2022 67.2289 15.2674 67.2929C15.3304 67.3569 15.3783 67.4319 15.413 67.5158C15.4478 67.5996 15.4652 67.6879 15.4652 67.7784L15.4523 67.9124C15.4436 67.9562 15.4304 67.9991 15.413 68.041C15.3804 68.1249 15.3304 68.1999 15.2674 68.2639L15.1652 68.3489C15.1286 68.3734 15.089 68.3941 15.0478 68.4117L14.9211 68.4515C14.8779 68.4603 14.8337 68.4647 14.7891 68.4647H8.23485L8.10271 68.4515C8.05962 68.4426 8.01735 68.4294 7.97615 68.4117C7.93481 68.3951 7.89528 68.3738 7.85857 68.3489L7.75659 68.2639C7.72497 68.2318 7.69726 68.1969 7.67302 68.1595L7.61094 68.041C7.59357 67.9991 7.58015 67.9562 7.57146 67.9124L7.55876 67.7784V62.1488C7.55876 62.0583 7.57616 61.9722 7.61094 61.8862C7.64355 61.8023 7.69355 61.7273 7.75659 61.6633C7.81963 61.5993 7.89354 61.5485 7.97615 61.5132C8.05876 61.4779 8.14572 61.4603 8.23485 61.4603C8.32397 61.4603 8.41093 61.4779 8.49354 61.5132C8.57615 61.5485 8.64789 61.5993 8.7131 61.6633C8.77614 61.7273 8.82397 61.8023 8.85875 61.8862C8.89354 61.97 8.91093 62.0583 8.91093 62.1488V64.1508C8.91093 65.774 10.2268 67.0899 11.85 67.0899H14.788L14.7902 67.0921Z" fill="white"/>
<path d="M48.0388 8.11149C48.0388 8.1121 48.0393 8.1126 48.0399 8.1126H50.9779C52.6011 8.1126 53.917 9.42848 53.917 11.0517V13.0537C53.917 13.1441 53.9344 13.2324 53.9692 13.3163C54.004 13.4001 54.0518 13.4752 54.1148 13.5392C54.1801 13.6032 54.2518 13.6539 54.3344 13.6892C54.417 13.7245 54.504 13.7422 54.5931 13.7422C54.6822 13.7422 54.7692 13.7245 54.8518 13.6892C54.9344 13.6539 55.0083 13.6032 55.0714 13.5392C55.1344 13.4752 55.1844 13.4001 55.217 13.3163C55.2518 13.2302 55.2692 13.1441 55.2692 13.0537V7.42407C55.2692 7.33359 55.2518 7.24532 55.217 7.16146C55.1822 7.0776 55.1344 7.00257 55.0714 6.93857C55.0083 6.87457 54.9344 6.82381 54.8518 6.79071C54.7692 6.7554 54.6822 6.73775 54.5931 6.73775H48.0388C47.9497 6.73775 47.8627 6.7554 47.7801 6.79071C47.6975 6.82602 47.6236 6.87457 47.5606 6.93857C47.4975 7.00257 47.4475 7.0776 47.4149 7.16146C47.3801 7.24532 47.3627 7.33359 47.3627 7.42407C47.3627 7.51455 47.3801 7.60282 47.4149 7.68668C47.4497 7.77054 47.4975 7.84557 47.5606 7.90957C47.6258 7.97357 47.6975 8.02432 47.7801 8.05743C47.8624 8.09039 47.949 8.11023 48.0377 8.11039C48.0383 8.11039 48.0388 8.11088 48.0388 8.11149Z" fill="#4285F4"/>
<path d="M54.5688 13.0542L53.9174 12.7905V12.4018L54.5795 13.0542H54.5688ZM55.2692 13.0537L55.2563 13.187C55.2476 13.2303 55.2343 13.2735 55.217 13.3163C55.1844 13.4001 55.1344 13.4752 55.0714 13.5392L54.9692 13.6254C54.9326 13.6505 54.893 13.6716 54.8518 13.6892L54.725 13.729C54.6818 13.7378 54.6377 13.7422 54.5931 13.7422L54.4614 13.729C54.4181 13.7201 54.3757 13.7069 54.3344 13.6892C54.2933 13.6716 54.2545 13.6504 54.2182 13.6254L54.1148 13.5392C54.0518 13.4752 54.004 13.4001 53.9692 13.3163C53.9519 13.2746 53.9388 13.2315 53.9301 13.1879L53.917 13.0537L53.9174 12.7905L54.5688 13.0542H54.5795L53.9174 12.4018L53.917 11.0517C53.917 9.42848 52.6011 8.1126 50.9779 8.1126H48.0399L48.0377 8.11039C47.949 8.11023 47.8624 8.09039 47.7801 8.05743C47.739 8.0409 47.6998 8.02029 47.6635 7.99556L47.5606 7.90957C47.5289 7.87746 47.5012 7.84251 47.477 7.80513L47.4149 7.68668C47.3801 7.60282 47.3627 7.51455 47.3627 7.42407C47.3627 7.33359 47.3801 7.24532 47.4149 7.16146C47.4475 7.0776 47.4975 7.00257 47.5606 6.93857C47.6236 6.87457 47.6975 6.82602 47.7801 6.79071C47.8627 6.7554 47.9497 6.73775 48.0388 6.73775H54.5931C54.6822 6.73775 54.7692 6.7554 54.8518 6.79071C54.9344 6.82381 55.0083 6.87457 55.0714 6.93857C55.1344 7.00257 55.1822 7.0776 55.217 7.16146C55.2518 7.24532 55.2692 7.33359 55.2692 7.42407V13.0537Z" fill="white"/>
<path d="M24.3476 16.3264H14.4651C14.376 16.3264 14.289 16.344 14.2064 16.3793C14.1238 16.4146 14.0499 16.4632 13.9869 16.5294C13.9216 16.5934 13.8738 16.6684 13.839 16.7523C13.8042 16.8361 13.7869 16.9244 13.7869 17.0149C13.7869 17.1054 13.8042 17.1936 13.839 17.2775C13.8738 17.3614 13.9216 17.4364 13.9869 17.5004C14.0499 17.5644 14.1238 17.6151 14.2064 17.6483C14.289 17.6836 14.376 17.7012 14.4651 17.7012H24.3476C24.4368 17.7012 24.5237 17.6836 24.6063 17.6483C24.6911 17.6129 24.7629 17.5644 24.8259 17.5004C24.8889 17.4364 24.9389 17.3614 24.9737 17.2775C25.0085 17.1936 25.0259 17.1054 25.0259 17.0149C25.0259 16.9244 25.0085 16.8361 24.9737 16.7523C24.9389 16.6684 24.8889 16.5934 24.8259 16.5294C24.7629 16.4632 24.6889 16.4146 24.6063 16.3793C24.5237 16.344 24.4368 16.3264 24.3476 16.3264Z" fill="#FBBC05"/>
<path d="M25.0122 17.1485C25.0035 17.1924 24.9911 17.2356 24.9737 17.2775L24.9107 17.3966C24.886 17.4338 24.8574 17.4684 24.8259 17.5004L24.7241 17.585C24.6877 17.6096 24.6487 17.6306 24.6063 17.6483C24.5237 17.6836 24.4368 17.7012 24.3476 17.7012H14.4651L14.3337 17.6875C14.2906 17.6787 14.2477 17.6659 14.2064 17.6483C14.1238 17.6151 14.0499 17.5644 13.9869 17.5004C13.9543 17.4684 13.9256 17.4338 13.9011 17.3966L13.839 17.2775C13.8042 17.1936 13.7869 17.1054 13.7869 17.0149C13.7869 16.9244 13.8042 16.8361 13.839 16.7523C13.8738 16.6684 13.9216 16.5934 13.9869 16.5294C14.0499 16.4632 14.1238 16.4146 14.2064 16.3793C14.2477 16.3617 14.2905 16.3488 14.3337 16.34L14.4651 16.3264H24.3476C24.4368 16.3264 24.5237 16.344 24.6063 16.3793C24.6889 16.4146 24.7629 16.4632 24.8259 16.5294C24.8889 16.5934 24.9389 16.6684 24.9737 16.7523C25.0085 16.8361 25.0259 16.9244 25.0259 17.0149L25.0122 17.1485Z" fill="white"/>
<path d="M33.3151 23.3507H14.4652C14.3761 23.3507 14.2891 23.3683 14.2065 23.4037C14.1239 23.439 14.05 23.4875 13.987 23.5515C13.9218 23.6155 13.8739 23.6905 13.8391 23.7744C13.8044 23.8583 13.787 23.9465 13.787 24.037C13.787 24.1275 13.8044 24.2158 13.8391 24.2996C13.8739 24.3835 13.9218 24.4585 13.987 24.5225C14.05 24.5887 14.1239 24.6373 14.2065 24.6726C14.2891 24.7079 14.3761 24.7255 14.4652 24.7255H33.3151C33.4042 24.7255 33.4912 24.7079 33.5738 24.6726C33.6585 24.6373 33.7303 24.5887 33.7933 24.5225C33.8564 24.4585 33.9064 24.3835 33.9412 24.2996C33.9759 24.2158 33.9933 24.1275 33.9933 24.037C33.9933 23.9465 33.9759 23.8583 33.9412 23.7744C33.9064 23.6905 33.8564 23.6155 33.7933 23.5515C33.7303 23.4875 33.6564 23.4368 33.5738 23.4037C33.4912 23.3683 33.4042 23.3507 33.3151 23.3507Z" fill="#FBBC05"/>
<path d="M33.9803 24.171C33.9716 24.2148 33.9585 24.2577 33.9412 24.2996L33.8778 24.4181C33.8531 24.4553 33.8248 24.4905 33.7933 24.5225C33.7303 24.5887 33.6585 24.6373 33.5738 24.6726C33.4912 24.7079 33.4042 24.7255 33.3151 24.7255H14.4652L14.3338 24.712L14.2065 24.6726C14.1239 24.6373 14.05 24.5887 13.987 24.5225C13.9542 24.4904 13.9258 24.4555 13.9012 24.4181L13.8391 24.2996C13.8044 24.2158 13.787 24.1275 13.787 24.037C13.787 23.9465 13.8044 23.8583 13.8391 23.7744C13.8565 23.7325 13.8768 23.6926 13.9012 23.6554L13.987 23.5515C14.05 23.4875 14.1239 23.439 14.2065 23.4037C14.2478 23.386 14.2907 23.3732 14.3338 23.3644L14.4652 23.3507H33.3151C33.4042 23.3507 33.4912 23.3683 33.5738 23.4037C33.6564 23.4368 33.7303 23.4875 33.7933 23.5515C33.8564 23.6155 33.9064 23.6905 33.9412 23.7744C33.9759 23.8583 33.9933 23.9465 33.9933 24.037L33.9803 24.171Z" fill="white"/>
<path d="M40.4824 30.375H14.7131C14.5891 30.375 14.4717 30.3926 14.3587 30.428C14.2457 30.4633 14.1457 30.5118 14.0587 30.5758C13.9696 30.6398 13.9044 30.7148 13.8565 30.7987C13.8087 30.8826 13.787 30.9708 13.787 31.0613C13.787 31.1518 13.8109 31.2401 13.8565 31.3239C13.9022 31.4078 13.9696 31.4828 14.0587 31.5468C14.1457 31.613 14.2457 31.6616 14.3587 31.6969C14.4717 31.7322 14.5891 31.7498 14.7131 31.7498H40.4824C40.6063 31.7498 40.7237 31.7322 40.8367 31.6969C40.952 31.6616 41.052 31.613 41.1389 31.5468C41.2259 31.4828 41.2911 31.4078 41.3411 31.3239C41.3867 31.2401 41.4107 31.1518 41.4107 31.0613C41.4107 30.9708 41.3867 30.8826 41.3411 30.7987C41.2933 30.7148 41.2259 30.6398 41.1389 30.5758C41.052 30.5118 40.952 30.4611 40.8367 30.428C40.7237 30.3926 40.6063 30.375 40.4824 30.375Z" fill="#FBBC05"/>
<path d="M40.4824 31.7498L40.4569 31.75L40.4823 31.6601L40.4824 31.7498ZM14.7131 30.375H14.951L14.4901 30.9785L15.6004 30.375H40.4824C40.6063 30.375 40.7237 30.3926 40.8367 30.428C40.952 30.4611 41.052 30.5118 41.1389 30.5758C41.2259 30.6398 41.2933 30.7148 41.3411 30.7987C41.3867 30.8826 41.4107 30.9708 41.4107 31.0613L41.4061 31.1289C41.3972 31.1958 41.3753 31.2611 41.3411 31.3239L41.2538 31.4424C41.2203 31.4797 41.1825 31.5148 41.1389 31.5468C41.052 31.613 40.952 31.6616 40.8367 31.6969C40.7237 31.7322 40.6063 31.7498 40.4824 31.7498L40.4823 31.6601L40.4569 31.75L14.7131 31.7498L14.5321 31.7363L14.3587 31.6969C14.2457 31.6616 14.1457 31.613 14.0587 31.5468C13.9918 31.4987 13.9368 31.4444 13.8944 31.3848L13.8565 31.3239C13.8109 31.2401 13.787 31.1518 13.787 31.0613C13.787 30.9708 13.8087 30.8826 13.8565 30.7987C13.8924 30.7359 13.9379 30.6779 13.996 30.626L14.0587 30.5758C14.1457 30.5118 14.2457 30.4633 14.3587 30.428C14.4717 30.3926 14.5891 30.375 14.7131 30.375ZM15.6004 30.375L14.4901 30.9785L14.951 30.375H15.6004Z" fill="white"/>
<path d="M46.7041 37.3971H14.9283C14.7761 37.3971 14.6304 37.4148 14.4913 37.4501C14.3522 37.4854 14.2283 37.5339 14.1218 37.5979C14.0131 37.6619 13.9304 37.737 13.8739 37.8208C13.8174 37.9047 13.787 37.993 13.787 38.0834C13.787 38.1739 13.8152 38.2622 13.8739 38.3461C13.9326 38.4299 14.0131 38.5049 14.1218 38.5689C14.2283 38.6351 14.3522 38.6837 14.4913 38.719C14.6304 38.7543 14.7761 38.772 14.9283 38.772H46.7041C46.8563 38.772 47.0019 38.7543 47.141 38.719C47.2823 38.6837 47.4063 38.6351 47.5128 38.5689C47.6193 38.5049 47.7019 38.4299 47.7606 38.3461C47.8171 38.2622 47.8476 38.1739 47.8476 38.0834C47.8476 37.993 47.8193 37.9047 47.7606 37.8208C47.7019 37.737 47.6193 37.6619 47.5128 37.5979C47.4063 37.5339 47.2823 37.4832 47.141 37.4501C47.0019 37.4148 46.8563 37.3971 46.7041 37.3971Z" fill="#FBBC05"/>
<path d="M14.9283 37.3971H46.7041C46.8563 37.3971 47.0019 37.4148 47.141 37.4501C47.2823 37.4832 47.4063 37.5339 47.5128 37.5979C47.6193 37.6619 47.7019 37.737 47.7606 37.8208C47.8193 37.9047 47.8476 37.993 47.8476 38.0834L47.8417 38.1509C47.8305 38.2178 47.8029 38.2832 47.7606 38.3461L47.7118 38.4068C47.6588 38.4663 47.5927 38.5209 47.5128 38.5689C47.4063 38.6351 47.2823 38.6837 47.141 38.719C47.0019 38.7543 46.8563 38.772 46.7041 38.772H14.9283L14.7049 38.7583L14.4913 38.719C14.3522 38.6837 14.2283 38.6351 14.1218 38.5689C14.04 38.5208 13.9743 38.4664 13.9217 38.4068L13.8739 38.3461C13.8152 38.2622 13.787 38.1739 13.787 38.0834C13.787 37.993 13.8174 37.9047 13.8739 37.8208C13.9163 37.758 13.9732 37.7 14.0448 37.6481L14.1218 37.5979C14.2283 37.5339 14.3522 37.4854 14.4913 37.4501C14.6053 37.4212 14.7238 37.4072 14.8465 37.402L14.9283 37.3971Z" fill="white"/>
</svg>
