<svg width="25" height="25" viewBox="0 0 25 25" fill="none" xmlns="http://www.w3.org/2000/svg">
<path d="M0 12.5C0 5.59644 5.59644 0 12.5 0C19.4036 0 25 5.59644 25 12.5C25 19.4036 19.4036 25 12.5 25C5.59644 25 0 19.4036 0 12.5Z" fill="#EBEBEB"/>
<path d="M16.7215 7.37155C17.5023 8.15262 17.5025 9.41902 16.7215 10.2L12.1958 14.7257C11.4148 15.5064 10.1483 15.5064 9.36736 14.7257L7.67003 13.0284C6.88907 12.2474 6.88925 10.981 7.67003 10.2L7.95315 9.91685L10.7816 12.7453L16.4384 7.08843L16.7215 7.37155Z" fill="#407BFF"/>
</svg>
