<svg width="64" height="66" viewBox="0 0 64 66" fill="none" xmlns="http://www.w3.org/2000/svg">
<path d="M3.50725 0.0179861C1.57324 0.0179861 0.0146524 1.52127 0.0146524 3.3897V42.2089C0.0146524 45.6551 2.89039 48.4309 6.45883 48.4309H8.9776C10.4119 48.4309 11.2141 46.6613 10.4691 45.4357C10.1535 44.9165 9.60217 44.5805 8.99463 44.5805H6.45883C5.03044 44.5805 4.00402 43.5901 4.00402 42.2089V14.8559C4.00402 12.0945 6.2426 9.85591 9.00403 9.85591H54.1461C56.9075 9.85591 59.1461 12.0945 59.1461 14.8559V42.2089C59.1461 43.5901 58.121 44.5805 56.6913 44.5805H45.1144C44.3579 44.5805 43.6711 45.0031 43.2699 45.6445C43.1746 45.7969 43.077 45.9478 42.9773 46.0974C42.5741 46.702 42.6278 47.5145 43.1478 48.0222C43.4163 48.2842 43.7766 48.4309 44.1517 48.4309H56.6913C60.2585 48.4309 63.1355 45.6564 63.1355 42.2089V3.3897C63.1355 1.52127 61.5769 0.0179861 59.6429 0.0179861H3.50725ZM5.66753 3.26147H30.7022C31.2028 3.26269 31.6806 3.59364 31.8462 4.04914L32.2515 5.15561C32.2518 5.15637 32.252 5.15718 32.252 5.15799C32.252 5.15879 32.2521 5.15959 32.2524 5.16035C32.3795 5.51302 32.3213 5.924 32.099 6.22897C31.8753 6.53549 31.4897 6.72477 31.1029 6.72599H6.06697C5.5664 6.72477 5.09112 6.39383 4.92426 5.93832L4.5185 4.82826C4.39083 4.47534 4.44897 4.06379 4.67145 3.7585C4.89392 3.4532 5.27946 3.26147 5.66753 3.26147ZM45.3198 3.26147H47.2007C47.6988 3.26269 48.1791 3.59364 48.3435 4.04914L48.7488 5.15561C48.7491 5.15637 48.7492 5.15718 48.7492 5.15799C48.7492 5.15879 48.7494 5.15959 48.7496 5.16035C48.8768 5.51302 48.8198 5.924 48.5963 6.22897C48.3725 6.53549 47.987 6.72477 47.6002 6.72599H44.9204C44.5323 6.72599 44.1493 6.53549 43.9268 6.22897C43.7046 5.924 43.6463 5.51302 43.7735 5.16035C43.7737 5.15959 43.7739 5.15879 43.7739 5.15799C43.7739 5.15718 43.774 5.15637 43.7743 5.15561L44.1796 4.04914C44.3427 3.59364 44.8205 3.26269 45.3198 3.26147ZM53.9268 3.26147H57.3891C57.8884 3.26269 58.3674 3.59364 58.533 4.04914L58.9384 5.15561C58.9387 5.15637 58.9388 5.15718 58.9388 5.15799C58.9388 5.15879 58.9389 5.15959 58.9392 5.16035C59.0663 5.51302 59.0018 5.924 58.7795 6.22897C58.5558 6.53549 58.174 6.72477 57.786 6.72599H53.5261C53.138 6.72599 52.7525 6.53549 52.5313 6.22897C52.3078 5.924 52.2495 5.51301 52.3767 5.16034C52.3769 5.15959 52.3771 5.15879 52.3771 5.15799C52.3771 5.15718 52.3772 5.15637 52.3775 5.15561L52.7841 4.04914C52.9497 3.59364 53.4275 3.26269 53.9268 3.26147Z" fill="white"/>
<path d="M26.9004 18.9563C22.2474 18.971 17.7866 20.7515 14.4798 23.9119C7.51357 30.5674 7.45163 41.4201 14.342 48.1501C20.2446 53.9148 29.4124 54.8275 36.3462 50.6372C37.5328 49.92 39.0827 49.9713 40.075 50.9395L41.3243 52.1585C41.4277 52.2594 41.4544 52.4156 41.3904 52.5452C41.044 53.2327 41.1944 54.1279 41.7506 54.6701L42.2436 55.15L52.2701 64.9439C52.6999 65.3616 53.3534 65.5631 53.9551 65.4678C54.5573 65.3727 55.0965 64.9816 55.3648 64.4514C55.3655 64.4501 55.3665 64.4489 55.3677 64.4481C55.3689 64.4473 55.37 64.4462 55.3706 64.4449L56.3669 62.4613C56.7146 61.7737 56.5603 60.8798 56.0042 60.3364L46.5123 51.07L45.4872 50.0662C45.0574 49.6485 44.4039 49.4446 43.8022 49.5398C43.3551 49.6104 42.8615 49.597 42.5377 49.2808L41.8912 48.6493C41.0776 47.8547 41.0435 46.5686 41.6916 45.634C43.6169 42.8575 44.6569 39.6006 44.6925 36.2711C44.7059 35.0153 43.2532 34.4687 42.3036 35.2906C41.9414 35.604 41.7435 36.0631 41.7282 36.5419C41.6117 40.1904 40.0503 43.669 37.3517 46.2487C31.5484 51.7954 22.1893 51.7465 16.4467 46.1413C16.0573 45.7607 15.6913 45.3603 15.3499 44.9422C13.7166 42.9418 14.8504 40.1457 17.1695 39.0096L28.703 33.359C28.7852 33.3187 28.8838 33.3273 28.9558 33.3835L35.1826 38.0594C35.5226 38.3159 35.9347 38.4062 36.3291 38.3525C36.4263 38.3391 36.5186 38.3183 36.612 38.2854C36.612 38.2855 36.6122 38.2854 36.612 38.2854C36.6127 38.2848 36.6124 38.2836 36.6115 38.2838C36.5844 38.2917 36.5851 38.2943 36.6362 38.2743C36.7209 38.2426 36.798 38.2121 36.8676 38.173C36.8865 38.162 36.9232 38.1351 36.9788 38.0973C37.0382 38.057 37.0862 38.0264 37.1178 38.002C37.1457 37.9776 37.1494 37.9752 37.133 37.9898L46.9063 29.5212C48.1299 28.461 50.0249 28.8406 50.7457 30.2902C51.001 30.8055 51.7557 31.1865 52.3397 31.0962C52.9249 31.0046 53.5178 30.4184 53.5936 29.8518L54.5947 22.4379C54.644 22.0732 54.5267 21.6536 54.2946 21.3606C54.2942 21.36 54.2939 21.3596 54.2939 21.3589C54.2939 21.3581 54.2936 21.3568 54.2931 21.3562C54.2776 21.3368 54.2653 21.3232 54.2545 21.3111C54.247 21.3028 54.239 21.295 54.2312 21.287C54.2303 21.286 54.2293 21.285 54.2282 21.2839C53.9665 20.9994 53.5494 20.8089 53.1575 20.7954L45.4252 20.5304C44.8324 20.5097 44.1346 20.9786 43.945 21.522C43.7554 22.063 44.0209 22.8434 44.505 23.1719C45.9697 24.1699 46.0921 26.2846 44.7522 27.4449L36.19 34.8599C36.1053 34.9332 35.9789 34.9393 35.8892 34.8721L30.0421 30.4798C30.0117 30.4569 29.9753 30.4423 29.9456 30.4184C29.4956 30.074 28.8699 29.9886 28.3175 30.2597L18.4693 35.0832C15.4266 36.5736 11.8491 34.5337 13.0096 31.3505C13.743 29.339 14.943 27.4845 16.5554 25.9427C22.3473 20.4059 31.6849 20.4413 37.4326 26.0221C37.4427 26.0319 37.4541 26.0429 37.4642 26.0527C38.1105 26.6836 38.6941 27.3703 39.2072 28.1037C39.7367 28.8605 40.8157 29.0688 41.5142 28.4643C42.0354 28.0134 42.1667 27.2513 41.779 26.6815C41.1346 25.7344 40.3937 24.8501 39.5663 24.0426C36.2204 20.7747 31.6571 18.9417 26.9004 18.9563Z" fill="white"/>
</svg>
