<svg enable-background="new 0 0 512 512" viewBox="0 0 512 512" xmlns="http://www.w3.org/2000/svg"><g id="_x31_6_Book"><g><path d="m472.577 52.532v406.777c0 21.719-17.607 39.326-39.326 39.326h-339.519c-29.994 0-54.308-24.315-54.308-54.308v-358.899c0-39.887 32.335-72.222 72.222-72.222h321.605c21.719 0 39.326 17.607 39.326 39.326z" fill="#f5a218"/><path d="m166.642 13.206v485.429h-72.91c-29.994 0-54.308-24.315-54.308-54.308v-358.899c0-39.887 32.335-72.222 72.222-72.222z" fill="#0176fe"/><path d="m472.577 390.017v69.292c0 21.719-17.607 39.326-39.326 39.326h-337.711c-28.68 0-53.757-21.471-55.953-50.067-1.275-16.602 5.017-31.911 15.747-42.641 9.869-9.809 23.386-15.91 38.399-15.91z" fill="#fff"/><path d="m408.844 145.918c0 50.023-40.555 90.579-90.504 90.579-50.023 0-90.578-40.555-90.578-90.579 0-49.949 40.555-90.504 90.578-90.504 49.948 0 90.504 40.555 90.504 90.504z" fill="#fff"/><path d="m359.748 188.865c0 22.853-82.89 22.853-82.89 0 0-22.896 18.571-41.467 41.467-41.467 22.852 0 41.423 18.57 41.423 41.467z" fill="#0176fe"/><path d="m337.776 105.401c0 10.716-8.737 19.453-19.453 19.453-10.757 0-19.494-8.737-19.494-19.453 0-10.757 8.738-19.494 19.494-19.494 10.716-.001 19.453 8.737 19.453 19.494z" fill="#0176fe"/><path d="m472.598 204.612c4.022 0 7.281-3.261 7.281-7.281v-144.804c0-25.698-20.927-46.604-46.649-46.604-37.455 0-283.264 0-321.585 0h-.012c-43.843 0-79.513 35.668-79.513 79.513v358.881c0 68.022 78.906 61.598 63.419 61.598h337.691.021c25.332 0 46.628-20.672 46.628-46.599v-224.658c0-4.02-3.259-7.281-7.281-7.281s-7.281 3.261-7.281 7.281v148.08h-291.393v-362.252h259.306c17.692 0 32.086 14.373 32.086 32.041v144.804c0 4.02 3.259 7.281 7.282 7.281zm-425.893-119.186c0-35.81 29.133-64.94 64.94-64.94h47.716v362.251h-65.63c-16.374 0-31.833 6.4-43.546 18.042-1.236 1.236-2.362 2.555-3.48 3.879zm418.59 311.874v39.744h-325.927c-4.022 0-7.281 3.261-7.281 7.281s3.259 7.281 7.281 7.281h325.927v7.703c0 17.801-14.589 32.041-32.065 32.041-49.844 0-287.198 0-337.691 0-25.299 0-47.581-19.067-48.728-44.929-.571-13.195 4.324-26.004 13.653-35.328 8.95-8.898 20.766-13.795 33.267-13.795h371.564z"/><path d="m416.126 145.92c0-53.919-43.866-97.787-97.787-97.787-53.959 0-97.858 43.869-97.858 97.787 0 53.961 43.9 97.858 97.858 97.858 53.921 0 97.787-43.897 97.787-97.858zm-181.083 0c0-45.888 37.367-83.224 83.296-83.224 45.891 0 83.225 37.336 83.225 83.224 0 45.931-37.334 83.296-83.225 83.296-45.929 0-83.296-37.365-83.296-83.296z"/><path d="m367.029 188.864c0-26.879-21.849-48.747-48.704-48.747-26.881 0-48.749 21.868-48.749 48.747 0 19.252 29.189 24.423 48.728 24.423 22.477 0 48.725-6.394 48.725-24.423zm-48.726 9.861c-22.432 0-34.165-6.419-34.165-9.86 0-18.848 15.336-34.184 34.186-34.184 18.825 0 34.141 15.336 34.141 34.184.001 3.441-11.732 9.86-34.162 9.86z"/><path d="m318.322 132.135c14.741 0 26.734-11.993 26.734-26.732 0-14.767-11.993-26.779-26.734-26.779-14.764 0-26.774 12.012-26.774 26.779 0 14.738 12.01 26.732 26.774 26.732zm0-38.949c6.71 0 12.171 5.48 12.171 12.216 0 6.708-5.461 12.169-12.171 12.169-6.734 0-12.212-5.461-12.212-12.169.001-6.735 5.478-12.216 12.212-12.216z"/><path d="m430.431 274.753c0-4.02-3.259-7.281-7.281-7.281h-209.693c-4.022 0-7.281 3.261-7.281 7.281s3.259 7.281 7.281 7.281h209.692c4.023 0 7.282-3.261 7.282-7.281z"/><path d="m250.412 317.569c-4.022 0-7.281 3.261-7.281 7.281s3.259 7.281 7.281 7.281h135.78c4.022 0 7.281-3.261 7.281-7.281s-3.259-7.281-7.281-7.281z"/></g></g><g id="Layer_1"/></svg>