<svg clip-rule="evenodd" fill-rule="evenodd" height="512" image-rendering="optimizeQuality" shape-rendering="geometricPrecision" text-rendering="geometricPrecision" viewBox="0 0 18062 18062" width="512" xmlns="http://www.w3.org/2000/svg"><g id="Layer_x0020_1"><path d="m17600 15449h-2477c-169 0-307-138-307-307v-12622c0-169 138-307 307-307h2477c170 0 307 138 307 307v12622c0 169-137 307-307 307z" fill="#ffa721"/><path d="m14816 3109v-519h3091v519z" fill="#dedede"/><path d="m16392 18062c-118 0-225-67-276-173l-1269-2613c-21-43-31-88-31-134h3091c0 44-9 88-28 129l-1209 2613c-50 108-157 177-275 178-1 0-2 0-3 0z" fill="#ffe4af"/><path d="m16392 18062c-118 0-225-67-276-173l-282-580h1102l-266 575c-50 108-157 177-275 178-1 0-2 0-3 0z" fill="#58535a"/><path d="m14816 2590v-2108c0-169 138-306 307-306h2477c170 0 307 137 307 306v2108z" fill="#ff3131"/><path d="m13687 18052h-13225c-170 0-307-137-307-306v-17429c0-170 137-307 307-307h13225c170 0 307 137 307 307v17429c0 169-137 306-307 306z" fill="#ccf"/><g fill="#58535a"><path d="m12404 4512h-10658c-170 0-307-137-307-307v-2517c0-170 137-307 307-307h10658c169 0 306 137 306 307v2517c0 170-137 307-306 307z"/><path d="m10289 6084h-6429c-169 0-306-138-306-307s137-307 306-307h6429c169 0 307 138 307 307s-138 307-307 307z"/><path d="m12126 7554h-10102c-170 0-307-137-307-307 0-169 137-306 307-306h10102c169 0 306 137 306 306 0 170-137 307-306 307z"/><path d="m12126 9024h-10102c-170 0-307-137-307-307 0-169 137-306 307-306h10102c169 0 306 137 306 306 0 170-137 307-306 307z"/><path d="m12126 10494h-10102c-170 0-307-137-307-306 0-170 137-307 307-307h10102c169 0 306 137 306 307 0 169-137 306-306 306z"/><path d="m12126 11965h-10102c-170 0-307-138-307-307s137-307 307-307h10102c169 0 306 138 306 307s-137 307-306 307z"/><path d="m12126 16681h-5051c-170 0-307-137-307-306v-3068c0-169 137-307 307-307h5051c169 0 306 138 306 307v3068c0 169-137 306-306 306z"/><path d="m5666 13614h-3642c-170 0-307-138-307-307s137-307 307-307h3642c170 0 307 138 307 307s-137 307-307 307z"/><path d="m5666 15148h-3642c-170 0-307-138-307-307 0-170 137-307 307-307h3642c170 0 307 137 307 307 0 169-137 307-307 307z"/><path d="m5666 16681h-3642c-170 0-307-137-307-306 0-170 137-307 307-307h3642c170 0 307 137 307 307 0 169-137 306-307 306z"/></g><path d="m14816 13190v-3641h3091v3641z" fill="#ff700d"/></g></svg>