<svg id="Layer_1" enable-background="new 0 0 512 512" viewBox="0 0 512 512" xmlns="http://www.w3.org/2000/svg"><g clip-rule="evenodd" fill-rule="evenodd"><path d="m219.202 288.245c-4.242-5.07-7.93-10.633-11.113-16.422-.94-1.71-3.035-2.49-4.865-1.815l-57.995 21.399-3.599-48.336 44.033-41.466c.906-.853 1.361-2.088 1.236-3.325-.888-8.773-1.363-17.601-1.363-26.42 0-32.617 5.988-68.664 21.374-97.739 9.701-18.333 26.324-39.119 49.112-39.119 22.764 0 39.433 20.796 49.112 39.12 15.358 29.073 21.327 65.135 21.327 97.738 0 8.817-.389 17.654-1.317 26.425-.132 1.246.298 2.46 1.237 3.321l43.986 41.465-3.55 48.336-58.042-21.399c-.454-.167-.902-.247-1.387-.247-1.431 0-2.789.81-3.479 2.063-3.183 5.775-6.858 11.331-11.062 16.416l-.3.363h-73.046zm32.811-19.895c0 2.212 1.8 4.001 4.01 4.001 2.216 0 3.964-1.796 3.964-4.001v-69.66c0-2.203-1.75-4.001-3.964-4.001-2.207 0-4.01 1.792-4.01 4.001zm4.01-93.94c2.77 0 5.515-.393 8.175-1.16 8.939-2.578 16.127-9.085 21.017-16.836 5.752-9.118 8.485-20.041 8.485-30.773 0-10.736-2.733-21.663-8.486-30.785-4.89-7.753-12.08-14.262-21.021-16.839-2.659-.766-5.402-1.159-8.169-1.159-2.814 0-5.603.404-8.304 1.193-8.921 2.606-16.089 9.114-20.966 16.865-5.732 9.11-8.453 20.012-8.453 30.726 0 10.71 2.721 21.607 8.451 30.713 4.876 7.749 12.043 14.255 20.962 16.862 2.702.789 5.493 1.193 8.309 1.193z" fill="#fd4755"/><path d="m274.535 296.601v96.96c0 1.455.79 2.788 2.061 3.495s2.808.675 4.048-.086c6.788-4.167 14.612-6.347 22.577-6.347 12.953 0 25.083 5.748 33.314 15.746.98 1.19 2.549 1.71 4.046 1.341 1.495-.368 2.644-1.558 2.96-3.065 5.796-27.622 30.5-47.613 58.712-47.613 33.081 0 59.997 26.895 59.997 59.979 0 33.09-26.909 59.993-59.997 59.993h-292.506c-33.07 0-59.951-26.931-59.951-59.993 0-33.056 26.889-59.979 59.951-59.979 28.208 0 52.917 19.996 58.712 47.613.317 1.511 1.46 2.695 2.96 3.065 1.496.369 3.066-.151 4.046-1.341 8.232-9.999 20.41-15.746 33.361-15.746 7.942 0 15.761 2.192 22.53 6.347 1.22.749 2.794.793 4.042.089 1.267-.715 2.067-2.038 2.067-3.498v-96.96zm-18.512-211.741c1.777 0 3.544.216 5.269.641 7.557 1.86 13.517 7.444 17.49 13.943 4.752 7.776 6.944 17.134 6.944 26.198 0 9.06-2.19 18.414-6.941 26.186-3.971 6.497-9.929 12.076-17.482 13.938-1.729.426-3.499.643-5.28.643-1.78 0-3.551-.217-5.28-.643-7.553-1.861-13.511-7.441-17.482-13.938-4.751-7.773-6.941-17.127-6.941-26.186 0-9.063 2.192-18.422 6.944-26.198 3.972-6.499 9.933-12.083 17.49-13.943 1.726-.425 3.493-.641 5.269-.641z" fill="#eceff1"/><path d="m260.987 198.69v69.66c0 2.763-2.201 5.001-4.964 5.001s-5.01-2.238-5.01-5.001v-69.66c0-2.758 2.247-5.001 5.01-5.001 2.763.001 4.964 2.243 4.964 5.001zm141.266 277.313h-292.506c-32.495 0-58.951-26.46-58.951-58.993 0-32.519 26.456-58.979 58.951-58.979 27.766 0 52.068 19.689 57.733 46.819.422 1.883 1.826 3.371 3.699 3.83 1.873.464 3.84-.187 5.057-1.676 8.054-9.772 19.947-15.382 32.589-15.382 7.773 0 15.405 2.149 22.007 6.199 1.545.951 3.512.988 5.057.108 1.592-.889 2.576-2.557 2.576-4.368v-95.961h35.071v95.96c0 1.812.983 3.479 2.575 4.368 1.592.88 3.512.843 5.057-.108 6.602-4.05 14.234-6.199 22.054-6.199 12.642 0 24.488 5.609 32.542 15.382 1.217 1.489 3.184 2.14 5.057 1.676 1.873-.459 3.324-1.948 3.699-3.83 5.712-27.13 29.967-46.819 57.733-46.819 32.542 0 58.998 26.46 58.998 58.979 0 32.534-26.455 58.994-58.998 58.994zm-193.287-204.661c3.371 6.101 7.07 11.561 11.003 16.262h72.108c3.886-4.701 7.585-10.16 10.957-16.262.889-1.629 2.622-2.58 4.355-2.58.609 0 1.17.098 1.733.309l56.797 20.939 3.418-46.538-43.64-41.139c-1.171-1.072-1.732-2.603-1.545-4.153.89-8.63 1.311-17.479 1.311-26.319 0-36.831-7.538-71.368-21.211-97.271-13.158-24.887-30.295-38.587-48.228-38.587-17.98 0-35.071 13.701-48.228 38.587-13.719 25.903-21.258 60.44-21.258 97.271 0 8.84.468 17.69 1.358 26.319.141 1.55-.421 3.081-1.545 4.153l-43.686 41.139 3.465 46.538 56.75-20.939c2.293-.848 4.915.112 6.086 2.271zm193.287 76.687c-29.452 0-55.533 18.94-65.085 46.14-9.412-8.058-21.398-12.549-33.947-12.549-6.79 0-13.485 1.311-19.666 3.83v-87.85h10.816c1.452 0 2.81-.618 3.746-1.7 4.121-4.659 7.96-10.02 11.519-15.99l59.044 21.782c.562.206 1.124.309 1.733.309.937 0 1.873-.271 2.716-.801 1.311-.847 2.154-2.271 2.247-3.83l4.12-55.528c.094-1.512-.468-2.983-1.545-4.013l-43.639-41.097c.749-8.18 1.124-16.533 1.124-24.873 0-38.428-7.913-74.627-22.335-101.94-14.983-28.319-35.258-43.921-57.078-43.921-21.866 0-42.094 15.602-57.078 43.921-14.422 27.312-22.382 63.511-22.382 101.94 0 8.339.374 16.692 1.124 24.873l-43.593 41.097c-1.124 1.03-1.686 2.5-1.592 4.013l4.12 55.528c.14 1.559.983 2.983 2.294 3.83 1.311.852 2.95 1.03 4.448.492l58.998-21.782c3.558 5.97 7.445 11.331 11.519 15.99.936 1.081 2.294 1.7 3.746 1.7h10.863v87.85c-6.228-2.519-12.877-3.83-19.666-3.83-12.595 0-24.582 4.49-33.947 12.549-9.599-27.2-35.679-46.14-65.131-46.14-38.021 0-68.971 30.95-68.971 68.98 0 38.04 30.95 68.99 68.971 68.99h292.506c38.021 0 68.971-30.95 68.971-68.99.001-38.029-30.949-68.98-68.97-68.98zm-146.23-182.621c-15.826 0-28.703-17.84-28.703-39.767 0-21.928 12.876-39.781 28.703-39.781s28.703 17.854 28.703 39.781c0 21.928-12.876 39.767-28.703 39.767zm0-89.55c21.305 0 38.676 22.335 38.676 49.783 0 27.439-17.371 49.769-38.676 49.769-21.351 0-38.723-22.33-38.723-49.769.001-27.448 17.372-49.783 38.723-49.783z"/></g></svg>