<svg id="Layer_1" height="512" viewBox="0 0 64 64" width="512" xmlns="http://www.w3.org/2000/svg" data-name="Layer 1"><path d="m36 57h-14a1 1 0 0 1 -.71-.29l-1.7-1.71h-9.59v-2h10a1 1 0 0 1 .71.29l1.7 1.71h13.59z" fill="#91abc6"/><path d="m53 36h-2v-14a1 1 0 0 1 .29-.71l1.71-1.7v-9.59h2v10a1 1 0 0 1 -.29.71l-1.71 1.7z" fill="#91abc6"/><circle cx="10" cy="54" fill="#afafaf" r="4"/><circle cx="54" cy="10" fill="#afafaf" r="4"/><path d="m26 6h-16.75a3.26 3.26 0 0 0 -3.25 3.25v16.75h7v-1a3 3 0 0 1 6 0v1h7v-7h1a3 3 0 0 0 0-6h-1z" fill="#758daf"/><path d="m38 58h16.75a3.26 3.26 0 0 0 3.25-3.25v-16.75h-7v1a3 3 0 0 1 -6 0v-1h-7v7h-1a3 3 0 0 0 0 6h1z" fill="#47b744"/><path d="m46 26v-16.75a3.26 3.26 0 0 0 -3.25-3.25h-16.75v7h1a3 3 0 0 1 0 6h-1v7h7v1a3 3 0 0 0 6 0v-1z" fill="#f95f5f"/><path d="m6 26v16.75a3.26 3.26 0 0 0 3.25 3.25h16.75v-7h-1a3 3 0 0 1 0-6h1v-7h-7v-1a3 3 0 0 0 -6 0v1z" fill="#efaf22"/></svg>