<svg id="Icons" height="512" viewBox="0 0 60 60" width="512" xmlns="http://www.w3.org/2000/svg"><path d="m36 53v2l-.59 2.38c-.24.95-1.1 1.62-2.08 1.62h-6.66c-.98 0-1.84-.67-2.08-1.62l-.59-2.38v-2z" fill="#b4c2d6"/><path d="m38 46v7c0 1.105-.895 2-2 2h-12c-1.105 0-2-.895-2-2v-7c0-.552.448-1 1-1v-1s14 0 14 0v1c.552 0 1 .448 1 1z" fill="#d4ddee"/><path d="m47 17.998c0 3.62-1.13 6.981-3.06 9.741-2.51 3.58-3.94 7.801-3.94 12.171v2.09c0 1.657-1.343 3-3 3h-14c-1.657 0-3-1.343-3-3v-2.09c0-4.37-1.43-8.591-3.94-12.171-1.93-2.76-3.06-6.12-3.06-9.741 0-9.701 8.13-17.512 17.94-16.972 8.31.44 15.21 7.051 15.98 15.331.05.55.08 1.1.08 1.64z" fill="#f6ca4a"/><path d="m22 49h16v2h-16z" fill="#b4c2d6"/><path d="m30.455 19.999c-.459 0-.914-.141-1.301-.415-.655-.466-.991-1.215-.9-2.003l.506-4.391c.002-.023.01-.086-.073-.145-.035-.024-.131-.076-.252-.02-.496.241-1.096.032-1.335-.466-.24-.497-.031-1.096.466-1.335.74-.356 1.612-.283 2.28.19.655.466.991 1.215.9 2.003l-.506 4.391c-.002.023-.01.086.073.145.035.025.13.076.252.02.498-.239 1.097-.031 1.335.466.24.497.031 1.096-.466 1.335-.312.15-.646.225-.979.225z" fill="#fff"/><path d="m30 9.006c-.553 0-1-.441-1-.994v-.012c0-.553.447-1 1-1s1 .447 1 1-.447 1.006-1 1.006z" fill="#fff"/><g fill="#dda34e"><path d="m37 25h-14c-.553 0-1-.447-1-1s.447-1 1-1h14c.553 0 1 .447 1 1s-.447 1-1 1z"/><path d="m37 30h-14c-.553 0-1-.447-1-1s.447-1 1-1h14c.553 0 1 .447 1 1s-.447 1-1 1z"/><path d="m33 35h-9c-.553 0-1-.447-1-1s.447-1 1-1h9c.553 0 1 .447 1 1s-.447 1-1 1z"/></g></svg>