<svg enable-background="new 0 0 512 512" viewBox="0 0 512 512" xmlns="http://www.w3.org/2000/svg"><g id="Insurance_Policy_32"><g><g><path d="m242.082 49.188v46.987h-71.921v-46.987c0-16.033 10.52-29.638 25.036-34.241 3.439-1.113 7.132-1.72 10.925-1.72 9.913 0 18.916 4.046 25.44 10.52 6.524 6.525 10.52 15.477 10.52 25.441z" fill="#ffb30b"/><path d="m220.232 49.188c0 25.946-21.04 46.987-46.986 46.987h-3.085v-46.987c0-16.033 10.52-29.638 25.036-34.241 5.564 1.77 10.52 4.805 14.516 8.8 6.524 6.525 10.519 15.477 10.519 25.441z" fill="#ffd939"/><path d="m355.476 133.349v332.901c0 17.955-14.566 32.521-32.521 32.521h-233.668c-2.225 0-4.4-.202-6.524-.658-1.871-.354-3.641-.91-5.412-1.618-.658-.253-1.264-.506-1.871-.809-1.264-.556-2.428-1.214-3.591-1.973-.506-.303-.961-.607-1.365-.961-1.113-.708-2.124-1.568-3.136-2.478-.455-.405-.91-.86-1.366-1.315-.658-.658-1.264-1.315-1.821-2.023-.658-.809-1.315-1.618-1.871-2.529-.607-.86-1.163-1.719-1.619-2.68-.506-.91-.961-1.871-1.366-2.832-.405-.86-.708-1.72-.961-2.63-.101-.202-.202-.405-.253-.658-.202-.758-.455-1.568-.607-2.377-.051-.203-.101-.455-.152-.708-.101-.455-.152-.91-.202-1.416-.152-.658-.202-1.264-.253-1.922-.101-.961-.152-1.973-.152-2.934v-257.288h22.001v-45.52h-22v-30.094c0-17.955 14.566-32.521 32.521-32.521h233.668c17.955.001 32.521 14.567 32.521 32.522z" fill="#c5dbf0"/><path d="m56.766 163.442v-30.094c0-17.955 14.566-32.521 32.521-32.521h208.531c17.955 0 32.521 14.566 32.521 32.572v99.183c0 140.707-109.247 255.973-247.577 265.532-1.871-.354-3.642-.91-5.412-1.618-.607-.253-1.264-.506-1.871-.809-1.264-.556-2.428-1.214-3.591-1.973-.506-.303-.961-.607-1.366-.961-1.113-.708-2.124-1.568-3.136-2.478-.455-.405-.91-.86-1.366-1.315-.658-.658-1.264-1.315-1.821-2.023-.658-.809-1.315-1.669-1.871-2.529-.607-.86-1.163-1.77-1.618-2.681-.506-.91-.961-1.871-1.366-2.832-.405-.86-.708-1.72-.961-2.63-.101-.202-.202-.405-.253-.658-.253-.759-.455-1.568-.607-2.377-.051-.202-.101-.455-.152-.708-.101-.455-.152-.961-.202-1.416-.152-.658-.202-1.315-.253-1.922-.101-.961-.152-1.973-.152-2.934v-257.288-45.52z" fill="#e5eff8"/><path d="m292.609 90.864v24.834c0 11.329-9.205 20.484-20.484 20.484h-131.957c-11.329 0-20.534-9.155-20.534-20.484v-24.834c0-11.329 9.205-20.484 20.534-20.484h131.957c11.278 0 20.484 9.154 20.484 20.484z" fill="#375a78"/><path d="m270.152 90.864c0 25.036-20.282 45.318-45.317 45.318h-84.667c-11.329 0-20.534-9.155-20.534-20.484v-24.834c0-11.329 9.205-20.484 20.534-20.484h109.5c11.33 0 20.484 9.154 20.484 20.484z" fill="#437097"/><path d="m455.215 279.214c-8.952 134.435-95.541 176.161-99.739 178.64-.961-.607-6.423-3.287-14.313-8.8-25.997-18.208-78.496-66.762-85.375-169.839h11.531c7.991 0 15.275-3.288 20.534-8.598 5.26-5.311 8.497-12.695 8.497-20.787h118.301c0 8.598 3.642 16.286 9.407 21.596 5.159 4.856 12.037 7.789 19.624 7.789h11.533z" fill="#ffb30b"/><path d="m424.06 271.425c-17.095 107.528-62.058 158.763-82.896 177.628-25.997-18.208-78.496-66.762-85.375-169.839h11.531c7.991 0 15.275-3.288 20.534-8.598 5.26-5.311 8.497-12.695 8.497-20.787h118.301c0 8.598 3.642 16.286 9.408 21.596z" fill="#ffd939"/><g><path d="m242.081 75.437c-2.796 0-5.058-2.265-5.058-5.058v-21.191c0-8.271-3.21-16.035-9.039-21.863-5.868-5.823-13.637-9.039-21.861-9.039-17.04 0-30.905 13.862-30.905 30.902v21.192c0 2.793-2.262 5.058-5.058 5.058s-5.058-2.265-5.058-5.058v-21.192c0-22.617 18.404-41.018 41.02-41.018 10.911 0 21.209 4.258 28.998 11.987 7.755 7.75 12.017 18.055 12.017 29.03v21.193c.001 2.793-2.261 5.057-5.056 5.057z" fill="#231f20"/></g><g><path d="m355.475 254.886c-2.796 0-5.058-2.265-5.058-5.058v-116.478c0-15.144-12.318-27.464-27.462-27.464h-30.347c-2.796 0-5.058-2.265-5.058-5.058s2.262-5.058 5.058-5.058h30.347c20.72 0 37.578 16.858 37.578 37.58v116.479c0 2.793-2.262 5.057-5.058 5.057z" fill="#231f20"/></g><g><path d="m322.955 503.83h-233.669c-2.652 0-5.206-.259-7.587-.773-1.946-.366-4.025-.985-6.228-1.867-.741-.282-1.492-.603-2.252-.98-1.21-.526-2.623-1.299-4.095-2.26-.44-.232-1.042-.645-1.64-1.138-1.324-.879-2.455-1.852-3.482-2.778-.504-.449-1.032-.973-1.556-1.497-.805-.808-1.541-1.61-2.223-2.472-.746-.919-1.531-1.909-2.208-3.015-.425-.583-1.21-1.749-1.877-3.159-.44-.771-.978-1.902-1.457-3.03-.385-.815-.741-1.776-1.042-2.801-.173-.385-.336-.84-.454-1.385l-.094-.311c-.198-.714-.4-1.455-.538-2.195l-.143-.672c-.104-.442-.178-.99-.242-1.6-.158-.785-.232-1.531-.291-2.331-.109-.975-.168-2.176-.168-3.314v-257.291c0-2.793 2.262-5.058 5.058-5.058s5.058 2.265 5.058 5.058v257.289c0 .783.04 1.608.123 2.391.044.558.059.924.148 1.316.049.217.089.437.109.657.03.282.044.536.104.79.02.084.168.798.183.887.089.457.222.911.346 1.353l.133.499c.114.249.227.543.291.773.173.632.38 1.227.657 1.823.42.983.79 1.773 1.21 2.524.484.993.894 1.605 1.329 2.225.622.993 1.151 1.623 1.665 2.257.489.617.968 1.129 1.482 1.647.38.378.761.763 1.146 1.106.82.738 1.615 1.43 2.494 1.991.222.143.435.304.632.479.138.121.277.217.464.321 1.24.795 2.168 1.324 3.176 1.766.682.336 1.136.524 1.635.714 1.669.667 3.131 1.106 4.549 1.376 1.813.388 3.65.57 5.586.57h233.669c15.144 0 27.462-12.321 27.462-27.464v-8.397c0-2.793 2.262-5.058 5.058-5.058s5.058 2.265 5.058 5.058v8.397c-.001 20.721-16.859 37.579-37.579 37.579zm-259.965-29.626.025.099c-.005-.027-.01-.062-.025-.099z" fill="#231f20"/></g><g><path d="m56.766 168.499c-2.796 0-5.058-2.265-5.058-5.058v-30.091c0-20.722 16.858-37.58 37.578-37.58h30.347c2.796 0 5.058 2.265 5.058 5.058s-2.262 5.058-5.058 5.058h-30.347c-15.144 0-27.462 12.321-27.462 27.464v30.092c0 2.793-2.262 5.057-5.058 5.057z" fill="#231f20"/></g><g><path d="m272.101 141.25h-131.956c-14.087 0-25.551-11.461-25.551-25.548v-24.84c0-14.087 11.464-25.546 25.551-25.546h131.956c14.087 0 25.551 11.459 25.551 25.546v24.839c0 14.087-11.464 25.549-25.551 25.549zm-131.956-65.818c-8.51 0-15.435 6.922-15.435 15.43v24.839c0 8.51 6.925 15.433 15.435 15.433h131.956c8.51 0 15.435-6.922 15.435-15.433v-24.839c0-8.508-6.925-15.43-15.435-15.43z" fill="#231f20"/></g><g><path d="m147.5 250.303h-39.163c-10.269 0-18.621-8.352-18.621-18.621v-39.153c0-10.266 8.352-18.618 18.621-18.618h39.163c10.269 0 18.626 8.352 18.626 18.618v39.153c-.001 10.268-8.358 18.621-18.626 18.621zm-39.163-66.277c-4.692 0-8.505 3.816-8.505 8.503v39.153c0 4.69 3.813 8.505 8.505 8.505h39.163c4.692 0 8.51-3.816 8.51-8.505v-39.153c0-4.687-3.818-8.503-8.51-8.503z" fill="#231f20"/></g><g><path d="m122.636 225.676c-1.294 0-2.588-.494-3.576-1.482l-6.46-6.458c-1.976-1.973-1.976-5.176 0-7.152s5.176-1.976 7.152 0l2.884 2.882 13.454-13.449c1.976-1.976 5.176-1.976 7.152 0s1.976 5.179 0 7.152l-17.03 17.025c-.988.988-2.282 1.482-3.576 1.482z" fill="#231f20"/></g><g><path d="m317.478 202.79h-122.345c-2.796 0-5.058-2.265-5.058-5.058s2.262-5.058 5.058-5.058h122.344c2.796 0 5.058 2.265 5.058 5.058s-2.262 5.058-5.057 5.058z" fill="#231f20"/></g><g><path d="m297.587 231.536h-102.454c-2.796 0-5.058-2.265-5.058-5.058s2.262-5.058 5.058-5.058h102.454c2.796 0 5.058 2.265 5.058 5.058s-2.262 5.058-5.058 5.058z" fill="#231f20"/></g><g><path d="m147.5 354.236h-39.163c-10.269 0-18.621-8.352-18.621-18.618v-39.153c0-10.266 8.352-18.618 18.621-18.618h39.163c10.269 0 18.626 8.352 18.626 18.618v39.153c-.001 10.266-8.358 18.618-18.626 18.618zm-39.163-66.274c-4.692 0-8.505 3.816-8.505 8.503v39.153c0 4.687 3.813 8.503 8.505 8.503h39.163c4.692 0 8.51-3.816 8.51-8.503v-39.153c0-4.687-3.818-8.503-8.51-8.503z" fill="#231f20"/></g><g><path d="m122.636 329.612c-1.294 0-2.588-.494-3.576-1.482l-6.46-6.458c-1.976-1.973-1.976-5.176 0-7.152s5.176-1.976 7.152 0l2.884 2.882 13.454-13.449c1.976-1.976 5.176-1.976 7.152 0s1.976 5.179 0 7.152l-17.03 17.025c-.988.988-2.282 1.482-3.576 1.482z" fill="#231f20"/></g><g><path d="m258.113 306.728h-62.965c-2.796 0-5.058-2.265-5.058-5.058s2.262-5.058 5.058-5.058h62.965c2.796 0 5.058 2.265 5.058 5.058s-2.262 5.058-5.058 5.058z" fill="#231f20"/></g><g><path d="m263.68 335.457h-68.532c-2.796 0-5.058-2.265-5.058-5.058s2.262-5.058 5.058-5.058h68.532c2.796 0 5.058 2.265 5.058 5.058s-2.263 5.058-5.058 5.058z" fill="#231f20"/></g><g><path d="m147.5 458.172h-39.163c-10.269 0-18.621-8.352-18.621-18.621v-39.153c0-10.266 8.352-18.618 18.621-18.618h39.163c10.269 0 18.626 8.352 18.626 18.618v39.153c-.001 10.269-8.358 18.621-18.626 18.621zm-39.163-66.277c-4.692 0-8.505 3.816-8.505 8.503v39.153c0 4.69 3.813 8.505 8.505 8.505h39.163c4.692 0 8.51-3.816 8.51-8.505v-39.153c0-4.687-3.818-8.503-8.51-8.503z" fill="#231f20"/></g><g><path d="m122.636 433.545c-1.294 0-2.588-.494-3.576-1.482l-6.46-6.458c-1.976-1.973-1.976-5.176 0-7.152s5.176-1.976 7.152 0l2.884 2.882 13.454-13.449c1.976-1.976 5.176-1.976 7.152 0s1.976 5.179 0 7.152l-17.03 17.025c-.988.988-2.282 1.482-3.576 1.482z" fill="#231f20"/></g><g><path d="m297.82 410.666h-102.672c-2.796 0-5.058-2.265-5.058-5.058s2.262-5.058 5.058-5.058h102.672c2.796 0 5.058 2.265 5.058 5.058s-2.263 5.058-5.058 5.058z" fill="#231f20"/></g><g><path d="m297.587 439.405h-102.454c-2.796 0-5.058-2.265-5.058-5.058s2.262-5.058 5.058-5.058h102.454c2.796 0 5.058 2.265 5.058 5.058s-2.262 5.058-5.058 5.058z" fill="#231f20"/></g><g><path d="m355.495 462.906c-.889 0-1.778-.232-2.568-.699l-.672-.368c-21.747-11.782-93.346-59.752-101.535-182.284-.094-1.398.4-2.771 1.353-3.793.958-1.022 2.297-1.603 3.695-1.603h11.558c13.207 0 23.95-10.911 23.95-24.321 0-2.793 2.262-5.058 5.058-5.058h118.334c2.796 0 5.058 2.265 5.058 5.058 0 13.41 10.743 24.321 23.95 24.321h11.558c1.398 0 2.736.58 3.695 1.603.953 1.022 1.447 2.396 1.353 3.793-8.189 122.552-79.793 170.509-101.54 182.289l-.672.366c-.792.464-1.686.696-2.575.696zm-94.275-178.631c9.286 110.599 72.364 155.467 94.28 167.802 21.92-12.333 84.994-57.194 94.28-167.802h-6.105c-17.085 0-31.27-12.778-33.7-29.378h-108.95c-2.43 16.601-16.615 29.378-33.7 29.378z" fill="#231f20"/></g><g><path d="m343.853 367.382c-1.343 0-2.633-.536-3.581-1.489l-18.231-18.3c-1.976-1.978-1.966-5.181.01-7.152 1.981-1.976 5.181-1.966 7.152.015l14.65 14.702 37.948-38.086c1.971-1.976 5.171-1.986 7.152-.015 1.976 1.971 1.986 5.174.01 7.152l-41.529 41.684c-.948.953-2.238 1.489-3.581 1.489z" fill="#231f20"/></g></g></g></g><g id="Layer_1"/></svg>