<svg height="512" viewBox="0 0 64 64" width="512" xmlns="http://www.w3.org/2000/svg"><g id="_13_Contact_Form_Form_website" data-name="13 Contact Form, Form, website"><path d="m56 14v36a1 1 0 0 1 -1 1h-46a5 5 0 0 1 -5-5v-32a1 1 0 0 1 1-1h50a1 1 0 0 1 1 1z" fill="#546e7a"/><path d="m55 13h-1a36.11 36.11 0 0 1 -36 36h-11a4.93 4.93 0 0 1 -2.39-.61 5 5 0 0 0 4.39 2.61h46a1 1 0 0 0 1-1v-36a1 1 0 0 0 -1-1z" fill="#445861"/><path d="m8 22v-4a1 1 0 0 1 1-1h16a1 1 0 0 1 1 1v4a1 1 0 0 1 -1 1h-16a1 1 0 0 1 -1-1zm29 3h-28a1 1 0 0 0 -1 1v4a1 1 0 0 0 1 1h28a1 1 0 0 0 1-1v-4a1 1 0 0 0 -1-1z" fill="#ffca28"/><path d="m25 17h-1a4 4 0 0 1 -4 4h-12v1a1 1 0 0 0 1 1h16a1 1 0 0 0 1-1v-4a1 1 0 0 0 -1-1zm12 8h-1a4 4 0 0 1 -4 4h-24v1a1 1 0 0 0 1 1h28a1 1 0 0 0 1-1v-4a1 1 0 0 0 -1-1z" fill="#ffa000"/><path d="m38 18v4a1 1 0 0 1 -1 1h-8a1 1 0 0 1 -1-1v-4a1 1 0 0 1 1-1h8a1 1 0 0 1 1 1zm-1 15h-8a1 1 0 0 0 -1 1v12a1 1 0 0 0 1 1h8a1 1 0 0 0 1-1v-12a1 1 0 0 0 -1-1z" fill="#ef5350"/><path d="m37 17h-1a4 4 0 0 1 -4 4h-4v1a1 1 0 0 0 1 1h8a1 1 0 0 0 1-1v-4a1 1 0 0 0 -1-1zm0 16h-1v8a4 4 0 0 1 -4 4h-4v1a1 1 0 0 0 1 1h8a1 1 0 0 0 1-1v-12a1 1 0 0 0 -1-1z" fill="#d43030"/><path d="m52 19h-12v-2h12zm0 2h-12v2h12zm0 4h-12v2h12zm-26 8h-18v2h18zm0 4h-18v2h18zm0 4h-18v2h18zm0 4h-18v2h18z" fill="#f2f2f2"/><path d="m59.94 36.35a1 1 0 0 1 -.94.65h-7a1 1 0 0 1 -1-1v-6a1 1 0 0 1 .58-.91 1 1 0 0 1 1.07.15l7 6a1 1 0 0 1 .29 1.11z" fill="#ef5350"/><path d="m56 10v5h-52v-5a5 5 0 0 1 5-5h42a5 5 0 0 1 5 5z" fill="#26a6fe"/><path d="m51 5h-2a5 5 0 0 1 5 5v5h2v-5a5 5 0 0 0 -5-5z" fill="#1976d2"/><path d="m44 11h-6v-2h6zm8-2h-6v2h6z" fill="#f2f2f2"/><path d="m60 36v20a3 3 0 0 1 -3 3h-14a3 3 0 0 1 -3-3v-24a3 3 0 0 1 3-3h9a1 1 0 0 1 1 1v5h6a1 1 0 0 1 1 1z" fill="#26a6fe"/><path d="m59 35h-1v5a17 17 0 0 1 -17 17 3.16 3.16 0 0 1 -.87-.13 3 3 0 0 0 2.87 2.13h14a3 3 0 0 0 3-3v-20a1 1 0 0 0 -1-1z" fill="#1976d2"/><path d="m55 44h-10v-2h10zm0 2h-10v2h10zm0 4h-10v2h10z" fill="#f2f2f2"/></g></svg>