<svg id="Layer_1" viewBox="0 0 512 512" xmlns="http://www.w3.org/2000/svg" xmlns:xlink="http://www.w3.org/1999/xlink" data-name="Layer 1"><linearGradient id="linear-gradient" gradientUnits="userSpaceOnUse" x1="453.2" x2="133.683" y1="16.232" y2="569.652"><stop offset="0" stop-color="#00bef1"/><stop offset=".42" stop-color="#3382c4"/><stop offset=".73" stop-color="#4168b1"/><stop offset="1" stop-color="#4168b1"/></linearGradient><path d="m244.009 498.249h-234v-280.913h21.912v258.973h190.148c12.047 0 21.94 9.893 21.94 21.94zm236.07-280.913v258.973h-190.148c-12.047 0-21.94 9.893-21.94 21.94h234v-280.913zm-372.784 23.953v-.227c.851-23.244 10.205-42.463 25.115-57.657h-88.47v280.913h178.129c11.565 0 21.798 5.839 27.921 14.712v-154.772h-142.696v-82.97zm360.765 223.03v-280.914h-88.441c14.882 15.194 24.236 34.413 25.087 57.657v83.197h-142.696v154.772c6.123-8.873 16.384-14.712 27.921-14.712zm-348.775-152.08h273.43v-70.753c-1.616-44.362-39.685-72.142-86.91-83.339-29.622 21.742-69.987 21.742-99.609 0-47.225 11.197-85.294 38.976-86.91 83.339v70.753zm136.715-149.782c39.912 0 72.283-32.372 72.283-72.312s-32.372-72.283-72.283-72.283-72.284 32.372-72.284 72.283 32.372 72.312 72.284 72.312zm113.698-39.515c-17.433-27.496-14.173-64.346 9.808-88.356 27.78-27.78 72.822-27.78 100.602 0 27.751 27.78 27.751 72.822 0 100.602-24.009 23.981-60.86 27.241-88.356 9.808l-30.132 8.079 8.079-30.132zm55.531-79.001c0 9.042 11.99 8.192 11.99.567 0-9.014-11.99-8.192-11.99-.567zm0 81.893c0 3.317 2.693 6.01 6.009 6.01s5.981-2.693 5.981-6.01v-56.041c0-3.316-2.665-6.01-5.981-6.01s-6.009 2.693-6.009 6.01z" fill="url(#linear-gradient)" fill-rule="evenodd"/></svg>