<svg width="40" height="41" viewBox="0 0 40 41" fill="none" xmlns="http://www.w3.org/2000/svg">
<path d="M2.22198 0.0112516C0.99671 0.0112516 0.00928291 0.951667 0.00928291 2.1205V26.4047C0.00928291 28.5606 1.83118 30.297 4.09193 30.297H5.68767C6.59638 30.297 7.10459 29.19 6.63257 28.4233C6.43263 28.0985 6.08336 27.8883 5.69846 27.8883H4.09193C3.18699 27.8883 2.53671 27.2688 2.53671 26.4047V9.29344C2.53671 7.56597 3.95494 6.16558 5.70441 6.16558H34.3037C36.0532 6.16558 37.4714 7.56597 37.4714 9.29344V26.4047C37.4714 27.2688 36.822 27.8883 35.9162 27.8883H28.5818C28.1025 27.8883 27.6674 28.1527 27.4132 28.5539C27.3529 28.6492 27.291 28.7437 27.2279 28.8372C26.9724 29.2155 27.0064 29.7238 27.3359 30.0413C27.506 30.2053 27.7342 30.297 27.9719 30.297H35.9162C38.1762 30.297 39.9989 28.5614 39.9989 26.4047V2.1205C39.9989 0.951667 39.0114 0.0112516 37.7862 0.0112516H2.22198ZM3.59061 2.04029H19.4511C19.7682 2.04105 20.0709 2.24808 20.1759 2.53303L20.4327 3.22521C20.4328 3.22568 20.4329 3.22619 20.4329 3.2267C20.4329 3.2272 20.433 3.2277 20.4332 3.22817C20.5137 3.44879 20.4768 3.70589 20.336 3.89667C20.1943 4.08842 19.95 4.20683 19.705 4.20759H3.84367C3.52654 4.20683 3.22543 3.9998 3.11972 3.71485L2.86265 3.02043C2.78177 2.79965 2.8186 2.5422 2.95955 2.35121C3.1005 2.16023 3.34475 2.04029 3.59061 2.04029ZM28.7119 2.04029H29.9036C30.2191 2.04105 30.5234 2.24808 30.6275 2.53303L30.8843 3.22521C30.8845 3.22568 30.8846 3.22619 30.8846 3.2267C30.8846 3.2272 30.8847 3.2277 30.8849 3.22817C30.9654 3.44879 30.9293 3.70589 30.7877 3.89667C30.6459 4.08842 30.4017 4.20683 30.1566 4.20759H28.4589C28.213 4.20759 27.9704 4.08842 27.8294 3.89667C27.6886 3.70589 27.6517 3.44879 27.7323 3.22817C27.7324 3.2277 27.7325 3.2272 27.7325 3.2267C27.7325 3.22619 27.7326 3.22568 27.7328 3.22521L27.9896 2.53303C28.0929 2.24808 28.3956 2.04105 28.7119 2.04029ZM34.1648 2.04029H36.3583C36.6746 2.04105 36.9781 2.24808 37.083 2.53303L37.3398 3.22521C37.34 3.22568 37.3401 3.22619 37.3401 3.2267C37.3401 3.2272 37.3402 3.2277 37.3404 3.22817C37.4209 3.44879 37.38 3.70589 37.2392 3.89667C37.0975 4.08842 36.8556 4.20683 36.6097 4.20759H33.9109C33.6651 4.20759 33.4208 4.08842 33.2807 3.89667C33.1391 3.70589 33.1022 3.44879 33.1827 3.22817C33.1829 3.2277 33.183 3.2272 33.183 3.2267C33.183 3.22619 33.1831 3.22568 33.1833 3.2252L33.4409 2.53303C33.5458 2.24808 33.8485 2.04105 34.1648 2.04029Z" fill="white"/>
<path d="M17.0425 11.8585C14.0947 11.8677 11.2685 12.9815 9.17354 14.9586C4.76015 19.1221 4.72091 25.9113 9.08625 30.1214C12.8258 33.7276 18.6339 34.2986 23.0268 31.6772C23.7786 31.2286 24.7604 31.2606 25.3891 31.8664L26.1806 32.6289C26.2461 32.6921 26.2631 32.7897 26.2225 32.8708C26.003 33.3009 26.0983 33.8609 26.4507 34.2001L26.763 34.5003L33.1152 40.6271C33.3875 40.8884 33.8015 41.0145 34.1827 40.9549C34.5643 40.8954 34.9058 40.6507 35.0758 40.319C35.0763 40.3182 35.0769 40.3175 35.0777 40.317C35.0785 40.3165 35.0791 40.3158 35.0795 40.3149L35.7107 39.074C35.931 38.6439 35.8333 38.0847 35.4809 37.7448L29.4674 31.948L28.818 31.32C28.5457 31.0587 28.1317 30.9312 27.7505 30.9908C27.4672 31.0349 27.1545 31.0265 26.9494 30.8287L26.5397 30.4337C26.0243 29.9366 26.0027 29.132 26.4133 28.5474C27.6331 26.8104 28.292 24.773 28.3145 22.6902C28.323 21.9046 27.4026 21.5627 26.801 22.0768C26.5716 22.2729 26.4462 22.5601 26.4365 22.8596C26.3627 25.142 25.3735 27.3181 23.6638 28.9319C19.9872 32.4018 14.0578 32.3712 10.4196 28.8647C10.173 28.6266 9.94106 28.3762 9.72479 28.1146C8.69004 26.8632 9.40831 25.1141 10.8775 24.4033L18.1845 20.8685C18.2366 20.8433 18.299 20.8486 18.3447 20.8838L22.2896 23.8089C22.505 23.9693 22.7661 24.0259 23.0159 23.9923C23.0776 23.9839 23.136 23.9709 23.1952 23.9503C23.1952 23.9503 23.1953 23.9503 23.1952 23.9503C23.1956 23.9499 23.1954 23.9491 23.1949 23.9493C23.1777 23.9542 23.1781 23.9559 23.2105 23.9434C23.2642 23.9235 23.313 23.9044 23.3571 23.88C23.3691 23.8731 23.3923 23.8563 23.4276 23.8326C23.4652 23.8074 23.4956 23.7883 23.5157 23.773C23.5333 23.7577 23.5357 23.7562 23.5253 23.7654L29.7171 18.4676C30.4922 17.8044 31.6928 18.0419 32.1494 18.9487C32.3112 19.2711 32.7893 19.5094 33.1593 19.4529C33.5301 19.3956 33.9057 19.0289 33.9537 18.6745L34.588 14.0365C34.6192 13.8084 34.5449 13.5459 34.3978 13.3626C34.3975 13.3622 34.3974 13.362 34.3974 13.3615C34.3974 13.361 34.3972 13.3602 34.3969 13.3599C34.387 13.3477 34.3793 13.3392 34.3724 13.3316C34.3677 13.3264 34.3626 13.3215 34.3577 13.3165C34.3571 13.3159 34.3564 13.3153 34.3557 13.3146C34.19 13.1366 33.9257 13.0174 33.6774 13.009L28.7787 12.8433C28.4031 12.8303 27.9611 13.1236 27.8409 13.4636C27.7208 13.802 27.889 14.2902 28.1957 14.4957C29.1237 15.12 29.2012 16.4429 28.3523 17.1688L22.9278 21.8074C22.8742 21.8532 22.7941 21.857 22.7372 21.815L19.0329 19.0673C19.0136 19.053 18.9905 19.0439 18.9717 19.0289C18.6866 18.8135 18.2902 18.76 17.9403 18.9296L11.7011 21.9471C9.77335 22.8794 7.50686 21.6033 8.24213 19.612C8.70676 18.3537 9.46698 17.1935 10.4885 16.2291C14.1579 12.7653 20.0737 12.7875 23.7151 16.2787C23.7215 16.2848 23.7287 16.2917 23.7351 16.2978C24.1445 16.6925 24.5143 17.1221 24.8394 17.5809C25.1748 18.0543 25.8584 18.1846 26.3009 17.8065C26.6311 17.5244 26.7143 17.0477 26.4687 16.6912C26.0604 16.0987 25.591 15.5455 25.0669 15.0404C22.9471 12.9961 20.0561 11.8494 17.0425 11.8585Z" fill="white"/>
</svg>
