<svg width="38" height="48" viewBox="0 0 38 48" fill="none" xmlns="http://www.w3.org/2000/svg">
<path d="M34.3487 46.142V47.3966H3.69402V46.142H34.3487ZM36.1897 44.2601V3.73753C36.1897 2.69822 35.3654 1.85569 34.3487 1.85561H3.69402C2.67728 1.85561 1.85305 2.69818 1.85305 3.73753V44.2601C1.85321 45.2993 2.67738 46.142 3.69402 46.142V47.3966L3.53641 47.3923C1.96739 47.3112 0.709475 46.0251 0.629932 44.4212L0.625738 44.2601V3.73753C0.625738 2.00527 1.99946 0.600997 3.69402 0.600997H34.3487C36.0432 0.601078 37.417 2.00532 37.417 3.73753V44.2601L37.4128 44.4212C37.3306 46.0784 35.9902 47.3965 34.3487 47.3966V46.142C35.3653 46.1419 36.1895 45.2993 36.1897 44.2601Z" fill="white"/>
<path d="M35.9415 4.05789C35.9397 3.93149 35.9284 3.80765 35.9049 3.68604C35.881 3.5619 35.8448 3.44037 35.7965 3.3197C35.7484 3.19985 35.6908 3.08727 35.6221 2.98032C35.5533 2.87334 35.4764 2.7766 35.3908 2.68872L35.3854 2.68321C35.3007 2.59431 35.2074 2.51461 35.1049 2.44368L35.1031 2.44245C35.0023 2.37201 34.895 2.31255 34.7849 2.26602L34.7807 2.26419C34.6686 2.2158 34.553 2.17967 34.4319 2.15453L34.4307 2.15392C34.3097 2.12861 34.1897 2.11595 34.07 2.11594H3.94204L3.75626 2.12635C3.69514 2.13277 3.63465 2.14209 3.57468 2.15453L3.57049 2.15514C3.4558 2.17816 3.33979 2.21477 3.22531 2.26419C3.11311 2.31263 3.00722 2.37024 2.90649 2.43939C2.79696 2.51706 2.70235 2.59743 2.62064 2.68321C2.53069 2.77764 2.45146 2.87777 2.38333 2.98277C2.31424 3.09262 2.25631 3.20451 2.21014 3.3197C2.16207 3.43963 2.12522 3.56298 2.10107 3.68727C2.07635 3.8145 2.06391 3.94129 2.06391 4.06769V43.9311C2.06391 44.0592 2.07613 44.1865 2.10047 44.3127C2.12463 44.4366 2.16102 44.5595 2.20894 44.6791C2.25673 44.7983 2.31391 44.9102 2.38213 45.0166C2.45233 45.1228 2.52963 45.2202 2.61465 45.3101L2.75488 45.4418C2.8023 45.4823 2.85077 45.5203 2.9005 45.5551C2.95139 45.59 3.00378 45.6227 3.05751 45.6525L3.22411 45.7346L3.22591 45.7352C3.2802 45.7589 3.33644 45.7801 3.3943 45.7983L3.57349 45.8442L3.57408 45.8449C3.69182 45.8695 3.81218 45.8816 3.93545 45.8816H34.0682C34.1898 45.8816 34.3107 45.8692 34.4307 45.8442C34.5518 45.8191 34.6674 45.783 34.7795 45.7346C34.8951 45.6847 35.0021 45.6253 35.1001 45.5569C35.2041 45.4839 35.2989 45.4026 35.3872 45.3125C35.4762 45.2187 35.5557 45.1202 35.6233 45.016C35.6924 44.9062 35.7503 44.7943 35.7965 44.6791C35.8432 44.5625 35.8788 44.4408 35.9049 44.3115C35.9291 44.1856 35.9415 44.0588 35.9415 43.9311V4.05789ZM0.432089 4.66682C0.464513 4.67712 0.498284 4.68357 0.532767 4.68826C0.497629 4.68349 0.463277 4.67678 0.430291 4.66621L0.432089 4.66682ZM0.614269 3.44039C0.638786 3.44039 0.663014 3.44182 0.686781 3.44467C0.683783 3.44431 0.680803 3.44377 0.677792 3.44345L0.614269 3.44039ZM38 43.9311C38 44.0622 37.9929 44.1922 37.9808 44.3219L37.9814 44.3225C37.9698 44.4623 37.948 44.5947 37.9245 44.7177L37.9251 44.7183C37.9006 44.8521 37.8683 44.9839 37.8304 45.1116C37.7921 45.2408 37.7485 45.3636 37.7022 45.4816L37.701 45.4846C37.6513 45.6094 37.5963 45.7282 37.5386 45.8418L37.5356 45.8479C37.474 45.9659 37.408 46.077 37.3396 46.1842C37.2681 46.2963 37.1915 46.4043 37.1083 46.5089C37.028 46.6099 36.9429 46.7078 36.8506 46.8036C36.7583 46.8994 36.6639 46.9879 36.5665 47.0713C36.4635 47.1595 36.3581 47.2385 36.2561 47.3096C36.1494 47.384 36.0394 47.4526 35.9277 47.5154L35.9217 47.5185C35.8125 47.5783 35.6971 47.6354 35.5741 47.6876L35.5747 47.6882C35.4539 47.74 35.3325 47.7843 35.2134 47.8223C35.0897 47.8618 34.964 47.894 34.837 47.9204C34.7103 47.947 34.5814 47.9673 34.4535 47.9804C34.3252 47.9935 34.1967 48 34.067 48H3.93425C3.80442 48 3.67553 47.9936 3.54712 47.9804C3.42069 47.9673 3.29181 47.9473 3.16478 47.921H3.16358C3.03851 47.8947 2.91296 47.8619 2.78904 47.8223C2.66188 47.7831 2.54243 47.7367 2.43067 47.6894L2.42767 47.6882C2.30682 47.6363 2.19173 47.5786 2.08189 47.5185L2.0765 47.5154C1.96241 47.4513 1.85465 47.3832 1.75109 47.312C1.64278 47.2377 1.53866 47.1578 1.43767 47.0713C1.34017 46.9878 1.24542 46.8995 1.15302 46.8036C1.0607 46.7078 0.975646 46.6099 0.895328 46.5089C0.814733 46.4076 0.736385 46.2996 0.66281 46.1842L0.661611 46.1824C0.593888 46.0754 0.528952 45.9634 0.468645 45.8479C0.407283 45.7304 0.351224 45.6096 0.301447 45.4846L0.29905 45.4779C0.254394 45.3621 0.21102 45.2391 0.173203 45.1116C0.135623 44.9848 0.10404 44.8562 0.0785173 44.7238C0.0534098 44.5935 0.0342261 44.4627 0.0215863 44.3299L0.0221855 44.3293C0.00813904 44.1939 0.00121094 44.0614 0.00121094 43.9311V4.09158C0.000802532 4.08082 -0.000117157 4.07001 1.23914e-05 4.05912L0.00600513 3.86553C0.00928777 3.80047 0.014101 3.73494 0.0203877 3.66889C0.0330228 3.53614 0.0516232 3.40524 0.0767195 3.27498C0.101768 3.14502 0.133537 3.019 0.170206 2.89456C0.207834 2.76214 0.252365 2.63435 0.300249 2.51413L0.301447 2.51045C0.349791 2.39131 0.403406 2.27118 0.466847 2.14963C0.528423 2.03166 0.594411 1.92057 0.66281 1.81331C0.734284 1.70123 0.810887 1.59328 0.89413 1.48863L0.897126 1.48495C0.972819 1.3913 1.05862 1.28962 1.15541 1.1909C1.24661 1.09653 1.34031 1.00985 1.43647 0.927483C1.48688 0.884306 1.5378 0.842489 1.58989 0.802512L1.74929 0.686729C1.85318 0.614487 1.96221 0.547088 2.0747 0.485183C2.18843 0.421252 2.30539 0.362534 2.42647 0.31059L2.42947 0.309365C2.54335 0.261168 2.66518 0.214326 2.79503 0.174592C2.91395 0.138203 3.03694 0.105974 3.16358 0.0796386C3.29039 0.0529938 3.4192 0.0327204 3.54712 0.0196033C3.67554 0.00644114 3.80444 0 3.93425 0H34.067C34.1967 0 34.3252 0.00645992 34.4535 0.0196033C34.5824 0.0328166 34.71 0.052788 34.8364 0.079026L34.8358 0.0796386C34.9655 0.105186 35.0917 0.137573 35.2134 0.17643L35.2128 0.177043C35.3401 0.21634 35.4598 0.261987 35.5717 0.309365L35.5765 0.311203L35.5807 0.313041C35.6928 0.362647 35.8085 0.418577 35.9259 0.48457L35.9253 0.485183C36.037 0.547341 36.1464 0.61466 36.2513 0.686729C36.3579 0.759918 36.4605 0.838296 36.5599 0.923195C36.6635 1.01023 36.7612 1.1037 36.8494 1.19519C36.939 1.28821 37.0226 1.38462 37.1017 1.48373C37.1888 1.59114 37.2669 1.70119 37.3384 1.81331C37.4068 1.92052 37.4722 2.03172 37.5338 2.14963L37.5368 2.15575C37.5645 2.21022 37.5928 2.26765 37.6207 2.3279L37.7022 2.51719L37.7034 2.52087C37.748 2.63673 37.7914 2.75966 37.8292 2.8872C37.8666 3.0134 37.8978 3.14133 37.9233 3.27314C37.9488 3.40394 37.9683 3.53694 37.9808 3.66889C37.9934 3.80124 38 3.93392 38 4.06769V43.9311Z" fill="white"/>
<path d="M16.1978 42.0154H5.44424C5.38954 42.0154 5.33618 42.0264 5.28549 42.05C5.2348 42.0735 5.18944 42.1067 5.15075 42.151C5.11206 42.1953 5.08138 42.2452 5.06004 42.3019C5.03869 42.3587 5.02802 42.4182 5.02802 42.4805C5.02802 42.5428 5.03869 42.6023 5.06004 42.6591C5.08138 42.7159 5.11206 42.7671 5.15075 42.8114C5.18944 42.8557 5.2348 42.8889 5.28549 42.9124C5.33618 42.9374 5.38954 42.9484 5.44424 42.9484H16.1978C16.2525 42.9484 16.3059 42.9374 16.3566 42.9124C16.4073 42.8889 16.4526 42.8557 16.4913 42.8114C16.53 42.7671 16.5607 42.7172 16.5807 42.6591C16.602 42.6023 16.6127 42.5428 16.6127 42.4805C16.6127 42.4182 16.602 42.3587 16.5807 42.3019C16.5593 42.2452 16.53 42.194 16.4913 42.151C16.4526 42.1081 16.4073 42.0735 16.3566 42.05C16.3059 42.0264 16.2525 42.0154 16.1978 42.0154Z" fill="#4285F4"/>
<path d="M16.6127 42.4805C16.6127 42.5428 16.602 42.6023 16.5807 42.6591C16.5607 42.7172 16.53 42.7671 16.4913 42.8114L16.4287 42.87C16.4063 42.8867 16.3818 42.9007 16.3566 42.9124C16.3059 42.9374 16.2525 42.9484 16.1978 42.9484H5.44424L5.36362 42.9398C5.33705 42.934 5.31088 42.9249 5.28549 42.9124C5.26023 42.9007 5.23624 42.8867 5.2138 42.87L5.15075 42.8114C5.13145 42.7893 5.11389 42.7655 5.09874 42.7401L5.06004 42.6591C5.03869 42.6023 5.02802 42.5428 5.02802 42.4805C5.02802 42.4182 5.03869 42.3587 5.06004 42.3019C5.08138 42.2452 5.11206 42.1953 5.15075 42.151C5.18944 42.1067 5.2348 42.0735 5.28549 42.05C5.31081 42.0382 5.33713 42.0296 5.36362 42.0239L5.44424 42.0154H16.1978C16.2525 42.0154 16.3059 42.0264 16.3566 42.05C16.4073 42.0735 16.4526 42.1081 16.4913 42.151C16.53 42.194 16.5593 42.2452 16.5807 42.3019C16.602 42.3587 16.6127 42.4182 16.6127 42.4805Z" fill="white"/>
<path d="M30.9468 35.4009C31.5765 34.6049 32.1208 33.3673 31.7512 32.2764C31.6845 32.1006 31.6032 31.9317 31.5044 31.7725C31.4057 31.6133 31.295 31.4652 31.1683 31.3295C31.0429 31.1938 30.9055 31.072 30.7574 30.964C30.6093 30.8561 30.4519 30.7647 30.2865 30.6899C30.1424 30.6166 29.9903 30.5778 29.8289 30.5736C29.6675 30.5695 29.5154 30.6 29.3673 30.6664C28.8443 30.9446 28.4405 31.8391 29.2602 35.6443C29.2958 35.8094 29.1991 35.9859 29.0352 35.9629C28.8786 35.9355 28.7593 35.8194 28.6416 35.6655C28.5519 35.5483 28.4836 35.4152 28.3953 35.2969C28.3781 35.2738 28.3601 35.2513 28.3415 35.2292C28.2748 35.1517 28.2014 35.0825 28.1187 35.023C28.036 34.9634 27.9493 34.915 27.8559 34.8776C27.7625 34.8402 27.6678 34.8153 27.5677 34.8015C26.9674 34.7793 26.5699 35.3386 26.2484 35.7871C26.055 36.0571 25.8188 36.4059 25.6614 36.3769C25.4106 36.3436 25.1598 35.5587 25.0251 35.1365C24.8277 34.5177 24.6702 34.065 24.31 34.0941C23.8925 34.1176 23.8445 34.6437 23.7724 35.4397C23.7164 36.0446 23.627 37.0566 23.3109 37.1992C23.0307 37.3238 22.2623 36.9818 21.3312 36.082C21.2549 36.008 21.1799 35.9328 21.1062 35.8564C20.7036 35.4389 20.6825 34.7963 20.935 34.2699C21.0764 33.9764 21.2018 33.676 21.3112 33.3673C21.4205 33.0586 21.5153 32.7457 21.594 32.4273C21.6727 32.1089 21.734 31.7863 21.7794 31.461C21.8248 31.1357 21.8528 30.809 21.8648 30.4795C21.8768 30.15 21.8714 29.8219 21.8501 29.4939C21.8288 29.1658 21.7901 28.8391 21.7354 28.5151C21.6807 28.1912 21.6086 27.8714 21.5206 27.5558C21.2992 26.9328 20.9923 26.5535 20.6348 26.458C19.721 26.2185 18.6231 27.8036 18.2362 29.0509C17.8325 30.3535 18.0357 31.7707 18.5841 33.0944C19.1204 34.3891 19.2035 35.9884 18.0477 36.7506C17.9846 36.7922 17.9207 36.8328 17.856 36.8725C17.8227 36.8918 17.7933 36.9181 17.7707 36.95C17.748 36.9818 17.7306 37.0164 17.72 37.0552C17.7106 37.094 17.708 37.1341 17.7133 37.1729C17.7186 37.2116 17.7306 37.2504 17.7506 37.285C17.7707 37.3196 17.7947 37.3487 17.8267 37.3736C17.8574 37.3971 17.8907 37.4137 17.9281 37.4234C17.9654 37.4331 18.0028 37.4345 18.0401 37.4276C18.0775 37.4207 18.1135 37.4082 18.1455 37.3861C18.5562 37.1347 18.9376 36.8467 19.2895 36.5221C19.7543 36.0934 20.4925 36.0836 20.9483 36.5222C21.3458 36.9043 22.6999 38.1225 23.5336 37.7488C24.158 37.4663 24.2554 36.4198 24.3381 35.4964C24.3425 35.4472 24.3471 35.3953 24.3519 35.3421C24.3593 35.2615 24.4618 35.2505 24.4861 35.3275C24.7196 36.0612 24.9851 36.8932 25.592 36.9707C26.071 37.0344 26.3898 36.5831 26.7006 36.1484C26.9674 35.7747 27.2276 35.3884 27.5464 35.4009C27.7385 35.4078 27.8639 35.5726 28.0533 35.8425C28.1494 36.0197 28.2734 36.1692 28.4282 36.2924C28.5816 36.4156 28.7524 36.5028 28.9405 36.5527C29.2204 36.5996 29.5109 36.7557 29.5805 37.0368C29.8622 38.175 30.2306 39.5165 30.704 41.1017C30.7227 41.164 30.7574 41.2138 30.8068 41.2526C30.8561 41.2913 30.9135 41.3107 30.9748 41.3107C31.0042 41.3107 31.0322 41.3065 31.0602 41.2969C31.0962 41.2844 31.1283 41.2664 31.1576 41.2401C31.1856 41.2152 31.2096 41.1847 31.227 41.1487C31.2443 41.1127 31.255 41.0767 31.2577 41.0366C31.2603 40.9978 31.2577 40.9591 31.2456 40.9217C30.8627 39.6394 30.5523 38.5261 30.3027 37.5591C30.1058 36.7966 30.4606 36.0207 30.9428 35.405L30.9468 35.4009ZM20.1042 34.6298C20.1042 34.6301 20.1035 34.6306 20.1033 34.6303C18.9724 33.0122 18.2417 30.972 18.7818 29.2377C19.1434 28.0763 20.0172 27.0311 20.4427 27.0311C20.4627 27.0311 20.4814 27.0339 20.5001 27.038C20.6255 27.0712 20.8202 27.2803 20.9937 27.7648C21.1471 28.3379 21.2445 28.9221 21.2845 29.5174C21.3245 30.1113 21.3058 30.7038 21.2298 31.2949C21.1537 31.8846 21.0203 32.4619 20.8309 33.0226C20.6416 33.5843 20.4003 34.1198 20.107 34.629C20.1067 34.6295 20.1062 34.6298 20.1056 34.6298H20.1042C20.1042 34.6296 20.104 34.6298 20.1042 34.6298ZM30.5093 35.0174C30.2396 35.3633 29.744 35.1804 29.6607 34.7464C29.0995 31.8235 29.4508 31.2928 29.6235 31.1994C29.6675 31.1772 29.7142 31.1675 29.7622 31.1689C29.8716 31.1731 29.9757 31.1994 30.0757 31.2451C30.3345 31.3641 30.5626 31.5302 30.7601 31.7434C30.9575 31.9566 31.1082 32.2017 31.215 32.4771C31.5044 33.3313 31.0162 34.3792 30.5093 35.0174Z" fill="#34A853"/>
<path d="M18.2362 29.0509C18.6231 27.8036 19.721 26.2185 20.6348 26.458C20.9923 26.5535 21.2992 26.9328 21.5206 27.5558C21.6086 27.8714 21.6807 28.1912 21.7354 28.5151C21.7901 28.8391 21.8288 29.1658 21.8501 29.4939C21.8714 29.8219 21.8768 30.15 21.8648 30.4795C21.8528 30.809 21.8248 31.1357 21.7794 31.461C21.734 31.7863 21.6727 32.1089 21.594 32.4273C21.5153 32.7457 21.4205 33.0586 21.3112 33.3673C21.2018 33.676 21.0764 33.9764 20.935 34.2699C20.6825 34.7963 20.7036 35.4389 21.1062 35.8564C21.1799 35.9328 21.2549 36.008 21.3312 36.082C22.2623 36.9818 23.0307 37.3238 23.3109 37.1992C23.627 37.0566 23.7164 36.0446 23.7724 35.4397C23.8445 34.6437 23.8925 34.1176 24.31 34.0941C24.6702 34.065 24.8277 34.5177 25.0251 35.1365C25.1598 35.5587 25.4106 36.3436 25.6614 36.3769C25.8188 36.4059 26.055 36.0571 26.2484 35.7871C26.5699 35.3386 26.9674 34.7793 27.5677 34.8015C27.6678 34.8153 27.7625 34.8402 27.8559 34.8776C27.9493 34.915 28.036 34.9634 28.1187 35.023C28.2014 35.0825 28.2748 35.1517 28.3415 35.2292C28.3601 35.2513 28.3781 35.2738 28.3953 35.2969C28.4836 35.4152 28.5519 35.5483 28.6416 35.6655C28.7593 35.8194 28.8786 35.9355 29.0352 35.9629C29.1991 35.9859 29.2958 35.8094 29.2602 35.6443C28.4405 31.8391 28.8443 30.9446 29.3673 30.6664C29.5154 30.6 29.6675 30.5695 29.8289 30.5736C29.9903 30.5778 30.1424 30.6166 30.2865 30.6899C30.4519 30.7647 30.6093 30.8561 30.7574 30.964C30.9055 31.072 31.0429 31.1938 31.1683 31.3295C31.295 31.4652 31.4057 31.6133 31.5044 31.7725C31.6032 31.9317 31.6845 32.1006 31.7512 32.2764C32.1208 33.3673 31.5765 34.6049 30.9468 35.4009L30.9428 35.405C30.4606 36.0207 30.1058 36.7966 30.3027 37.5591C30.5404 38.4799 30.8337 39.5335 31.1918 40.7393L30.9905 41.007L31.2456 40.9217L30.9965 40.999L31.1918 40.7393C31.2098 40.7996 31.2274 40.8606 31.2456 40.9217C31.2577 40.9591 31.2603 40.9978 31.2577 41.0366C31.255 41.0767 31.2443 41.1127 31.227 41.1487L31.196 41.1987C31.1844 41.2139 31.1715 41.2277 31.1576 41.2401C31.1283 41.2664 31.0962 41.2844 31.0602 41.2969C31.0322 41.3065 31.0042 41.3107 30.9748 41.3107L30.9294 41.3072C30.8999 41.3023 30.8719 41.2922 30.8455 41.2778L30.8068 41.2526C30.7578 41.2141 30.7228 41.1648 30.704 41.1032L30.704 41.1017C30.2306 39.5165 29.8622 38.175 29.5805 37.0368C29.5109 36.7557 29.2204 36.5996 28.9405 36.5527C28.7524 36.5028 28.5816 36.4156 28.4282 36.2924C28.2734 36.1692 28.1494 36.0197 28.0533 35.8425C27.8639 35.5726 27.7385 35.4078 27.5464 35.4009C27.2276 35.3884 26.9674 35.7747 26.7006 36.1484C26.3898 36.5831 26.071 37.0344 25.592 36.9707C24.9851 36.8932 24.7196 36.0612 24.4861 35.3275C24.4618 35.2505 24.3593 35.2615 24.3519 35.3421C24.3471 35.3953 24.3425 35.4472 24.3381 35.4964C24.2554 36.4198 24.158 37.4663 23.5336 37.7488C22.6999 38.1225 21.3458 36.9043 20.9483 36.5222C20.4925 36.0836 19.7543 36.0934 19.2895 36.5221C18.9376 36.8467 18.5562 37.1347 18.1455 37.3861C18.1135 37.4082 18.0775 37.4207 18.0401 37.4276L17.9838 37.4318L17.9281 37.4234C17.9094 37.4186 17.8916 37.412 17.8748 37.4036L17.8267 37.3736C17.8108 37.3612 17.7967 37.3478 17.7843 37.3332L17.7506 37.285C17.7407 37.2677 17.7329 37.2491 17.7268 37.2303L17.7133 37.1729C17.708 37.1341 17.7106 37.094 17.72 37.0552C17.7306 37.0164 17.748 36.9818 17.7707 36.95C17.7914 36.9209 17.818 36.8968 17.8478 36.878L17.856 36.8725C17.882 36.8565 17.9072 36.8391 17.9329 36.8229L18.0477 36.7506C19.2035 35.9884 19.1204 34.3891 18.5841 33.0944C18.0357 31.7707 17.8325 30.3535 18.2362 29.0509ZM30.9905 41.007L30.9965 40.999L31.2456 40.9217L30.9905 41.007ZM29.7622 31.1689C29.7142 31.1675 29.6675 31.1772 29.6235 31.1994C29.4508 31.2928 29.0995 31.8235 29.6607 34.7464C29.744 35.1804 30.2396 35.3633 30.5093 35.0174C31.0162 34.3792 31.5044 33.3313 31.215 32.4771C31.1082 32.2017 30.9575 31.9566 30.7601 31.7434C30.5626 31.5302 30.3345 31.3641 30.0757 31.2451C29.9757 31.1994 29.8716 31.1731 29.7622 31.1689ZM20.4427 27.0311C20.0172 27.0311 19.1434 28.0763 18.7818 29.2377C18.2417 30.972 18.9724 33.0122 20.1033 34.6303C20.1035 34.6306 20.1042 34.6301 20.1042 34.6298H20.1056C20.1062 34.6298 20.1067 34.6295 20.107 34.629C20.4003 34.1198 20.6416 33.5843 20.8309 33.0226C21.0203 32.4619 21.1537 31.8846 21.2298 31.2949C21.3058 30.7038 21.3245 30.1113 21.2845 29.5174C21.2445 28.9221 21.1471 28.3379 20.9937 27.7648C20.8202 27.2803 20.6255 27.0712 20.5001 27.038C20.4814 27.0339 20.4627 27.0311 20.4427 27.0311Z" fill="white"/>
<path d="M9.07546 42.0866C9.07546 42.0862 9.07516 42.0859 9.07478 42.0859H7.27186C6.27575 42.0859 5.46825 41.2605 5.46825 40.2422V38.9864C5.46825 38.9296 5.45758 38.8742 5.43624 38.8216C5.41489 38.769 5.38554 38.7219 5.34686 38.6818C5.30683 38.6417 5.26281 38.6098 5.21212 38.5877C5.16143 38.5655 5.10807 38.5544 5.05337 38.5544C4.99867 38.5544 4.94531 38.5655 4.89462 38.5877C4.84393 38.6098 4.79857 38.6417 4.75988 38.6818C4.7212 38.7219 4.69052 38.769 4.6705 38.8216C4.64916 38.8756 4.63849 38.9296 4.63849 38.9864V42.5178C4.63849 42.5746 4.64916 42.63 4.6705 42.6826C4.69185 42.7352 4.7212 42.7823 4.75988 42.8224C4.79857 42.8625 4.84393 42.8944 4.89462 42.9152C4.94531 42.9373 4.99867 42.9484 5.05337 42.9484H9.07546C9.13015 42.9484 9.18351 42.9373 9.23421 42.9152C9.2849 42.893 9.33026 42.8625 9.36894 42.8224C9.40763 42.7823 9.43831 42.7352 9.45832 42.6826C9.47967 42.63 9.49034 42.5746 9.49034 42.5178C9.49034 42.4611 9.47967 42.4057 9.45832 42.3531C9.43698 42.3005 9.40763 42.2534 9.36894 42.2133C9.32892 42.1731 9.2849 42.1413 9.23421 42.1205C9.18372 42.0999 9.13059 42.0874 9.07613 42.0873C9.07576 42.0873 9.07546 42.087 9.07546 42.0866Z" fill="#4285F4"/>
<path d="M9.07613 42.0873C9.13059 42.0874 9.18372 42.0999 9.23421 42.1205C9.2849 42.1413 9.32892 42.1731 9.36894 42.2133C9.40763 42.2534 9.43698 42.3005 9.45832 42.3531C9.47967 42.4057 9.49034 42.4611 9.49034 42.5178L9.48242 42.6019C9.47709 42.6294 9.46898 42.6563 9.45832 42.6826C9.43831 42.7352 9.40763 42.7823 9.36894 42.8224L9.30624 42.8758C9.28377 42.8911 9.25949 42.9041 9.23421 42.9152L9.15642 42.9401C9.1299 42.9456 9.10281 42.9484 9.07546 42.9484H5.05337L4.97228 42.9401C4.94584 42.9345 4.9199 42.9262 4.89462 42.9152C4.86925 42.9047 4.84499 42.8914 4.82246 42.8758L4.75988 42.8224C4.74048 42.8023 4.72348 42.7803 4.7086 42.7569L4.6705 42.6826C4.65984 42.6563 4.65161 42.6294 4.64628 42.6019L4.63849 42.5178V38.9864C4.63849 38.9296 4.64916 38.8756 4.6705 38.8216C4.69052 38.769 4.7212 38.7219 4.75988 38.6818C4.79857 38.6417 4.84393 38.6098 4.89462 38.5877C4.94531 38.5655 4.99867 38.5544 5.05337 38.5544C5.10807 38.5544 5.16143 38.5655 5.21212 38.5877C5.26281 38.6098 5.30683 38.6417 5.34686 38.6818C5.38554 38.7219 5.41489 38.769 5.43624 38.8216C5.45758 38.8742 5.46825 38.9296 5.46825 38.9864V40.2422C5.46825 41.2605 6.27575 42.0859 7.27186 42.0859H9.07478L9.07613 42.0873Z" fill="white"/>
<path d="M29.4793 5.0884C29.4793 5.08878 29.4796 5.08909 29.48 5.08909H31.2829C32.2791 5.08909 33.0866 5.91455 33.0866 6.93281V8.18865C33.0866 8.24541 33.0972 8.30079 33.1186 8.35339C33.1399 8.406 33.1693 8.45307 33.2079 8.49321C33.248 8.53336 33.292 8.5652 33.3427 8.58735C33.3934 8.6095 33.4467 8.62057 33.5014 8.62057C33.5561 8.62057 33.6095 8.6095 33.6602 8.58735C33.7109 8.5652 33.7562 8.53336 33.7949 8.49321C33.8336 8.45307 33.8643 8.406 33.8843 8.35339C33.9056 8.2994 33.9163 8.24541 33.9163 8.18865V4.65717C33.9163 4.60041 33.9056 4.54504 33.8843 4.49243C33.863 4.43983 33.8336 4.39276 33.7949 4.35261C33.7562 4.31246 33.7109 4.28062 33.6602 4.25986C33.6095 4.23771 33.5561 4.22663 33.5014 4.22663H29.4793C29.4247 4.22663 29.3713 4.23771 29.3206 4.25986C29.2699 4.28201 29.2245 4.31246 29.1859 4.35261C29.1472 4.39276 29.1165 4.43983 29.0965 4.49243C29.0751 4.54504 29.0645 4.60041 29.0645 4.65717C29.0645 4.71393 29.0751 4.7693 29.0965 4.82191C29.1178 4.87451 29.1472 4.92158 29.1859 4.96173C29.2259 5.00187 29.2699 5.03371 29.3206 5.05448C29.3711 5.07516 29.4242 5.0876 29.4787 5.0877C29.479 5.0877 29.4793 5.08801 29.4793 5.0884Z" fill="#4285F4"/>
<path d="M33.4865 8.18896L33.0868 8.02356V7.77974L33.4931 8.18896H33.4865ZM33.9163 8.18865L33.9084 8.27227C33.9031 8.29946 33.8949 8.32655 33.8843 8.35339C33.8643 8.406 33.8336 8.45307 33.7949 8.49321L33.7322 8.54733C33.7098 8.56304 33.6855 8.57629 33.6602 8.58735L33.5824 8.61227C33.5559 8.61781 33.5288 8.62057 33.5014 8.62057L33.4206 8.61227C33.3941 8.60673 33.368 8.59843 33.3427 8.58735C33.3174 8.57631 33.2936 8.56301 33.2714 8.54733L33.2079 8.49321C33.1693 8.45307 33.1399 8.406 33.1186 8.35339C33.108 8.32726 33.0999 8.30022 33.0946 8.27289L33.0866 8.18865L33.0868 8.02356L33.4865 8.18896H33.4931L33.0868 7.77974L33.0866 6.93281C33.0866 5.91455 32.2791 5.08909 31.2829 5.08909H29.48L29.4787 5.0877C29.4242 5.0876 29.3711 5.07516 29.3206 5.05448C29.2954 5.04411 29.2713 5.03118 29.249 5.01567L29.1859 4.96173C29.1665 4.94159 29.1495 4.91966 29.1346 4.89621L29.0965 4.82191C29.0751 4.7693 29.0645 4.71393 29.0645 4.65717C29.0645 4.60041 29.0751 4.54504 29.0965 4.49243C29.1165 4.43983 29.1472 4.39276 29.1859 4.35261C29.2245 4.31246 29.2699 4.28201 29.3206 4.25986C29.3713 4.23771 29.4247 4.22663 29.4793 4.22663H33.5014C33.5561 4.22663 33.6095 4.23771 33.6602 4.25986C33.7109 4.28062 33.7562 4.31246 33.7949 4.35261C33.8336 4.39276 33.863 4.43983 33.8843 4.49243C33.9056 4.54504 33.9163 4.60041 33.9163 4.65717V8.18865Z" fill="white"/>
<path d="M14.9411 10.2416H8.87662C8.82192 10.2416 8.76856 10.2527 8.71787 10.2749C8.66717 10.297 8.62182 10.3275 8.58313 10.369C8.54311 10.4091 8.51376 10.4562 8.49242 10.5088C8.47107 10.5614 8.4604 10.6168 8.4604 10.6736C8.4604 10.7303 8.47107 10.7857 8.49242 10.8383C8.51376 10.8909 8.54311 10.938 8.58313 10.9781C8.62182 11.0183 8.66717 11.0501 8.71787 11.0709C8.76856 11.093 8.82192 11.1041 8.87662 11.1041H14.9411C14.9958 11.1041 15.0492 11.093 15.0998 11.0709C15.1519 11.0487 15.1959 11.0183 15.2346 10.9781C15.2733 10.938 15.304 10.8909 15.3253 10.8383C15.3466 10.7857 15.3573 10.7303 15.3573 10.6736C15.3573 10.6168 15.3466 10.5614 15.3253 10.5088C15.304 10.4562 15.2733 10.4091 15.2346 10.369C15.1959 10.3275 15.1505 10.297 15.0998 10.2749C15.0492 10.2527 14.9958 10.2416 14.9411 10.2416Z" fill="#FBBC05"/>
<path d="M15.3489 10.7574C15.3436 10.7849 15.336 10.812 15.3253 10.8383L15.2866 10.913C15.2714 10.9363 15.2539 10.9581 15.2346 10.9781L15.1721 11.0312C15.1498 11.0466 15.1259 11.0598 15.0998 11.0709C15.0492 11.093 14.9958 11.1041 14.9411 11.1041H8.87662L8.79599 11.0955C8.7695 11.09 8.74319 11.0819 8.71787 11.0709C8.66717 11.0501 8.62182 11.0183 8.58313 10.9781C8.56312 10.958 8.54552 10.9363 8.53051 10.913L8.49242 10.8383C8.47107 10.7857 8.4604 10.7303 8.4604 10.6736C8.4604 10.6168 8.47107 10.5614 8.49242 10.5088C8.51376 10.4562 8.54311 10.4091 8.58313 10.369C8.62182 10.3275 8.66717 10.297 8.71787 10.2749C8.7432 10.2638 8.76949 10.2557 8.79599 10.2502L8.87662 10.2416H14.9411C14.9958 10.2416 15.0492 10.2527 15.0998 10.2749C15.1505 10.297 15.1959 10.3275 15.2346 10.369C15.2733 10.4091 15.304 10.4562 15.3253 10.5088C15.3466 10.5614 15.3573 10.6168 15.3573 10.6736L15.3489 10.7574Z" fill="white"/>
<path d="M20.444 14.648H8.87669C8.82199 14.648 8.76863 14.6591 8.71794 14.6813C8.66724 14.7034 8.62189 14.7339 8.5832 14.774C8.54318 14.8142 8.51383 14.8612 8.49249 14.9138C8.47114 14.9664 8.46047 15.0218 8.46047 15.0786C8.46047 15.1353 8.47114 15.1907 8.49249 15.2433C8.51383 15.2959 8.54318 15.343 8.5832 15.3831C8.62189 15.4247 8.66724 15.4551 8.71794 15.4773C8.76863 15.4994 8.82199 15.5105 8.87669 15.5105H20.444C20.4987 15.5105 20.5521 15.4994 20.6028 15.4773C20.6548 15.4551 20.6988 15.4247 20.7375 15.3831C20.7762 15.343 20.8069 15.2959 20.8282 15.2433C20.8496 15.1907 20.8602 15.1353 20.8602 15.0786C20.8602 15.0218 20.8496 14.9664 20.8282 14.9138C20.8069 14.8612 20.7762 14.8142 20.7375 14.774C20.6988 14.7339 20.6535 14.702 20.6028 14.6813C20.5521 14.6591 20.4987 14.648 20.444 14.648Z" fill="#FBBC05"/>
<path d="M20.8523 15.1626C20.8469 15.1901 20.8389 15.2171 20.8282 15.2433L20.7893 15.3176C20.7742 15.341 20.7569 15.363 20.7375 15.3831C20.6988 15.4247 20.6548 15.4551 20.6028 15.4773C20.5521 15.4994 20.4987 15.5105 20.444 15.5105H8.87669L8.79606 15.502L8.71794 15.4773C8.66724 15.4551 8.62189 15.4247 8.5832 15.3831C8.5631 15.363 8.54564 15.3411 8.53059 15.3176L8.49249 15.2433C8.47114 15.1907 8.46047 15.1353 8.46047 15.0786C8.46047 15.0218 8.47114 14.9664 8.49249 14.9138C8.50315 14.8876 8.5156 14.8625 8.53059 14.8392L8.5832 14.774C8.62189 14.7339 8.66724 14.7034 8.71794 14.6813C8.74327 14.6702 8.76957 14.6621 8.79606 14.6566L8.87669 14.648H20.444C20.4987 14.648 20.5521 14.6591 20.6028 14.6813C20.6535 14.702 20.6988 14.7339 20.7375 14.774C20.7762 14.8142 20.8069 14.8612 20.8282 14.9138C20.8496 14.9664 20.8602 15.0218 20.8602 15.0786L20.8523 15.1626Z" fill="white"/>
<path d="M24.8423 19.0544H9.02876C8.95273 19.0544 8.88069 19.0655 8.81132 19.0877C8.74195 19.1098 8.68058 19.1403 8.62722 19.1804C8.57253 19.2206 8.53251 19.2676 8.50316 19.3202C8.47381 19.3728 8.46047 19.4282 8.46047 19.485C8.46047 19.5417 8.47514 19.5971 8.50316 19.6497C8.53117 19.7023 8.57253 19.7494 8.62722 19.7895C8.68058 19.8311 8.74195 19.8615 8.81132 19.8837C8.88069 19.9058 8.95273 19.9169 9.02876 19.9169H24.8423C24.9183 19.9169 24.9904 19.9058 25.0598 19.8837C25.1305 19.8615 25.1918 19.8311 25.2452 19.7895C25.2985 19.7494 25.3386 19.7023 25.3692 19.6497C25.3973 19.5971 25.4119 19.5417 25.4119 19.485C25.4119 19.4282 25.3973 19.3728 25.3692 19.3202C25.3399 19.2676 25.2985 19.2206 25.2452 19.1804C25.1918 19.1403 25.1305 19.1084 25.0598 19.0877C24.9904 19.0655 24.9183 19.0544 24.8423 19.0544Z" fill="#FBBC05"/>
<path d="M24.8423 19.9169L24.8267 19.917L24.8422 19.8606L24.8423 19.9169ZM9.02876 19.0544H9.17481L8.89195 19.433L9.57332 19.0544H24.8423C24.9183 19.0544 24.9904 19.0655 25.0598 19.0877C25.1305 19.1084 25.1918 19.1403 25.2452 19.1804C25.2985 19.2206 25.3399 19.2676 25.3692 19.3202C25.3973 19.3728 25.4119 19.4282 25.4119 19.485L25.4091 19.5274C25.4037 19.5693 25.3902 19.6103 25.3692 19.6497L25.3157 19.724C25.2951 19.7474 25.2719 19.7694 25.2452 19.7895C25.1918 19.8311 25.1305 19.8615 25.0598 19.8837C24.9904 19.9058 24.9183 19.9169 24.8423 19.9169L24.8422 19.8606L24.8267 19.917L9.02876 19.9169L8.91772 19.9084L8.81132 19.8837C8.74195 19.8615 8.68058 19.8311 8.62722 19.7895C8.58614 19.7594 8.55241 19.7253 8.52639 19.6879L8.50316 19.6497C8.47514 19.5971 8.46047 19.5417 8.46047 19.485C8.46047 19.4282 8.47381 19.3728 8.50316 19.3202C8.52514 19.2808 8.55307 19.2445 8.58872 19.2119L8.62722 19.1804C8.68058 19.1403 8.74195 19.1098 8.81132 19.0877C8.88069 19.0655 8.95273 19.0544 9.02876 19.0544ZM9.57332 19.0544L8.89195 19.433L9.17481 19.0544H9.57332Z" fill="white"/>
<path d="M28.6603 23.4595H9.16083C9.06745 23.4595 8.97807 23.4705 8.8927 23.4927C8.80732 23.5148 8.73128 23.5453 8.66591 23.5854C8.59921 23.6256 8.54852 23.6727 8.51383 23.7253C8.47915 23.7779 8.46047 23.8332 8.46047 23.89C8.46047 23.9468 8.47781 24.0021 8.51383 24.0547C8.54985 24.1073 8.59921 24.1544 8.66591 24.1946C8.73128 24.2361 8.80732 24.2665 8.8927 24.2887C8.97807 24.3108 9.06745 24.3219 9.16083 24.3219H28.6603C28.7537 24.3219 28.843 24.3108 28.9284 24.2887C29.0151 24.2665 29.0912 24.2361 29.1565 24.1946C29.2219 24.1544 29.2726 24.1073 29.3086 24.0547C29.3433 24.0021 29.362 23.9468 29.362 23.89C29.362 23.8332 29.3446 23.7779 29.3086 23.7253C29.2726 23.6727 29.2219 23.6256 29.1565 23.5854C29.0912 23.5453 29.0151 23.5135 28.9284 23.4927C28.843 23.4705 28.7537 23.4595 28.6603 23.4595Z" fill="#FBBC05"/>
<path d="M9.16083 23.4595H28.6603C28.7537 23.4595 28.843 23.4705 28.9284 23.4927C29.0151 23.5135 29.0912 23.5453 29.1565 23.5854C29.2219 23.6256 29.2726 23.6727 29.3086 23.7253C29.3446 23.7779 29.362 23.8332 29.362 23.89L29.3584 23.9323C29.3515 23.9743 29.3346 24.0153 29.3086 24.0547L29.2787 24.0928C29.2462 24.1302 29.2056 24.1644 29.1565 24.1946C29.0912 24.2361 29.0151 24.2665 28.9284 24.2887C28.843 24.3108 28.7537 24.3219 28.6603 24.3219H9.16083L9.02379 24.3133L8.8927 24.2887C8.80732 24.2665 8.73128 24.2361 8.66591 24.1946C8.61577 24.1644 8.57541 24.1302 8.54317 24.0928L8.51383 24.0547C8.47781 24.0021 8.46047 23.9468 8.46047 23.89C8.46047 23.8332 8.47915 23.7779 8.51383 23.7253C8.53981 23.6859 8.57474 23.6495 8.61868 23.6169L8.66591 23.5854C8.73128 23.5453 8.80732 23.5148 8.8927 23.4927C8.96264 23.4745 9.03536 23.4658 9.11068 23.4625L9.16083 23.4595Z" fill="white"/>
</svg>
